<svg width="484" height="184" viewBox="0 0 484 184" fill="none" xmlns="http://www.w3.org/2000/svg">
<g opacity="0.5">
<circle cx="253.896" cy="4.18182" r="4.18182" fill="#E7F0FC"/>
<circle cx="253.896" cy="29.2726" r="4.18182" fill="#E7F0FC"/>
<circle cx="253.896" cy="54.3637" r="4.18182" fill="#E7F0FC"/>
<circle cx="253.896" cy="79.4545" r="4.18182" fill="#E7F0FC"/>
<circle cx="253.896" cy="104.545" r="4.18182" fill="#E7F0FC"/>
<circle cx="253.896" cy="129.636" r="4.18182" fill="#E7F0FC"/>
<circle cx="253.896" cy="154.727" r="4.18182" fill="#E7F0FC"/>
<circle cx="253.896" cy="179.818" r="4.18182" fill="#E7F0FC"/>
<circle cx="278.987" cy="4.18182" r="4.18182" fill="#E7F0FC"/>
<circle cx="278.987" cy="29.2726" r="4.18182" fill="#E7F0FC"/>
<circle cx="278.987" cy="54.3637" r="4.18182" fill="#E7F0FC"/>
<circle cx="278.987" cy="79.4545" r="4.18182" fill="#E7F0FC"/>
<circle cx="278.987" cy="104.545" r="4.18182" fill="#E7F0FC"/>
<circle cx="278.987" cy="129.636" r="4.18182" fill="#E7F0FC"/>
<circle cx="278.987" cy="154.727" r="4.18182" fill="#E7F0FC"/>
<circle cx="278.987" cy="179.818" r="4.18182" fill="#E7F0FC"/>
<circle cx="304.078" cy="4.18182" r="4.18182" fill="#E7F0FC"/>
<circle cx="304.078" cy="29.2726" r="4.18182" fill="#E7F0FC"/>
<circle cx="304.078" cy="54.3637" r="4.18182" fill="#E7F0FC"/>
<circle cx="304.078" cy="79.4545" r="4.18182" fill="#E7F0FC"/>
<circle cx="304.078" cy="104.545" r="4.18182" fill="#E7F0FC"/>
<circle cx="304.078" cy="129.636" r="4.18182" fill="#E7F0FC"/>
<circle cx="304.078" cy="154.727" r="4.18182" fill="#E7F0FC"/>
<circle cx="304.078" cy="179.818" r="4.18182" fill="#E7F0FC"/>
<circle cx="329.169" cy="4.18182" r="4.18182" fill="#E7F0FC"/>
<circle cx="329.169" cy="29.2726" r="4.18182" fill="#E7F0FC"/>
<circle cx="329.169" cy="54.3637" r="4.18182" fill="#E7F0FC"/>
<circle cx="329.169" cy="79.4545" r="4.18182" fill="#E7F0FC"/>
<circle cx="329.169" cy="104.545" r="4.18182" fill="#E7F0FC"/>
<circle cx="329.169" cy="129.636" r="4.18182" fill="#E7F0FC"/>
<circle cx="329.169" cy="154.727" r="4.18182" fill="#E7F0FC"/>
<circle cx="329.169" cy="179.818" r="4.18182" fill="#E7F0FC"/>
<circle cx="354.26" cy="4.18182" r="4.18182" fill="#E7F0FC"/>
<circle cx="354.26" cy="29.2726" r="4.18182" fill="#E7F0FC"/>
<circle cx="354.26" cy="54.3637" r="4.18182" fill="#E7F0FC"/>
<circle cx="354.26" cy="79.4545" r="4.18182" fill="#E7F0FC"/>
<circle cx="354.26" cy="104.545" r="4.18182" fill="#E7F0FC"/>
<circle cx="354.26" cy="129.636" r="4.18182" fill="#E7F0FC"/>
<circle cx="354.26" cy="154.727" r="4.18182" fill="#E7F0FC"/>
<circle cx="354.26" cy="179.818" r="4.18182" fill="#E7F0FC"/>
<circle cx="379.351" cy="4.18182" r="4.18182" fill="#E7F0FC"/>
<circle cx="379.351" cy="29.2726" r="4.18182" fill="#E7F0FC"/>
<circle cx="379.351" cy="54.3637" r="4.18182" fill="#E7F0FC"/>
<circle cx="379.351" cy="79.4545" r="4.18182" fill="#E7F0FC"/>
<circle cx="379.351" cy="104.545" r="4.18182" fill="#E7F0FC"/>
<circle cx="379.351" cy="129.636" r="4.18182" fill="#E7F0FC"/>
<circle cx="379.351" cy="154.727" r="4.18182" fill="#E7F0FC"/>
<circle cx="379.351" cy="179.818" r="4.18182" fill="#E7F0FC"/>
<circle cx="404.442" cy="4.18182" r="4.18182" fill="#E7F0FC"/>
<circle cx="404.442" cy="29.2726" r="4.18182" fill="#E7F0FC"/>
<circle cx="404.442" cy="54.3637" r="4.18182" fill="#E7F0FC"/>
<circle cx="404.442" cy="79.4545" r="4.18182" fill="#E7F0FC"/>
<circle cx="404.442" cy="104.545" r="4.18182" fill="#E7F0FC"/>
<circle cx="404.442" cy="129.636" r="4.18182" fill="#E7F0FC"/>
<circle cx="404.442" cy="154.727" r="4.18182" fill="#E7F0FC"/>
<circle cx="404.442" cy="179.818" r="4.18182" fill="#E7F0FC"/>
<circle cx="429.532" cy="4.18182" r="4.18182" fill="#E7F0FC"/>
<circle cx="429.532" cy="29.2726" r="4.18182" fill="#E7F0FC"/>
<circle cx="429.532" cy="54.3637" r="4.18182" fill="#E7F0FC"/>
<circle cx="429.532" cy="79.4545" r="4.18182" fill="#E7F0FC"/>
<circle cx="429.532" cy="104.545" r="4.18182" fill="#E7F0FC"/>
<circle cx="429.532" cy="129.636" r="4.18182" fill="#E7F0FC"/>
<circle cx="429.532" cy="154.727" r="4.18182" fill="#E7F0FC"/>
<circle cx="429.532" cy="179.818" r="4.18182" fill="#E7F0FC"/>
<circle cx="454.623" cy="4.18182" r="4.18182" fill="#E7F0FC"/>
<circle cx="454.623" cy="29.2726" r="4.18182" fill="#E7F0FC"/>
<circle cx="454.623" cy="54.3637" r="4.18182" fill="#E7F0FC"/>
<circle cx="454.623" cy="79.4545" r="4.18182" fill="#E7F0FC"/>
<circle cx="454.623" cy="104.545" r="4.18182" fill="#E7F0FC"/>
<circle cx="454.623" cy="129.636" r="4.18182" fill="#E7F0FC"/>
<circle cx="454.623" cy="154.727" r="4.18182" fill="#E7F0FC"/>
<circle cx="454.623" cy="179.818" r="4.18182" fill="#E7F0FC"/>
<circle cx="479.715" cy="4.18182" r="4.18182" fill="#E7F0FC"/>
<circle cx="479.715" cy="29.2726" r="4.18182" fill="#E7F0FC"/>
<circle cx="479.715" cy="54.3637" r="4.18182" fill="#E7F0FC"/>
<circle cx="479.715" cy="79.4545" r="4.18182" fill="#E7F0FC"/>
<circle cx="479.715" cy="104.545" r="4.18182" fill="#E7F0FC"/>
<circle cx="479.715" cy="129.636" r="4.18182" fill="#E7F0FC"/>
<circle cx="479.715" cy="154.727" r="4.18182" fill="#E7F0FC"/>
<circle cx="479.715" cy="179.818" r="4.18182" fill="#E7F0FC"/>
<circle cx="4.18182" cy="4.18182" r="4.18182" fill="#E7F0FC"/>
<circle cx="4.18182" cy="29.2726" r="4.18182" fill="#E7F0FC"/>
<circle cx="4.18182" cy="54.3637" r="4.18182" fill="#E7F0FC"/>
<circle cx="4.18182" cy="79.4545" r="4.18182" fill="#E7F0FC"/>
<circle cx="4.18182" cy="104.545" r="4.18182" fill="#E7F0FC"/>
<circle cx="4.18182" cy="129.636" r="4.18182" fill="#E7F0FC"/>
<circle cx="4.18182" cy="154.727" r="4.18182" fill="#E7F0FC"/>
<circle cx="4.18182" cy="179.818" r="4.18182" fill="#E7F0FC"/>
<circle cx="29.2726" cy="4.18182" r="4.18182" fill="#E7F0FC"/>
<circle cx="29.2726" cy="29.2726" r="4.18182" fill="#E7F0FC"/>
<circle cx="29.2726" cy="54.3637" r="4.18182" fill="#E7F0FC"/>
<circle cx="29.2726" cy="79.4545" r="4.18182" fill="#E7F0FC"/>
<circle cx="29.2726" cy="104.545" r="4.18182" fill="#E7F0FC"/>
<circle cx="29.2726" cy="129.636" r="4.18182" fill="#E7F0FC"/>
<circle cx="29.2726" cy="154.727" r="4.18182" fill="#E7F0FC"/>
<circle cx="29.2726" cy="179.818" r="4.18182" fill="#E7F0FC"/>
<circle cx="54.3635" cy="4.18182" r="4.18182" fill="#E7F0FC"/>
<circle cx="54.3635" cy="29.2726" r="4.18182" fill="#E7F0FC"/>
<circle cx="54.3635" cy="54.3637" r="4.18182" fill="#E7F0FC"/>
<circle cx="54.3635" cy="79.4545" r="4.18182" fill="#E7F0FC"/>
<circle cx="54.3635" cy="104.545" r="4.18182" fill="#E7F0FC"/>
<circle cx="54.3635" cy="129.636" r="4.18182" fill="#E7F0FC"/>
<circle cx="54.3635" cy="154.727" r="4.18182" fill="#E7F0FC"/>
<circle cx="54.3635" cy="179.818" r="4.18182" fill="#E7F0FC"/>
<circle cx="79.4548" cy="4.18182" r="4.18182" fill="#E7F0FC"/>
<circle cx="79.4548" cy="29.2726" r="4.18182" fill="#E7F0FC"/>
<circle cx="79.4548" cy="54.3637" r="4.18182" fill="#E7F0FC"/>
<circle cx="79.4548" cy="79.4545" r="4.18182" fill="#E7F0FC"/>
<circle cx="79.4548" cy="104.545" r="4.18182" fill="#E7F0FC"/>
<circle cx="79.4548" cy="129.636" r="4.18182" fill="#E7F0FC"/>
<circle cx="79.4548" cy="154.727" r="4.18182" fill="#E7F0FC"/>
<circle cx="79.4548" cy="179.818" r="4.18182" fill="#E7F0FC"/>
<circle cx="104.546" cy="4.18182" r="4.18182" fill="#E7F0FC"/>
<circle cx="104.546" cy="29.2726" r="4.18182" fill="#E7F0FC"/>
<circle cx="104.546" cy="54.3637" r="4.18182" fill="#E7F0FC"/>
<circle cx="104.546" cy="79.4545" r="4.18182" fill="#E7F0FC"/>
<circle cx="104.546" cy="104.545" r="4.18182" fill="#E7F0FC"/>
<circle cx="104.546" cy="129.636" r="4.18182" fill="#E7F0FC"/>
<circle cx="104.546" cy="154.727" r="4.18182" fill="#E7F0FC"/>
<circle cx="104.546" cy="179.818" r="4.18182" fill="#E7F0FC"/>
<circle cx="129.636" cy="4.18182" r="4.18182" fill="#E7F0FC"/>
<circle cx="129.636" cy="29.2726" r="4.18182" fill="#E7F0FC"/>
<circle cx="129.636" cy="54.3637" r="4.18182" fill="#E7F0FC"/>
<circle cx="129.636" cy="79.4545" r="4.18182" fill="#E7F0FC"/>
<circle cx="129.636" cy="104.545" r="4.18182" fill="#E7F0FC"/>
<circle cx="129.636" cy="129.636" r="4.18182" fill="#E7F0FC"/>
<circle cx="129.636" cy="154.727" r="4.18182" fill="#E7F0FC"/>
<circle cx="129.636" cy="179.818" r="4.18182" fill="#E7F0FC"/>
<circle cx="154.727" cy="4.18182" r="4.18182" fill="#E7F0FC"/>
<circle cx="154.727" cy="29.2726" r="4.18182" fill="#E7F0FC"/>
<circle cx="154.727" cy="54.3637" r="4.18182" fill="#E7F0FC"/>
<circle cx="154.727" cy="79.4545" r="4.18182" fill="#E7F0FC"/>
<circle cx="154.727" cy="104.545" r="4.18182" fill="#E7F0FC"/>
<circle cx="154.727" cy="129.636" r="4.18182" fill="#E7F0FC"/>
<circle cx="154.727" cy="154.727" r="4.18182" fill="#E7F0FC"/>
<circle cx="154.727" cy="179.818" r="4.18182" fill="#E7F0FC"/>
<circle cx="179.818" cy="4.18182" r="4.18182" fill="#E7F0FC"/>
<circle cx="179.818" cy="29.2726" r="4.18182" fill="#E7F0FC"/>
<circle cx="179.818" cy="54.3637" r="4.18182" fill="#E7F0FC"/>
<circle cx="179.818" cy="79.4545" r="4.18182" fill="#E7F0FC"/>
<circle cx="179.818" cy="104.545" r="4.18182" fill="#E7F0FC"/>
<circle cx="179.818" cy="129.636" r="4.18182" fill="#E7F0FC"/>
<circle cx="179.818" cy="154.727" r="4.18182" fill="#E7F0FC"/>
<circle cx="179.818" cy="179.818" r="4.18182" fill="#E7F0FC"/>
<circle cx="204.909" cy="4.18182" r="4.18182" fill="#E7F0FC"/>
<circle cx="204.909" cy="29.2726" r="4.18182" fill="#E7F0FC"/>
<circle cx="204.909" cy="54.3637" r="4.18182" fill="#E7F0FC"/>
<circle cx="204.909" cy="79.4545" r="4.18182" fill="#E7F0FC"/>
<circle cx="204.909" cy="104.545" r="4.18182" fill="#E7F0FC"/>
<circle cx="204.909" cy="129.636" r="4.18182" fill="#E7F0FC"/>
<circle cx="204.909" cy="154.727" r="4.18182" fill="#E7F0FC"/>
<circle cx="204.909" cy="179.818" r="4.18182" fill="#E7F0FC"/>
<circle cx="230" cy="4.18182" r="4.18182" fill="#E7F0FC"/>
<circle cx="230" cy="29.2726" r="4.18182" fill="#E7F0FC"/>
<circle cx="230" cy="54.3637" r="4.18182" fill="#E7F0FC"/>
<circle cx="230" cy="79.4545" r="4.18182" fill="#E7F0FC"/>
<circle cx="230" cy="104.545" r="4.18182" fill="#E7F0FC"/>
<circle cx="230" cy="129.636" r="4.18182" fill="#E7F0FC"/>
<circle cx="230" cy="154.727" r="4.18182" fill="#E7F0FC"/>
<circle cx="230" cy="179.818" r="4.18182" fill="#E7F0FC"/>
</g>
</svg>
