<svg width="45" height="45" viewBox="0 0 45 45" fill="none" xmlns="http://www.w3.org/2000/svg">
<g clip-path="url(#clip0_1_306)">
<path d="M21.1012 45C20.3089 44.8891 19.5068 44.8143 18.7242 44.6628C10.7338 43.1186 5.03948 38.6355 1.78558 31.1836C-1.93405 22.6655 0.317094 12.3717 7.15592 6.07931C10.8747 2.65624 15.2443 0.670897 20.2649 0.123276C23.2705 -0.202479 26.2242 0.123275 29.1154 1.0081C29.7545 1.20355 30.0583 1.64728 29.9958 2.24597C29.9729 2.49656 29.8628 2.73117 29.6847 2.90895C29.5066 3.08672 29.2718 3.19638 29.0212 3.21883C28.8031 3.22786 28.5852 3.19805 28.3776 3.13079C21.8381 1.29952 15.7758 2.31464 10.3218 6.35841C6.06073 9.51735 3.4636 13.8024 2.57441 19.0364C1.52763 25.1712 3.0234 30.6976 6.97633 35.4924C10.1202 39.3046 14.1955 41.6553 19.0719 42.4538C25.5868 43.5253 31.3973 41.856 36.2306 37.3668C41.3069 32.6504 43.3785 26.7225 42.5571 19.8288C42.4277 18.7459 42.1266 17.6815 41.8704 16.6171C41.689 15.859 41.9514 15.2348 42.5888 15.0561C43.2438 14.8729 43.809 15.2322 44.0326 15.9867C44.5144 17.5831 44.8154 19.2287 44.9297 20.8924C44.9453 21.0214 44.9691 21.1493 45.001 21.2754V23.7352C44.9764 23.8629 44.9465 23.9897 44.928 24.1182C44.7783 25.1589 44.6823 26.2101 44.4746 27.2393C42.6883 36.0646 35.2763 43.1908 26.38 44.654C25.5604 44.7887 24.7355 44.8856 23.9149 45H21.1012Z" fill="#0F95E2"/>
<path d="M22.6028 38.2066C14.9435 38.1336 8.39872 32.5984 7.11776 25.0426C6.76634 22.974 6.83407 20.8559 7.3169 18.814C7.79973 16.772 8.68782 14.8479 9.92849 13.1558C11.1691 11.4637 12.7371 10.0381 14.5392 8.96357C16.3414 7.88906 18.341 7.18755 20.4195 6.90068C21.4126 6.76245 22.4329 6.79767 23.441 6.78975C24.0176 6.78446 24.4517 7.06444 24.6471 7.63495C24.9112 8.39915 24.3258 9.11405 23.4797 9.04362C20.9107 8.82176 18.5047 9.38258 16.2421 10.5747C11.4176 13.1156 8.61353 18.4483 9.22012 23.8849C9.90506 30.0267 14.55 34.8311 20.6907 35.752C27.945 36.8393 34.8596 31.6722 35.8667 24.3788C35.9935 23.4587 35.9706 22.514 35.9548 21.5808C35.9451 20.8765 36.3069 20.3482 36.9646 20.2716C37.1221 20.2504 37.2824 20.2639 37.4341 20.3113C37.5859 20.3587 37.7254 20.4387 37.8429 20.5458C37.9604 20.6529 38.053 20.7844 38.1142 20.9311C38.1754 21.0778 38.2037 21.2362 38.1971 21.395C38.1909 22.6637 38.249 23.9667 37.9911 25.1949C36.6027 31.843 32.5662 36.0382 25.9835 37.7286C24.8883 38.0094 23.7315 38.0534 22.6028 38.2066Z" fill="#0F95E2"/>
<path d="M32.9898 15.7383C32.2855 15.7383 31.5108 15.5499 30.9059 15.792C30.317 16.0271 29.9006 16.6997 29.4146 17.1857C27.446 19.1508 25.4798 21.1171 23.516 23.0845C23.1638 23.4367 22.7747 23.663 22.2606 23.5107C22.0842 23.4611 21.9229 23.3685 21.7912 23.241C21.6596 23.1135 21.5618 22.9552 21.5067 22.7805C21.4516 22.6057 21.4408 22.42 21.4754 22.24C21.5101 22.0601 21.589 21.8916 21.705 21.7498C21.8173 21.6145 21.9379 21.4863 22.066 21.366C24.3621 19.064 26.661 16.7684 28.9629 14.4793C29.0798 14.3731 29.1715 14.2421 29.231 14.0958C29.2906 13.9495 29.3166 13.7918 29.3072 13.6341C29.286 12.5362 29.3072 11.4383 29.2966 10.3405C29.2885 10.1215 29.3272 9.90334 29.4101 9.70051C29.493 9.49769 29.6182 9.31486 29.7773 9.16423C31.9272 7.02833 34.0695 4.88597 36.2041 2.73716C36.6029 2.33657 37.0422 2.14112 37.5854 2.36387C38.1286 2.58661 38.2713 3.03387 38.2651 3.57709C38.2554 4.4848 38.2809 5.39251 38.2545 6.29934C38.2431 6.67704 38.3734 6.76772 38.729 6.75892C39.6358 6.73691 40.5444 6.75892 41.4521 6.74835C41.9988 6.74219 42.4425 6.90859 42.6556 7.443C42.8686 7.97742 42.6846 8.40266 42.2955 8.79005C40.1374 10.9394 37.9845 13.0932 35.837 15.2514C35.6919 15.4061 35.5152 15.5277 35.3189 15.6081C35.1227 15.6884 34.9114 15.7256 34.6995 15.7172C34.129 15.7057 33.555 15.7172 32.9872 15.7172L32.9898 15.7383ZM31.5478 13.4607C32.495 13.4607 33.3851 13.4704 34.2769 13.4501C34.4125 13.4501 34.5684 13.3313 34.674 13.2265C35.9946 11.9182 37.3102 10.6043 38.6208 9.28484C38.6956 9.21001 38.7546 9.1202 38.8673 8.97934C38.295 8.97934 37.8011 8.98374 37.3064 8.97934C36.4665 8.97141 36.0386 8.54353 36.0324 7.70801C36.0324 7.20529 36.0324 6.70257 36.0324 6.17432C35.9444 6.21042 35.9109 6.21394 35.8925 6.23243C34.4938 7.62819 33.0963 9.02571 31.7001 10.425C31.6139 10.519 31.5635 10.6401 31.5574 10.7675C31.5478 11.6444 31.5478 12.5213 31.5478 13.4607Z" fill="#0F95E2"/>
<path d="M13.6468 22.4313C13.6358 20.1299 14.5137 17.9132 16.0974 16.2435C17.6811 14.5737 19.8483 13.58 22.147 13.4695C22.2936 13.462 22.4405 13.462 22.5872 13.4695C23.2122 13.503 23.6779 13.9608 23.6982 14.5551C23.7184 15.1317 23.3099 15.6072 22.699 15.6943C22.1205 15.7771 21.5272 15.7824 20.9628 15.9215C17.8428 16.6733 15.6277 19.6685 15.8654 22.772C16.1295 26.2057 18.6131 28.8029 21.9286 29.119C22.8376 29.2109 23.7558 29.1157 24.6265 28.8392C25.4973 28.5627 26.3022 28.1109 26.9917 27.5114C27.6812 26.912 28.2406 26.1777 28.6355 25.3538C29.0304 24.5299 29.2524 23.6339 29.2878 22.721C29.308 22.2341 29.3758 21.778 29.8274 21.4954C29.993 21.3843 30.1865 21.3218 30.3858 21.3149C30.5851 21.3081 30.7824 21.3572 30.9552 21.4567C31.384 21.69 31.5609 22.073 31.5495 22.5519C31.4975 24.6579 30.8522 26.564 29.4665 28.1567C27.0014 30.9916 23.8708 32.0375 20.2541 31.062C16.6569 30.0936 14.5114 27.617 13.7481 23.9632C13.6982 23.7193 13.6659 23.4722 13.6512 23.2237C13.6336 22.9587 13.6468 22.6945 13.6468 22.4313Z" fill="#0F95E2"/>
</g>
<defs>
<clipPath id="clip0_1_306">
<rect width="45" height="45" fill="white"/>
</clipPath>
</defs>
</svg>
