<svg width="64" height="64" viewBox="0 0 64 64" fill="none" xmlns="http://www.w3.org/2000/svg">
<g opacity="0.35" clip-path="url(#clip0_1_239)">
<path d="M64.0001 35.4888C63.6335 36.6473 63.106 37.7455 61.9356 38.2343C61.0499 38.606 60.067 38.765 59.1176 38.9676C58.3039 39.135 57.4717 39.217 56.658 39.3894C56.5379 39.4208 56.4255 39.4763 56.3276 39.5526C56.2297 39.6289 56.1484 39.7243 56.0887 39.8331C55.5585 41.0284 55.0561 42.237 54.5817 43.4591C54.5464 43.5767 54.5357 43.7003 54.5504 43.8221C54.5651 43.944 54.6049 44.0615 54.6671 44.1673C55.3787 45.2186 56.1339 46.2398 56.8656 47.2777C58.2168 49.1962 58.0678 51.1465 56.4302 52.8105C55.2325 54.0259 54.0253 55.2335 52.8086 56.4332C51.1593 58.0504 49.2103 58.2011 47.3283 56.8752C46.3069 56.1553 45.2805 55.4422 44.2843 54.6888C43.9494 54.4344 43.6915 54.4528 43.3315 54.6118C42.2298 55.099 41.1163 55.5627 39.9911 55.9929C39.8246 56.0387 39.6763 56.1349 39.5666 56.2683C39.4569 56.4017 39.3911 56.5657 39.3783 56.7379C39.1506 58.1542 38.9413 59.5838 38.6282 60.975C38.45 61.8097 37.9947 62.5595 37.3362 63.1026C36.6778 63.6458 35.8549 63.9502 35.0015 63.9666C33.0034 64.019 31.0042 64.019 29.0038 63.9666C27.0716 63.9147 25.5998 62.5369 25.2566 60.5682C25.0355 59.2976 24.8195 58.027 24.6287 56.7513C24.6178 56.579 24.5538 56.4142 24.4456 56.2797C24.3374 56.1451 24.1902 56.0473 24.0242 55.9996C22.9174 55.5795 21.8224 55.1258 20.7391 54.6487C20.6079 54.5743 20.4569 54.5426 20.3069 54.5579C20.1568 54.5732 20.0153 54.6347 19.9019 54.734C18.8453 55.5125 17.7737 56.2692 16.6971 57.0175C14.9038 58.2663 12.9883 58.1475 11.4127 56.6391C10.0855 55.3691 8.78898 54.0728 7.52315 52.7503C6.04467 51.2017 5.91909 49.2732 7.14307 47.5104C7.8664 46.468 8.60927 45.4384 9.37167 44.4217C9.48669 44.2936 9.5578 44.1321 9.57467 43.9608C9.59153 43.7895 9.55326 43.6172 9.46544 43.4692C8.96312 42.3743 8.4809 41.2678 8.05895 40.1411C8.00815 39.9671 7.90478 39.813 7.763 39.7001C7.62122 39.5871 7.44796 39.5207 7.26697 39.51C6.01453 39.3074 4.75539 39.0915 3.513 38.8755C1.3363 38.4988 0.0235808 36.9754 0.00851129 34.7673C-0.00153501 32.9961 -0.00153501 31.2261 0.00851129 29.4571C0.0252551 27.2976 1.34802 25.744 3.48286 25.3791C4.75539 25.1615 6.03127 24.974 7.29711 24.7245C7.42364 24.6855 7.54072 24.6208 7.641 24.5344C7.74128 24.4479 7.82259 24.3417 7.87979 24.2223C8.39048 23.0638 8.83084 21.8786 9.34488 20.7168C9.41593 20.5832 9.44363 20.4309 9.42413 20.2809C9.40462 20.1309 9.33889 19.9907 9.23605 19.8797C8.49932 18.8753 7.77933 17.8508 7.05935 16.8312C5.66458 14.8592 5.82197 12.9106 7.51813 11.2063C8.67903 10.0401 9.84441 8.87826 11.0142 7.72091C12.7556 5.99494 14.6979 5.83758 16.6854 7.25887C17.69 7.97538 18.6679 8.71029 19.6859 9.39667C19.8011 9.46119 19.9285 9.50093 20.06 9.51333C20.1915 9.52572 20.3241 9.5105 20.4494 9.46865C21.6097 9.01498 22.7383 8.48262 23.9037 8.04066C24.0683 7.99107 24.2137 7.89201 24.32 7.75693C24.4264 7.62184 24.4885 7.4573 24.4981 7.28566C24.699 6.01168 24.9083 4.73938 25.1377 3.47043C25.4458 1.75952 26.4069 0.616127 28.1047 0.130644C28.199 0.0944341 28.2907 0.0519318 28.3793 0.00341797H35.3782C35.4674 0.0514014 35.5597 0.0933475 35.6545 0.128974C37.3289 0.601064 38.2967 1.71767 38.6148 3.40179C38.8542 4.6674 39.0585 5.94137 39.2511 7.21534C39.2606 7.37774 39.3209 7.53305 39.4233 7.65946C39.5257 7.78587 39.6651 7.87703 39.822 7.92013C41.0443 8.38385 42.2382 8.92458 43.4605 9.38662C43.5855 9.42838 43.7177 9.44413 43.849 9.4329C43.9803 9.42167 44.1079 9.3837 44.224 9.32133C45.2805 8.61654 46.3002 7.85986 47.3383 7.12829C49.2522 5.77899 51.1995 5.933 52.8638 7.57694C54.0627 8.76219 55.2548 9.95525 56.4403 11.1561C58.1147 12.8419 58.257 14.7805 56.8756 16.7308C56.154 17.7503 55.4072 18.7514 54.7123 19.7893C54.6474 19.9049 54.607 20.0327 54.5937 20.1647C54.5805 20.2966 54.5946 20.4299 54.6353 20.5561C55.0874 21.738 55.6098 22.8998 56.0619 24.0716C56.1052 24.2186 56.1927 24.3487 56.3126 24.4442C56.4324 24.5397 56.5787 24.5961 56.7316 24.6057C58.0042 24.8082 59.2918 24.9606 60.5409 25.2669C61.2969 25.4661 62.014 25.7909 62.6623 26.2278C63.4375 26.7418 63.7289 27.6307 64.0018 28.4895L64.0001 35.4888ZM14.0683 9.86541C13.9009 9.99766 13.7334 10.1081 13.5928 10.2488C12.4207 11.4089 11.2721 12.5824 10.0933 13.7292C9.74004 14.064 9.71324 14.3436 10.0063 14.7453C10.9791 16.0712 11.8966 17.4373 12.8812 18.7531C13.5325 19.6253 13.5426 20.4272 13.0754 21.4132C12.3152 23.0017 11.6488 24.6334 11.0795 26.2998C10.7112 27.3913 10.1051 27.9605 8.98154 28.1179C7.3959 28.3389 5.8203 28.6385 4.23801 28.8896C3.79262 28.9599 3.60509 29.1575 3.61346 29.6346C3.63858 31.2384 3.64695 32.8421 3.61346 34.4459C3.60007 35.0452 3.7943 35.2829 4.3954 35.3733C6.02123 35.6127 7.63366 35.9392 9.25949 36.1853C10.244 36.3359 10.8351 36.8649 11.0879 37.8074C11.5719 39.5964 12.2945 41.3121 13.2362 42.9084C13.7502 43.7822 13.6983 44.5824 13.0989 45.4044C12.126 46.7286 11.2001 48.0829 10.2239 49.4121C9.9125 49.834 9.93761 50.1186 10.3093 50.4802C11.4747 51.6119 12.6233 52.7603 13.7552 53.9255C14.0985 54.2787 14.3697 54.3105 14.7682 54.0175C16.096 53.0449 17.4606 52.1242 18.7784 51.1415C19.649 50.4936 20.4628 50.4836 21.444 50.949C22.9958 51.6981 24.5904 52.3555 26.2193 52.9177C27.3211 53.2876 27.8569 53.9221 28.0109 55.037C28.2319 56.6224 28.53 58.1977 28.7778 59.7797C28.8481 60.2317 29.0557 60.4075 29.5262 60.4008C31.1504 60.379 32.7762 60.3707 34.4004 60.4008C34.9563 60.4125 35.1706 60.2049 35.2526 59.6759C35.5055 58.032 35.8085 56.3947 36.0664 54.7508C36.2171 53.7966 36.7361 53.2257 37.6637 52.9779C39.4576 52.509 41.1787 51.7965 42.779 50.8602C43.6781 50.3312 44.4902 50.3999 45.3257 51.0193C46.6468 51.9969 48.0047 52.921 49.3342 53.8937C49.726 54.1816 50.004 54.1883 50.3506 53.825C51.4958 52.6454 52.659 51.4819 53.84 50.3346C54.1983 49.9864 54.1966 49.7068 53.9103 49.3134C52.9408 47.9858 52.0166 46.6231 51.0404 45.2956C50.4259 44.4586 50.4159 43.6835 50.8596 42.7426C51.6365 41.092 52.3447 39.4045 52.9609 37.6886C53.3142 36.7059 53.8751 36.1601 54.8898 36.0045C56.4939 35.76 58.0912 35.4704 59.697 35.2294C60.2211 35.1507 60.4454 34.9381 60.4354 34.3823C60.4069 32.7986 60.3985 31.2149 60.4354 29.6346C60.4521 29.0051 60.1926 28.8126 59.6233 28.7272C58.0176 28.4879 56.4235 28.1848 54.8195 27.9354C53.845 27.7831 53.3243 27.2356 52.9777 26.3132C52.3397 24.5822 51.6382 22.873 50.8545 21.2023C50.4276 20.2849 50.4192 19.5181 51.022 18.7029C51.9965 17.377 52.9207 16.0243 53.8936 14.6851C54.1966 14.2733 54.21 13.9836 53.8283 13.6137C52.6607 12.482 51.512 11.333 50.3824 10.1667C50.0123 9.78338 49.7344 9.7817 49.3175 10.0914C47.978 11.0858 46.6133 12.035 45.2688 13.0194C44.5421 13.5517 43.7903 13.6672 42.9967 13.2152C41.2415 12.2159 39.3654 11.4457 37.4143 10.9234C36.5888 10.7024 36.1216 10.1467 35.981 9.2979C35.7047 7.61377 35.3966 5.93635 35.1354 4.25055C35.0601 3.76507 34.8675 3.58092 34.3686 3.58092C32.7645 3.60436 31.1604 3.61273 29.5564 3.58092C28.9871 3.56753 28.7393 3.74833 28.6539 4.31751C28.4161 5.90119 28.1047 7.47483 27.8753 9.0585C27.7196 10.1282 27.1637 10.7326 26.1406 11.0975C24.4478 11.7136 22.7835 12.4251 21.1543 13.1935C20.225 13.6338 19.4364 13.6639 18.5975 13.0445C17.2915 12.0785 15.9587 11.1511 14.6343 10.2119C14.4718 10.1065 14.291 10.0044 14.0683 9.86541Z" fill="#E5F5FF"/>
<path d="M31.984 18.1839C39.5472 18.132 45.7257 24.2792 45.8128 31.9432C45.8998 39.4765 39.7281 45.689 32.0661 45.7777C24.4895 45.8648 18.2273 39.6339 18.2139 31.9934C18.2005 24.3948 24.3421 18.2358 31.984 18.1839ZM32.0225 42.1802C37.6585 42.1567 42.2815 37.5128 42.2145 31.9415C42.1459 26.3049 37.5815 21.7648 32.0008 21.7815C26.3765 21.7983 21.7435 26.4572 21.8138 32.0252C21.8825 37.6719 26.4401 42.2036 32.0225 42.1802Z" fill="#E5F5FF"/>
</g>
<defs>
<clipPath id="clip0_1_239">
<rect width="64" height="64" fill="white"/>
</clipPath>
</defs>
</svg>
