<svg width="1920" height="5513" viewBox="0 0 1920 5513" fill="none" xmlns="http://www.w3.org/2000/svg">
<g opacity="0.11" clip-path="url(#clip0_1_3005)">
<g opacity="0.8">
<path d="M22.0021 1908.34C22.2829 1901.53 24.81 1894.85 29.1623 1889.2L723.143 980.719C729.18 972.753 738.306 967.484 748.836 965.685C759.365 964.015 769.895 966.071 778.6 971.596L1774.01 1605.35C1785.24 1612.54 1791.56 1624.24 1791 1636.83C1790.72 1643.64 1788.19 1650.32 1783.84 1655.97L1089.86 2564.45C1083.82 2572.42 1074.7 2577.69 1064.17 2579.49C1053.64 2581.16 1043.11 2579.1 1034.4 2573.58L39.1305 1939.83C27.8988 1932.63 21.4405 1920.94 22.0021 1908.34ZM1787.77 1636.7C1788.33 1625.13 1782.44 1614.34 1772.19 1607.79L776.775 974.037C768.772 968.898 759.085 966.97 749.397 968.512C739.71 970.054 731.426 974.937 725.811 982.261L31.8299 1890.74C27.8988 1896.01 25.6524 1902.05 25.2312 1908.34C24.6696 1919.91 30.5663 1930.7 40.8153 1937.26L1036.23 2571.01C1044.23 2576.15 1053.92 2578.07 1063.6 2576.53C1073.29 2574.99 1081.58 2570.11 1087.19 2562.78L1781.17 1654.3C1785.24 1649.16 1787.49 1643 1787.77 1636.7Z" fill="#DADADA"/>
<path d="M16.8072 1873.26C17.088 1866.45 19.6152 1859.77 24.1079 1854.25L712.894 976.607C718.931 968.898 727.916 963.758 738.165 962.216C748.414 960.674 758.663 962.858 767.087 968.384L1728.66 1597.25C1739.33 1604.32 1745.37 1615.63 1744.81 1627.7C1744.53 1634.51 1742 1641.2 1737.51 1646.72L1048.72 2524.36C1036.23 2540.29 1011.94 2543.89 994.53 2532.58L32.9529 1903.59C22.2827 1896.65 16.2457 1885.34 16.8072 1873.26ZM1741.58 1627.58C1742.14 1616.53 1736.53 1606.12 1726.7 1599.69L765.121 970.696C757.4 965.685 747.993 963.629 738.586 965.043C729.18 966.456 720.896 971.082 715.421 978.149L26.635 1855.79C22.5635 1860.93 20.3172 1866.97 20.0364 1873.26C19.4748 1884.31 25.0906 1894.72 34.9184 1901.15L996.495 2530.01C1012.5 2540.42 1034.82 2537.08 1046.2 2522.56L1734.98 1644.92C1739.05 1639.91 1741.3 1633.87 1741.58 1627.58Z" fill="#DADADA"/>
<path d="M11.4722 1838.06C11.753 1831.24 14.2801 1824.69 18.7728 1819.04L702.364 972.238C714.719 956.947 738.586 953.606 755.294 964.914L1683.18 1589.03C1693.42 1595.84 1699.18 1606.89 1698.62 1618.45C1698.34 1625.26 1695.81 1631.82 1691.32 1637.47L1007.73 2484.27C1001.69 2491.72 992.845 2496.61 982.877 2497.89C972.909 2499.3 962.94 2496.99 954.657 2491.59L26.7754 1867.48C16.6669 1860.67 10.9106 1849.62 11.4722 1838.06ZM1695.39 1618.32C1695.95 1607.79 1690.62 1597.64 1681.35 1591.47L753.469 967.356C738.025 956.947 716.263 960.031 704.891 974.037L21.3 1820.84C17.2284 1825.98 14.8417 1831.89 14.5609 1838.18C13.9993 1848.72 19.3344 1858.87 28.6006 1865.04L956.482 2489.15C963.923 2494.16 973.049 2496.22 982.315 2494.93C991.441 2493.65 999.584 2489.28 1005.06 2482.47L1688.65 1635.67C1692.72 1630.66 1695.11 1624.62 1695.39 1618.32Z" fill="#DADADA"/>
<path d="M6.13727 1802.98C6.41806 1796.17 9.08559 1789.61 13.5783 1784.09L691.835 968.127C697.731 960.931 706.436 956.305 716.264 955.148C726.091 953.863 735.779 956.305 743.641 961.702L1637.69 1581.06C1647.37 1587.74 1652.85 1598.41 1652.29 1609.46C1652.01 1616.27 1649.34 1622.82 1644.85 1628.35L966.591 2444.31C954.236 2459.08 931.07 2462.04 914.784 2450.73L20.7385 1831.37C11.0512 1824.56 5.57568 1814.03 6.13727 1802.98ZM1649.2 1609.2C1649.62 1599.05 1644.71 1589.41 1635.86 1583.24L741.816 963.886C734.656 958.875 725.811 956.819 716.825 957.847C707.84 959.003 699.978 963.244 694.502 969.797L16.1054 1785.89C11.8935 1790.9 9.50678 1796.81 9.22599 1803.1C8.8048 1813.26 13.7187 1822.89 22.5637 1829.06L916.61 2448.42C931.492 2458.7 952.692 2456 963.923 2442.51L1642.18 1626.55C1646.53 1621.41 1648.78 1615.5 1649.2 1609.2Z" fill="#DADADA"/>
<path d="M0.802048 1767.77C1.08284 1760.96 3.75038 1754.4 8.38347 1749.01L681.445 963.886C687.342 956.947 695.906 952.578 705.453 951.55C715 950.522 724.406 952.835 731.988 958.232L1592.34 1572.84C1601.46 1579.39 1606.66 1589.54 1606.1 1600.21C1605.82 1607.02 1603.15 1613.57 1598.52 1618.97L925.454 2404.09C919.558 2411.03 910.994 2415.39 901.447 2416.42C891.9 2417.45 882.493 2415.14 874.912 2409.74L14.5609 1795.14C5.43514 1788.58 0.240462 1778.43 0.802048 1767.77ZM1602.87 1600.08C1603.29 1590.44 1598.66 1581.06 1590.37 1575.15L730.022 960.545C723.143 955.662 714.579 953.478 705.874 954.377C697.169 955.405 689.448 959.389 683.972 965.685L10.9106 1750.81C6.69871 1755.69 4.31197 1761.73 4.03118 1767.9C3.60999 1777.53 8.24308 1786.91 16.5265 1792.82L876.877 2407.43C883.757 2412.31 892.321 2414.5 901.025 2413.6C909.73 2412.57 917.452 2408.58 922.927 2402.29L1595.99 1617.17C1600.2 1612.28 1602.59 1606.37 1602.87 1600.08Z" fill="#DADADA"/>
<path d="M-4.53297 1732.69C-4.25217 1725.88 -1.58463 1719.32 3.18885 1714.05L671.056 959.774C683.27 946.025 705.312 943.969 720.335 955.02L1546.85 1564.87C1555.41 1571.17 1560.33 1581.06 1559.91 1591.21C1559.63 1598.02 1556.96 1604.57 1552.19 1609.97L884.318 2364.25C878.422 2370.93 869.998 2375.05 860.732 2375.95C851.465 2376.85 842.34 2374.4 835.039 2369.01L8.38353 1759.03C-0.18067 1752.6 -5.09455 1742.84 -4.53297 1732.69ZM1556.68 1590.95C1557.1 1581.7 1552.75 1572.84 1544.88 1567.05L718.369 957.204C704.751 947.181 684.534 949.109 673.583 961.573L5.71599 1715.85C1.36369 1720.74 -1.02305 1726.65 -1.30385 1732.82C-1.72504 1742.07 2.62726 1750.93 10.4895 1756.72L837.005 2366.57C843.603 2371.45 851.887 2373.63 860.451 2372.86C868.875 2372.09 876.596 2368.24 881.932 2362.2L1549.8 1607.92C1554.01 1603.03 1556.4 1597.12 1556.68 1590.95Z" fill="#DADADA"/>
<path d="M-9.86802 1697.48C-9.58723 1690.67 -6.7793 1684.11 -2.00581 1678.85L660.666 955.405C666.563 948.98 674.706 945.125 683.832 944.354C692.958 943.583 701.803 946.153 708.823 951.55L1501.5 1556.52C1509.79 1562.81 1514.14 1572.07 1513.72 1581.83C1513.44 1588.77 1510.63 1595.19 1505.85 1600.46L843.182 2323.9C831.108 2337.14 809.487 2338.81 795.167 2327.76L2.34648 1722.79C-5.93692 1716.5 -10.4296 1707.37 -9.86802 1697.48ZM1510.49 1581.7C1510.91 1572.84 1506.84 1564.48 1499.4 1558.83L706.717 953.735C700.399 948.852 692.396 946.539 684.113 947.31C675.829 947.952 668.388 951.55 663.053 957.333L0.380939 1680.77C-3.97136 1685.53 -6.4985 1691.44 -6.77929 1697.61C-7.20048 1706.47 -3.12898 1714.83 4.31204 1720.48L796.992 2325.57C810.049 2335.6 829.704 2333.93 840.515 2321.98L1503.19 1598.54C1507.68 1593.78 1510.21 1588 1510.49 1581.7Z" fill="#DADADA"/>
<path d="M-15.2031 1662.4C-14.9223 1655.46 -12.1144 1649.16 -7.06011 1643.9L650.417 951.293C656.174 945.125 664.317 941.528 673.162 940.885C682.007 940.371 690.571 942.941 697.31 948.209L1456.29 1548.42C1464.02 1554.59 1468.23 1563.33 1467.67 1572.71C1467.39 1579.65 1464.58 1585.94 1459.52 1591.21L802.046 2283.81C796.29 2289.98 788.147 2293.58 779.302 2294.22C770.457 2294.74 761.892 2292.17 755.153 2286.9L-3.83099 1686.68C-11.5528 1680.52 -15.7647 1671.65 -15.2031 1662.4ZM1464.3 1572.58C1464.72 1564.1 1460.93 1556.13 1453.91 1550.61L695.064 950.394C689.027 945.639 681.305 943.198 673.302 943.712C665.299 944.226 657.999 947.567 652.804 953.092L-4.67337 1645.69C-9.16606 1650.45 -11.6932 1656.23 -11.974 1662.4C-12.3952 1670.88 -8.60447 1678.85 -1.58464 1684.37L757.4 2284.58C763.437 2289.34 771.159 2291.78 779.161 2291.27C787.164 2290.75 794.464 2287.41 799.659 2281.89L1457.14 1589.28C1461.49 1584.53 1464.02 1578.75 1464.3 1572.58Z" fill="#DADADA"/>
<path d="M-20.6785 1627.19C-20.3977 1620.38 -17.4494 1613.83 -12.3951 1608.82L639.747 947.053C645.504 941.142 653.506 937.801 662.07 937.287C670.635 936.902 678.918 939.6 685.376 944.869L1410.53 1540.33C1417.69 1546.24 1421.62 1554.72 1421.2 1563.58C1420.91 1570.39 1417.97 1576.95 1412.91 1581.96L760.769 2243.72C755.013 2249.63 747.01 2252.97 738.446 2253.49C729.882 2253.87 721.599 2251.17 715.14 2245.91L-10.0084 1650.45C-17.1686 1644.54 -21.0997 1636.06 -20.6785 1627.19ZM1418.11 1563.46C1418.53 1555.49 1415.02 1547.91 1408.42 1542.51L683.27 946.925C677.514 942.17 670.073 939.729 662.211 940.114C654.489 940.5 647.329 943.584 642.134 948.852L-10.0084 1610.61C-14.5011 1615.24 -17.1686 1621.02 -17.4494 1627.19C-17.8706 1635.16 -14.3607 1642.74 -7.76204 1648.14L717.387 2243.59C723.143 2248.35 730.584 2250.79 738.446 2250.4C746.168 2250.02 753.328 2246.93 758.523 2241.67L1410.67 1579.9C1415.16 1575.41 1417.83 1569.5 1418.11 1563.46Z" fill="#DADADA"/>
<path d="M-26.0136 1592.11C-25.7328 1585.3 -22.6441 1578.75 -17.5898 1573.74L629.358 942.812C635.114 937.159 642.836 933.946 651.26 933.689C659.684 933.432 667.686 936.131 673.723 941.399L1365.18 1532.1C1371.92 1537.88 1375.43 1545.98 1375.15 1554.33C1374.86 1561.14 1371.78 1567.7 1366.72 1572.71L719.773 2203.63C707.98 2215.2 688.044 2215.71 675.408 2204.92L-16.0454 1614.34C-22.7845 1608.56 -26.4348 1600.46 -26.0136 1592.11ZM1371.92 1554.2C1372.34 1546.62 1368.97 1539.43 1362.93 1534.29L671.617 943.583C666.142 938.829 658.982 936.388 651.4 936.645C643.819 936.902 636.939 939.729 631.745 944.74L-15.203 1575.66C-19.8361 1580.16 -22.5037 1585.94 -22.7844 1592.11C-23.2056 1599.69 -19.8361 1606.89 -13.9395 1612.03L677.514 2202.73C688.886 2212.5 706.717 2211.85 717.387 2201.57L1364.33 1570.65C1368.97 1566.15 1371.64 1560.37 1371.92 1554.2Z" fill="#DADADA"/>
<path d="M-31.3488 1556.9C-31.068 1550.09 -27.9792 1543.54 -22.6442 1538.66L619.109 938.572C630.902 927.521 650.277 927.393 662.351 938.058L1319.97 1524.01C1326.15 1529.53 1329.52 1537.24 1329.1 1545.21C1328.81 1552.02 1325.73 1558.57 1320.39 1563.46L678.637 2163.54C666.844 2174.59 647.469 2174.72 635.395 2164.05L-22.223 1578.1C-28.4004 1572.58 -31.77 1564.87 -31.3488 1556.9ZM1325.73 1545.08C1326.01 1538.01 1323.06 1531.07 1317.44 1526.06L659.964 940.114C649.154 930.477 631.885 930.734 621.215 940.5L-20.5382 1540.58C-25.1713 1544.95 -27.9792 1550.73 -28.26 1556.9C-28.5408 1563.97 -25.5925 1570.91 -19.9766 1575.92L637.641 2161.87C648.452 2171.51 665.721 2171.25 676.251 2161.48L1318 1561.4C1322.78 1557.03 1325.44 1551.25 1325.73 1545.08Z" fill="#DADADA"/>
<path d="M-36.8242 1521.82C-36.5434 1514.88 -33.3143 1508.46 -27.9792 1503.7L608.579 934.332C620.232 923.923 639.045 924.052 650.558 934.717L1274.34 1515.91C1280.1 1521.31 1283.19 1528.63 1282.76 1536.09C1282.48 1543.02 1279.25 1549.45 1273.92 1554.2L637.361 2123.45C625.708 2133.86 606.895 2133.73 595.382 2123.06L-28.4004 1541.87C-34.0163 1536.6 -37.105 1529.28 -36.8242 1521.82ZM1279.68 1535.96C1279.96 1529.28 1277.29 1522.72 1272.09 1517.97L648.312 936.773C638.063 927.264 621.355 927.136 610.826 936.388L-25.7328 1505.76C-30.5063 1510.13 -33.3143 1515.78 -33.5951 1521.95C-33.8759 1528.63 -31.2083 1535.19 -26.0136 1539.94L597.769 2121.14C608.018 2130.64 624.725 2130.77 635.255 2121.52L1271.81 1552.28C1276.59 1547.78 1279.39 1542 1279.68 1535.96Z" fill="#DADADA"/>
<path d="M-42.1593 1486.61C-41.8785 1479.68 -38.6494 1473.25 -33.0335 1468.5L598.19 930.091C603.806 925.337 611.106 922.767 618.828 923.024C626.55 923.281 633.71 926.236 638.905 931.376L1228.99 1507.82C1234.33 1512.96 1237.14 1519.77 1236.71 1526.96C1236.43 1533.9 1233.2 1540.33 1227.59 1545.08L596.224 2083.36C584.571 2093.25 566.32 2092.74 555.509 2082.07L-34.4375 1505.76C-39.7725 1500.49 -42.5805 1493.81 -42.1593 1486.61ZM1233.48 1526.71C1233.77 1520.41 1231.38 1514.37 1226.61 1509.74L636.518 933.304C631.885 928.678 625.567 926.108 618.688 925.851C611.808 925.594 605.35 927.907 600.296 932.147L-30.9276 1470.68C-35.8414 1474.92 -38.7898 1480.57 -39.0706 1486.74C-39.3513 1493.04 -36.9646 1499.08 -32.1911 1503.7L557.896 2080.14C567.583 2089.52 583.729 2090.04 594.118 2081.3L1225.48 1542.77C1230.4 1538.66 1233.2 1532.87 1233.48 1526.71Z" fill="#DADADA"/>
<path d="M-47.6348 1451.53C-47.354 1444.6 -43.9845 1438.17 -38.2282 1433.54L587.801 925.851C599.313 916.471 617.003 917.499 627.252 928.035L1183.5 1499.72C1188.42 1504.73 1190.8 1511.16 1190.52 1517.84C1190.24 1524.78 1186.87 1531.2 1181.12 1535.83L555.088 2043.39C543.576 2052.77 525.886 2051.75 515.637 2041.21L-40.615 1469.52C-45.5288 1464.64 -47.9156 1458.22 -47.6348 1451.53ZM1187.43 1517.58C1187.72 1511.67 1185.47 1506.02 1181.26 1501.52L624.865 929.963C615.739 920.583 600.155 919.812 589.906 928.035L-36.1223 1435.73C-41.1765 1439.84 -44.1249 1445.5 -44.4057 1451.66C-44.6865 1457.57 -42.4401 1463.23 -38.2282 1467.73L518.023 2039.41C527.149 2048.79 542.733 2049.56 552.982 2041.34L1179.01 1533.64C1184.21 1529.4 1187.15 1523.75 1187.43 1517.58Z" fill="#DADADA"/>
<path d="M-53.1103 1416.33C-52.8295 1409.39 -49.3196 1402.83 -43.4229 1398.46L577.411 921.61C583.027 917.37 590.047 915.314 597.207 915.828C604.367 916.342 610.966 919.554 615.599 924.566L1138.16 1491.37C1142.51 1496.12 1144.75 1502.16 1144.47 1508.46C1144.19 1515.4 1140.68 1521.95 1134.79 1526.32L513.952 2003.3C502.439 2012.04 485.311 2010.76 475.764 2000.35L-46.7925 1433.42C-51.1448 1428.66 -53.3911 1422.62 -53.1103 1416.33ZM1141.24 1508.46C1141.52 1502.93 1139.56 1497.66 1135.63 1493.42L613.212 926.493C609.141 921.996 603.244 919.297 596.926 918.783C590.608 918.269 584.291 920.068 579.377 923.795L-41.4574 1400.65C-46.5117 1404.63 -49.7408 1410.29 -50.0216 1416.45C-50.3024 1421.98 -48.3368 1427.25 -44.4057 1431.49L478.151 1998.29C486.715 2007.54 501.878 2008.7 511.986 2000.99L1132.82 1524.14C1137.87 1520.28 1140.96 1514.5 1141.24 1508.46Z" fill="#DADADA"/>
<path d="M-58.5857 1381.25C-58.3049 1374.31 -54.6546 1367.75 -48.6175 1363.39L567.022 917.37C572.497 913.387 579.377 911.588 586.397 912.359C593.417 913.13 599.594 916.214 604.087 921.353L1092.81 1483.4C1096.74 1487.9 1098.7 1493.55 1098.56 1499.34C1098.28 1506.27 1094.63 1512.83 1088.6 1517.2L472.816 1963.21C461.444 1971.44 444.877 1969.77 435.751 1959.36L-52.9698 1397.18C-56.9009 1392.68 -58.8665 1387.03 -58.5857 1381.25ZM1095.19 1499.21C1095.47 1494.07 1093.65 1489.18 1090.14 1485.2L601.559 923.152C597.769 918.784 592.153 915.957 586.116 915.314C579.938 914.672 573.901 916.214 569.128 919.811L-46.652 1365.7C-51.8466 1369.55 -55.0757 1375.21 -55.3565 1381.37C-55.6373 1386.39 -53.8122 1391.4 -50.3023 1395.38L438.419 1957.43C446.421 1966.55 461.022 1968.09 470.991 1960.9L1086.63 1514.88C1091.68 1511.03 1094.91 1505.37 1095.19 1499.21Z" fill="#DADADA"/>
<path d="M-64.0612 1346.04C-63.7804 1338.97 -59.9896 1332.55 -53.8122 1328.31L556.632 913.13C568.005 905.42 584.01 907.604 592.434 917.884L1047.32 1475.18C1050.83 1479.42 1052.65 1484.82 1052.37 1490.08C1052.09 1497.15 1048.3 1503.58 1042.12 1507.82L431.679 1923.12C420.307 1930.83 404.302 1928.65 395.878 1918.37L-59.0069 1361.07C-62.5168 1356.7 -64.3419 1351.43 -64.0612 1346.04ZM1049.14 1490.08C1049.42 1485.46 1047.74 1480.7 1044.79 1476.98L589.906 919.683C582.465 910.688 568.426 908.761 558.598 915.443L-51.8466 1330.62C-57.3221 1334.34 -60.5512 1340 -60.832 1346.17C-61.1128 1350.79 -59.4281 1355.55 -56.4797 1359.27L398.405 1916.57C405.846 1925.56 419.886 1927.49 429.714 1920.81L1040.16 1505.63C1045.63 1501.91 1048.86 1496.25 1049.14 1490.08Z" fill="#DADADA"/>
<path d="M-69.677 1310.96C-69.3962 1303.89 -65.4651 1297.47 -59.0069 1293.35L546.243 909.018C557.475 901.95 572.919 904.392 580.781 914.671L1001.97 1467.21C1005.06 1471.32 1006.6 1476.08 1006.32 1481.09C1006.04 1488.16 1002.11 1494.58 995.653 1498.69L390.543 1883.03C379.312 1890.1 363.868 1887.66 356.006 1877.38L-65.1843 1324.84C-68.273 1320.72 -69.8174 1315.84 -69.677 1310.96ZM1003.09 1480.96C1003.23 1476.59 1001.97 1472.48 999.303 1468.88L578.113 916.342C571.234 907.347 557.756 905.163 548.068 911.459L-57.1817 1295.67C-62.7976 1299.26 -66.1671 1304.79 -66.4479 1311.09C-66.5883 1315.46 -65.3247 1319.57 -62.6572 1323.17L358.533 1875.7C365.412 1884.7 378.89 1886.88 388.718 1880.59L993.968 1496.25C999.444 1492.78 1002.81 1487.13 1003.09 1480.96Z" fill="#DADADA"/>
<path d="M-75.1524 1275.75C-74.8716 1268.68 -70.6597 1262.13 -64.2015 1258.27L535.854 904.777C546.945 898.224 561.968 901.179 569.128 911.331L956.482 1459.12C959.15 1462.97 960.554 1467.47 960.273 1471.97C959.992 1479.03 955.78 1485.59 949.322 1489.44L349.407 1842.94C338.316 1849.49 323.293 1846.54 316.133 1836.38L-71.3617 1288.6C-74.0292 1284.74 -75.4332 1280.25 -75.1524 1275.75ZM957.184 1471.84C957.325 1467.85 956.202 1464 953.815 1460.66L566.46 912.873C560.143 904.006 547.226 901.436 537.539 907.219L-62.3763 1260.72C-67.9922 1264.06 -71.6425 1269.71 -71.9233 1275.88C-72.0637 1279.86 -70.9405 1283.72 -68.5538 1287.06L318.801 1834.84C325.118 1843.71 338.035 1846.28 347.722 1840.5L947.637 1487C953.253 1483.66 956.903 1478.01 957.184 1471.84Z" fill="#DADADA"/>
<path d="M-80.7683 1240.54C-80.4875 1233.35 -76.1352 1226.79 -69.3962 1223.07L525.464 900.537C536.556 894.497 550.876 897.838 557.475 907.99L911.134 1451.02C913.521 1454.62 914.644 1458.73 914.363 1462.84C914.082 1470.04 909.73 1476.59 902.991 1480.32L308.13 1802.85C297.039 1808.89 282.719 1805.55 276.12 1795.39L-77.3988 1252.36C-79.7856 1248.77 -80.9087 1244.78 -80.7683 1240.54ZM911.134 1462.59C911.275 1458.99 910.292 1455.52 908.326 1452.43L554.807 909.403C549.051 900.665 536.696 897.838 527.149 902.978L-67.7114 1225.64C-73.6081 1228.85 -77.2584 1234.5 -77.5392 1240.67C-77.6796 1244.27 -76.6968 1247.74 -74.7313 1250.82L278.928 1793.85C284.684 1802.59 297.039 1805.42 306.586 1800.28L901.306 1477.62C907.203 1474.54 910.853 1468.88 911.134 1462.59Z" fill="#DADADA"/>
<path d="M-86.3843 1205.46C-86.1035 1198.27 -81.4704 1191.58 -74.4505 1188.11L515.075 896.297C526.026 890.9 539.925 894.626 545.822 904.649L865.646 1442.8C867.611 1446.14 868.594 1449.86 868.313 1453.59C868.032 1460.79 863.399 1467.47 856.379 1470.94L266.994 1762.76C256.043 1768.15 242.144 1764.43 236.247 1754.4L-83.5763 1216.26C-85.5419 1212.91 -86.5247 1209.19 -86.3843 1205.46ZM865.224 1453.46C865.365 1450.25 864.522 1447.04 862.838 1444.21L543.014 906.062C537.819 897.453 526.026 894.241 516.479 898.867L-72.9062 1190.68C-78.9432 1193.64 -82.8743 1199.29 -83.1551 1205.59C-83.2955 1208.8 -82.4532 1212.02 -80.7684 1214.84L239.055 1752.99C244.25 1761.6 256.043 1764.81 265.59 1760.19L855.116 1468.37C861.153 1465.41 864.944 1459.76 865.224 1453.46Z" fill="#DADADA"/>
<path d="M-92.0001 1170.25C-91.5789 1162.93 -86.9458 1156.25 -79.6452 1153.03L504.686 892.056C515.637 887.173 528.834 891.285 534.169 901.308L820.157 1434.7C821.842 1437.79 822.544 1441.13 822.403 1444.47C821.982 1451.92 817.349 1458.47 810.048 1461.69L225.858 1722.66C214.907 1727.55 201.71 1723.44 196.375 1713.41L-89.7538 1180.02C-91.4385 1176.94 -92.1405 1173.59 -92.0001 1170.25ZM819.315 1444.34C819.455 1441.51 818.753 1438.56 817.349 1435.99L531.361 902.593C526.728 894.112 515.496 890.514 506.09 894.626L-78.2412 1155.6C-84.4187 1158.43 -88.4902 1164.09 -88.771 1170.38C-88.9114 1173.21 -88.2094 1176.16 -86.8054 1178.73L199.183 1712.13C203.816 1720.61 215.047 1724.21 224.454 1720.09L808.785 1459.12C814.962 1456.29 819.034 1450.64 819.315 1444.34Z" fill="#DADADA"/>
</g>
</g>
<g opacity="0.27" clip-path="url(#clip1_1_3005)">
<path d="M2316.1 -331.587C2318.18 -325.282 2318.17 -318.324 2316.14 -311.676L1995.17 754.61C1992.4 763.944 1985.89 771.877 1976.91 777.13C1967.88 782.265 1957.58 784.004 1947.75 781.953L822.873 545.716C810.165 543.01 800.393 534.517 796.585 522.845C794.505 516.54 794.516 509.581 796.544 502.934L1117.51 -563.352C1120.28 -572.686 1126.8 -580.62 1135.78 -585.872C1144.8 -591.008 1155.11 -592.746 1164.94 -590.695L2289.69 -354.41C2302.39 -351.704 2312.29 -343.26 2316.1 -331.587ZM799.573 521.854C803.029 532.589 812.107 540.406 823.699 542.864L1948.57 779.101C1957.63 781.041 1967.12 779.475 1975.43 774.745C1983.73 770.016 1989.6 762.723 1992.21 754.119L2313.18 -312.167C2314.96 -318.318 2314.93 -324.595 2313.16 -330.479C2309.7 -341.215 2300.62 -349.032 2289.03 -351.49L1164.16 -587.726C1155.1 -589.666 1145.61 -588.1 1137.3 -583.371C1129 -578.641 1123.13 -571.348 1120.52 -562.744L799.549 503.542C797.6 509.624 797.669 516.018 799.573 521.854Z" fill="#DADADA"/>
<path d="M2332.87 -301.39C2334.95 -295.085 2334.94 -288.126 2332.74 -281.548L2005.93 754.842C2003.07 763.941 1996.64 771.71 1987.83 776.632C1979.01 781.554 1968.92 783.079 1959.34 780.932L866.991 537.538C854.839 534.756 845.456 526.519 841.824 515.314C839.743 509.01 839.755 502.051 841.955 495.473L1168.77 -540.917C1174.69 -559.73 1195.6 -571.343 1215.35 -567.007L2307.75 -323.496C2319.86 -320.831 2329.24 -312.594 2332.87 -301.39ZM844.811 514.324C848.091 524.591 856.781 532.152 867.945 534.638L1960.34 778.149C1969.1 780.068 1978.38 778.715 1986.47 774.199C1994.56 769.683 2000.53 762.624 2003.09 754.303L2329.91 -282.087C2331.86 -288.169 2331.83 -294.446 2329.93 -300.282C2326.65 -310.549 2317.96 -318.11 2306.8 -320.596L1214.44 -563.99C1196.28 -567.987 1177.08 -557.283 1171.69 -540.144L844.875 496.246C842.883 502.211 842.907 508.487 844.811 514.324Z" fill="#DADADA"/>
<path d="M2349.82 -271.123C2351.9 -264.818 2351.84 -257.977 2349.68 -251.281L2017.02 755.212C2011.01 773.391 1990.4 784.625 1971.29 780.048L911.281 529.429C899.601 526.736 890.562 518.637 887.106 507.902C885.026 501.597 885.081 494.756 887.237 488.06L1219.9 -518.433C1222.84 -527.299 1229.23 -534.785 1237.88 -539.376C1246.48 -544.085 1256.36 -545.396 1265.76 -543.318L2325.77 -292.698C2337.32 -289.958 2346.36 -281.858 2349.82 -271.123ZM890.094 506.911C893.197 516.709 901.544 524.133 912.107 526.577L1972.11 777.197C1989.76 781.387 2008.54 771.109 2014.1 754.439L2346.76 -252.054C2348.71 -258.137 2348.86 -264.344 2346.96 -270.18C2343.85 -279.979 2335.51 -287.403 2324.94 -289.846L1264.94 -540.466C1256.44 -542.482 1247.41 -541.225 1239.4 -536.874C1231.53 -532.572 1225.6 -525.796 1222.95 -517.709L890.286 488.785C888.294 494.75 888.19 501.075 890.094 506.911Z" fill="#DADADA"/>
<path d="M2366.71 -240.974C2368.79 -234.669 2368.61 -227.779 2366.41 -221.201L2028.03 755.348C2025.13 763.931 2018.78 771.135 2010.22 775.561C2001.7 780.104 1992.03 781.202 1983.01 778.979L955.483 521.085C944.359 518.317 935.708 510.473 932.429 500.206C930.348 493.901 930.532 487.012 932.732 480.434L1271.11 -496.115C1277.3 -513.825 1297.41 -524.467 1316.13 -519.746L2343.66 -261.853C2354.83 -258.968 2363.43 -251.241 2366.71 -240.974ZM935.333 499.381C938.432 508.78 946.218 515.879 956.397 518.468L1983.92 776.361C1992.17 778.473 2000.94 777.313 2008.78 773.293C2016.57 769.156 2022.29 762.593 2025.03 754.74L2363.49 -221.974C2365.61 -227.987 2365.76 -234.195 2363.85 -240.031C2360.76 -249.43 2352.97 -256.53 2342.79 -259.118L1315.26 -517.012C1298.17 -521.277 1279.77 -511.544 1274.16 -495.391L935.781 481.158C933.577 487.337 933.557 493.496 935.333 499.381Z" fill="#DADADA"/>
<path d="M2383.66 -210.707C2385.74 -204.402 2385.55 -197.513 2383.18 -191.003L2038.96 755.649C2035.97 763.998 2029.66 770.919 2021.31 775.132C2012.96 779.344 2003.59 780.463 1994.82 778.144L999.645 513.024C989.077 510.181 980.859 502.709 977.712 492.793C975.631 486.489 975.814 479.599 978.187 473.09L1322.41 -473.563C1325.4 -481.912 1331.71 -488.833 1340.06 -493.045C1348.41 -497.258 1357.78 -498.376 1366.54 -496.058L2361.72 -230.938C2372.29 -228.095 2380.51 -220.623 2383.66 -210.707ZM980.699 491.803C983.622 500.733 991.064 507.695 1000.64 510.241L1995.82 775.361C2003.77 777.452 2012.33 776.505 2019.95 772.699C2027.54 768.775 2033.21 762.495 2036.04 754.876L2380.26 -191.776C2382.43 -197.673 2382.53 -203.997 2380.67 -209.716C2377.75 -218.647 2370.3 -225.608 2360.73 -228.155L1365.55 -493.275C1357.6 -495.366 1349.04 -494.419 1341.42 -490.613C1333.83 -486.689 1328.16 -480.409 1325.33 -472.79L981.107 473.863C978.943 479.759 978.795 485.966 980.699 491.803Z" fill="#DADADA"/>
<path d="M2400.56 -180.558C2402.64 -174.253 2402.45 -167.363 2399.91 -160.923L2049.84 755.834C2043.42 772.558 2024.04 781.995 2006.55 777.075L1043.85 504.681C1033.88 501.879 1026 494.545 1022.91 485.146C1020.83 478.841 1021.01 471.952 1023.51 465.394L1373.58 -451.362C1376.66 -459.477 1382.93 -466.115 1391.07 -470.114C1399.2 -474.113 1408.36 -475.018 1416.87 -472.603L2379.74 -200.14C2389.76 -197.221 2397.59 -190.004 2400.56 -180.558ZM1025.94 484.273C1028.73 492.851 1035.74 499.441 1044.89 502.015L2007.59 774.409C2023.45 778.874 2041.21 770.18 2046.92 755.061L2396.99 -161.696C2399.28 -167.64 2399.43 -173.848 2397.57 -179.567C2394.78 -188.146 2387.77 -194.735 2378.62 -197.309L1415.91 -469.703C1408.22 -471.891 1399.92 -471.04 1392.38 -467.399C1384.97 -463.806 1379.25 -457.643 1376.46 -450.307L1026.39 466.45C1024.23 472.346 1024.08 478.554 1025.94 484.273Z" fill="#DADADA"/>
<path d="M2417.5 -150.291C2419.58 -143.986 2419.27 -137.048 2416.72 -130.608L2060.81 756.252C2057.64 764.132 2051.54 770.44 2043.49 774.274C2035.43 778.108 2026.49 778.799 2018.23 776.288L1088.05 496.737C1078.34 493.839 1071.2 486.898 1068.23 477.851C1066.11 471.429 1066.46 464.608 1069.01 458.168L1424.92 -428.692C1431.39 -444.9 1450.52 -453.841 1467.37 -448.68L2397.68 -169.177C2407.39 -166.279 2414.62 -159.504 2417.5 -150.291ZM1071.22 476.86C1073.88 485.087 1080.46 491.305 1089.18 493.906L2019.41 773.574C2026.84 775.858 2034.93 775.221 2042.22 771.676C2049.55 768.248 2055.1 762.416 2057.98 755.314L2413.89 -131.546C2416.22 -137.374 2416.5 -143.629 2414.64 -149.348C2411.98 -157.576 2405.4 -163.793 2396.68 -166.394L1466.45 -446.062C1451.11 -450.72 1433.77 -442.454 1428.01 -427.85L1072.1 459.01C1069.64 464.885 1069.32 471.024 1071.22 476.86Z" fill="#DADADA"/>
<path d="M2434.4 -120.142C2436.52 -113.72 2436.12 -107.016 2433.32 -100.48L2071.57 756.484C2068.43 764.082 2062.25 770.156 2054.4 773.776C2046.52 777.279 2037.83 777.874 2029.88 775.384L1132.04 488.607C1122.89 485.633 1116.05 479.113 1113.34 470.369C1111.22 463.947 1111.62 457.243 1114.42 450.706L1476.17 -406.257C1479.31 -413.855 1485.5 -419.929 1493.34 -423.549C1501.23 -427.052 1509.91 -427.647 1517.87 -425.157L2415.7 -138.38C2424.85 -135.406 2431.74 -128.769 2434.4 -120.142ZM1116.46 469.33C1118.98 477.206 1125.17 483.168 1133.47 485.797L2031.17 772.622C2038.31 774.885 2046.19 774.461 2053.31 771.247C2060.42 768.033 2065.93 762.482 2068.77 755.663L2430.53 -101.301C2432.99 -107.176 2433.31 -113.315 2431.45 -119.034C2428.93 -126.91 2422.74 -132.872 2414.44 -135.501L1516.61 -422.278C1509.48 -424.541 1501.6 -424.117 1494.48 -420.903C1487.36 -417.689 1481.85 -412.138 1479.01 -405.319L1117.26 451.645C1114.92 457.472 1114.6 463.611 1116.46 469.33Z" fill="#DADADA"/>
<path d="M2451.47 -89.9232C2453.55 -83.6183 2453.11 -76.6326 2450.22 -70.33L2082.75 756.689C2079.53 764.053 2073.38 769.844 2065.75 773.251C2058.07 776.54 2049.6 776.922 2041.9 774.335L1176.54 480.284C1167.99 477.352 1161.5 470.97 1158.84 462.742C1156.76 456.438 1157.2 449.452 1160.09 443.149L1527.56 -383.87C1530.78 -391.233 1536.93 -397.025 1544.56 -400.432C1552.23 -403.721 1560.71 -404.103 1568.41 -401.516L2433.76 -107.465C2442.32 -104.533 2448.81 -98.1505 2451.47 -89.9232ZM1161.7 461.8C1164.05 469.207 1169.85 474.914 1177.72 477.57L2043.12 771.738C2049.99 774.098 2057.62 773.771 2064.65 770.722C2071.56 767.721 2077.03 762.453 2079.96 755.868L2447.43 -71.1511C2449.94 -76.9096 2450.38 -83.0962 2448.52 -88.8154C2446.18 -96.2227 2440.37 -101.93 2432.51 -104.586L1567.15 -398.637C1560.27 -400.996 1552.65 -400.669 1545.62 -397.62C1538.71 -394.619 1533.24 -389.352 1530.31 -382.767L1162.84 444.253C1160.29 449.894 1159.88 456.198 1161.7 461.8Z" fill="#DADADA"/>
<path d="M2468.37 -59.7738C2470.45 -53.469 2469.88 -46.435 2466.99 -40.1324L2093.67 756.991C2090.37 764.12 2084.43 769.697 2076.84 772.822C2069.25 775.946 2061.03 776.232 2053.71 773.5L1220.71 472.223C1212.58 469.264 1206.6 463.088 1203.99 455.378C1201.91 449.073 1202.48 442.039 1205.37 435.736L1578.69 -361.387C1585.47 -375.976 1603.47 -383.284 1618.69 -377.779L2451.65 -76.6195C2459.78 -73.6601 2465.89 -67.5325 2468.37 -59.7738ZM1206.98 454.387C1209.2 461.443 1214.74 466.847 1222.01 469.461L2054.89 770.786C2061.51 773.242 2068.87 773.011 2075.7 770.176C2082.52 767.34 2087.82 762.403 2090.84 756.052L2464.16 -41.0707C2466.84 -46.7602 2467.28 -52.9468 2465.42 -58.666C2463.21 -65.7218 2457.67 -71.1258 2450.53 -73.7884L1617.52 -375.065C1603.8 -380.066 1587.77 -373.363 1581.57 -360.331L1208.25 436.792C1205.57 442.481 1205.12 448.668 1206.98 454.387Z" fill="#DADADA"/>
<path d="M2485.31 -29.5073C2487.39 -23.2025 2486.82 -16.1685 2483.64 -9.88675L2104.47 757.34C2097.51 771.46 2079.89 778.225 2065.23 772.644L1264.7 464.093C1257.17 461.176 1251.45 455.303 1249.1 447.896C1247.02 441.591 1247.59 434.557 1250.78 428.275L1629.94 -338.952C1636.9 -353.072 1654.52 -359.836 1669.19 -354.256L2469.72 -45.7049C2477.24 -42.7871 2482.96 -36.9146 2485.31 -29.5073ZM1252.22 446.857C1254.39 453.396 1259.46 458.71 1266.3 461.352L2066.7 769.951C2079.86 775.028 2095.51 768.869 2101.89 756.305L2481.05 -10.9214C2483.78 -16.4937 2484.35 -22.7285 2482.49 -28.4476C2480.33 -34.9868 2475.26 -40.3009 2468.42 -42.9427L1667.89 -351.494C1654.73 -356.57 1639.07 -350.411 1632.82 -337.896L1253.66 429.331C1250.81 434.951 1250.36 441.138 1252.22 446.857Z" fill="#DADADA"/>
<path d="M2502.34 0.593875C2504.46 7.01588 2503.72 13.9808 2500.49 20.1455L2115.53 757.593C2108.47 771.08 2091.28 777.417 2077.13 771.644L1309.07 455.819C1301.97 452.874 1296.64 447.256 1294.47 440.318C1292.35 433.896 1293.08 426.931 1296.32 420.766L1681.32 -316.565C1688.38 -330.051 1705.57 -336.388 1719.73 -330.615L2487.78 -14.7902C2494.71 -11.9141 2500.04 -6.2967 2502.34 0.593875ZM1297.33 439.375C1299.37 445.563 1304.05 450.622 1310.41 453.174L2078.47 768.999C2091.07 774.151 2106.35 768.536 2112.77 756.49L2497.74 19.0419C2500.59 13.4213 2501.21 7.30377 2499.35 1.58461C2497.31 -4.6031 2492.63 -9.66216 2486.27 -12.2142L1718.21 -328.039C1705.61 -333.191 1690.33 -327.577 1683.91 -315.53L1298.9 421.801C1296.09 427.538 1295.51 433.773 1297.33 439.375Z" fill="#DADADA"/>
<path d="M2519.28 30.8603C2521.4 37.2823 2520.67 44.2473 2517.18 50.5082L2126.45 757.894C2122.96 764.155 2117.19 769.003 2110.06 771.418C2102.94 773.833 2095.39 773.595 2088.89 770.691L1353.19 447.641C1346.56 444.785 1341.67 439.54 1339.58 432.836C1337.46 426.414 1338.2 419.449 1341.68 413.188L1732.58 -294.129C1739.81 -307.147 1756.62 -312.94 1770.14 -306.927L2505.67 16.0554C2512.34 19.0278 2517.2 24.1559 2519.28 30.8603ZM1342.61 431.962C1344.52 437.798 1348.76 442.485 1354.7 445.065L2090.41 768.116C2096.22 770.743 2102.86 770.918 2109.22 768.792C2115.58 766.667 2120.67 762.342 2123.83 756.743L2514.51 49.2393C2517.53 43.6878 2518.28 37.522 2516.42 31.8029C2514.52 25.9666 2510.27 21.2797 2504.33 18.7003L1768.62 -304.351C1756.57 -309.578 1741.68 -304.508 1735.21 -292.978L1344.4 414.574C1341.33 420.008 1340.75 426.243 1342.61 431.962Z" fill="#DADADA"/>
<path d="M2536.31 60.9616C2538.43 67.3836 2537.56 74.3967 2533.9 80.5887L2137.38 758.196C2130.1 770.697 2113.62 775.829 2100.66 769.739L1397.43 439.414C1391.24 436.532 1386.86 431.493 1384.82 425.306C1382.69 418.884 1383.56 411.87 1387.22 405.678L1783.79 -271.811C1791.07 -284.312 1807.55 -289.444 1820.51 -283.355L2523.74 46.9701C2529.89 49.7356 2534.27 54.7739 2536.31 60.9616ZM1387.72 424.48C1389.5 429.965 1393.48 434.349 1398.87 437.004L2102.18 767.163C2113.72 772.584 2128.19 767.94 2134.71 756.927L2531.23 79.3198C2534.43 73.8372 2535.18 67.6715 2533.32 61.9523C2531.55 56.4674 2527.56 52.0839 2522.18 49.4289L1818.95 -280.896C1807.41 -286.317 1792.94 -281.673 1786.42 -270.66L1389.89 406.947C1386.61 412.595 1385.86 418.761 1387.72 424.48Z" fill="#DADADA"/>
<path d="M2553.38 91.1801C2555.5 97.6021 2554.55 104.78 2550.67 110.786L2148.3 758.497C2144.64 764.289 2138.95 768.572 2132.24 770.56C2125.54 772.548 2118.42 771.883 2112.48 768.904L1441.64 431.47C1436.04 428.629 1431.92 423.894 1430.02 418.058C1427.89 411.636 1428.84 404.458 1432.72 398.452L1835.05 -249.376C1842.54 -261.291 1858.6 -265.996 1870.87 -259.783L2541.76 77.7677C2547.35 80.6088 2551.47 85.3438 2553.38 91.1801ZM1432.96 416.95C1434.6 422.084 1438.2 426.212 1443.24 428.729L2113.99 766.328C2119.25 769.031 2125.55 769.468 2131.48 767.769C2137.42 766.07 2142.56 762.263 2145.76 757.18L2548.13 109.469C2551.37 104.104 2552.38 97.8417 2550.52 92.1226C2548.88 86.9892 2545.28 82.8607 2540.24 80.3437L1869.4 -257.09C1858.42 -262.586 1844.2 -258.438 1837.63 -247.942L1435.26 399.769C1431.98 405.017 1431.15 411.348 1432.96 416.95Z" fill="#DADADA"/>
<path d="M2570.4 121.281C2572.53 127.703 2571.45 134.93 2567.45 140.984L2159.23 758.798C2155.61 764.308 2149.95 768.309 2143.29 770.014C2136.62 771.72 2129.93 771.028 2124.07 767.883L1485.71 423.175C1480.59 420.424 1476.86 415.944 1475 410.624C1472.88 404.202 1473.96 396.976 1477.96 390.922L1886.3 -226.941C1893.85 -238.339 1909.52 -242.5 1921.41 -236.143L2559.82 108.682C2564.95 111.434 2568.68 115.914 2570.4 121.281ZM1478.12 409.586C1479.62 414.368 1482.96 418.193 1487.53 420.62L2125.76 765.376C2130.72 768.059 2136.81 768.709 2142.53 767.223C2148.38 765.69 2153.36 762.213 2156.47 757.295L2564.86 139.55C2568.27 134.253 2569.28 127.991 2567.42 122.272C2565.95 117.607 2562.57 113.665 2558 111.238L1919.64 -233.47C1909.22 -239.042 1895.38 -235.438 1888.76 -225.458L1480.55 392.356C1477.26 397.604 1476.26 403.866 1478.12 409.586Z" fill="#DADADA"/>
<path d="M2587.48 151.5C2589.64 158.039 2588.39 165.196 2584.22 171.182L2170.16 759.1C2162.43 770.03 2147.09 773.529 2135.89 767.048L1530 415.066C1525.35 412.405 1521.83 408.111 1520.28 403.212C1518.11 396.672 1519.37 389.515 1523.54 383.53L1937.56 -204.506C1945.28 -215.436 1960.62 -218.935 1971.83 -212.454L2577.71 139.528C2582.41 142.307 2585.88 146.483 2587.48 151.5ZM1523.23 402.104C1524.56 406.417 1527.73 410.173 1531.69 412.559L2137.57 764.541C2147.44 770.188 2160.9 767.129 2167.57 757.665L2581.63 169.747C2585.34 164.472 2586.35 158.21 2584.49 152.49C2583.16 148.177 2579.99 144.421 2576.02 142.035L1970.14 -209.947C1960.27 -215.594 1946.81 -212.534 1940.14 -203.071L1526.08 384.847C1522.37 390.122 1521.37 396.385 1523.23 402.104Z" fill="#DADADA"/>
<path d="M2604.63 181.553C2606.8 188.092 2605.42 195.298 2600.94 201.262L2181.04 759.284C2173.22 769.58 2158.31 772.653 2147.61 765.979L1574.08 406.771C1569.85 404.082 1566.81 400.277 1565.35 395.612C1563.18 389.073 1564.56 381.868 1569.04 375.903L1988.81 -182.07C1996.63 -192.367 2011.54 -195.439 2022.24 -188.765L2595.77 170.443C2600 173.132 2603.08 177.053 2604.63 181.553ZM1568.34 394.622C1569.71 398.653 1572.27 401.968 1575.94 404.333L2149.47 763.541C2158.83 769.38 2171.87 766.748 2178.54 757.684L2598.49 199.779C2602.37 194.573 2603.55 188.38 2601.64 182.543C2600.27 178.512 2597.71 175.197 2594.04 172.833L2020.51 -186.375C2011.15 -192.215 1998.11 -189.583 1991.32 -180.471L1571.41 377.551C1567.61 382.592 1566.48 388.903 1568.34 394.622Z" fill="#DADADA"/>
<path d="M2621.7 211.771C2623.87 218.31 2622.28 225.729 2617.71 231.459L2191.96 759.585C2184.1 769.365 2169.39 771.824 2159.38 765.027L1618.32 398.544C1614.57 395.945 1611.75 392.327 1610.46 388.131C1608.29 381.591 1609.88 374.172 1614.45 368.442L2040.07 -159.635C2047.93 -169.415 2062.64 -171.874 2072.65 -165.077L2613.84 201.357C2617.59 203.956 2620.41 207.575 2621.7 211.771ZM1613.32 387.188C1614.56 390.868 1616.91 393.997 1620.23 396.223L2161.29 762.706C2170.09 768.621 2182.74 766.532 2189.59 757.937L2615.21 229.86C2619.19 224.888 2620.57 218.481 2618.71 212.762C2617.47 209.082 2615.13 205.953 2611.81 203.726L2070.75 -162.756C2061.95 -168.671 2049.29 -166.582 2042.44 -157.988L1616.82 370.09C1612.85 375.062 1611.46 381.469 1613.32 387.188Z" fill="#DADADA"/>
<path d="M2638.9 241.941C2641.11 248.598 2639.39 256.065 2634.53 261.774L2202.89 759.886C2194.85 769.197 2180.65 771.065 2171.15 764.074L1662.44 390.366C1659.03 387.905 1656.6 384.542 1655.44 380.697C1653.23 374.041 1654.95 366.573 1659.81 360.864L2091.45 -137.248C2099.49 -146.559 2113.69 -148.426 2123.19 -141.436L2631.77 232.32C2635.18 234.781 2637.57 238.027 2638.9 241.941ZM1658.47 379.823C1659.58 383.152 1661.67 385.977 1664.52 388.114L2173.1 761.871C2181.34 767.861 2193.58 766.2 2200.52 758.239L2632.11 260.009C2636.38 255.058 2637.77 248.651 2635.91 242.932C2634.81 239.604 2632.72 236.778 2629.87 234.641L2121.16 -139.067C2112.92 -145.058 2100.68 -143.396 2093.74 -135.435L1662.28 362.746C1657.96 367.581 1656.57 373.987 1658.47 379.823Z" fill="#DADADA"/>
<path d="M2656.06 271.994C2658.27 278.651 2656.34 286.332 2651.13 291.903L2213.82 760.188C2205.69 768.865 2191.74 770.236 2182.92 763.122L1706.73 382.257C1703.79 379.886 1701.62 376.826 1700.6 373.332C1698.38 366.676 1700.32 358.995 1705.53 353.424L2142.71 -114.813C2150.84 -123.49 2164.79 -124.861 2173.6 -117.747L2649.79 263.118C2652.73 265.489 2654.9 268.549 2656.06 271.994ZM1703.46 372.39C1704.43 375.366 1706.3 378.006 1708.81 380.005L2185 760.87C2192.69 766.937 2204.54 765.819 2211.66 758.327L2648.84 290.09C2653.33 285.324 2654.97 278.821 2653.07 272.985C2652.09 270.008 2650.22 267.369 2647.72 265.37L2171.53 -115.495C2163.84 -121.562 2151.99 -120.444 2144.87 -112.952L1707.56 355.333C1703.07 360.099 1701.55 366.553 1703.46 372.39Z" fill="#DADADA"/>
<path d="M2673.25 302.164C2675.38 308.986 2673.45 316.667 2667.9 322.1L2224.74 760.489C2216.43 768.697 2202.99 769.476 2194.69 762.17L1750.98 374.031C1748.38 371.797 1746.6 368.992 1745.58 365.898C1743.41 358.96 1745.38 351.396 1750.94 345.963L2193.96 -92.3778C2202.27 -100.586 2215.71 -101.365 2224.02 -94.0587L2667.86 294.032C2670.45 296.266 2672.24 299.071 2673.25 302.164ZM1748.44 364.956C1749.28 367.581 1750.94 370.035 1753.1 371.896L2196.81 760.035C2203.94 766.177 2215.42 765.603 2222.58 758.628L2665.74 320.239C2670.4 315.543 2672.17 308.991 2670.27 303.155C2669.42 300.53 2667.77 298.076 2665.61 296.215L2221.9 -91.924C2214.76 -98.0658 2203.29 -97.4924 2196.13 -90.5166L1752.97 347.872C1748.31 352.568 1746.54 359.12 1748.44 364.956Z" fill="#DADADA"/>
</g>
<g opacity="0.09" clip-path="url(#clip2_1_3005)">
<g opacity="0.8">
<path d="M3162.69 4470.54C3161.99 4459.97 3155.69 4449.6 3144.83 4440.83L1414.12 3030.8C1399.06 3018.44 1376.31 3010.26 1350.05 3007.47C1323.79 3004.88 1297.53 3008.07 1275.82 3016.64L-1206.63 4000.27C-1234.64 4011.44 -1250.4 4029.59 -1249 4049.13C-1248.3 4059.7 -1242 4070.07 -1231.14 4078.85L499.57 5488.87C514.626 5501.23 537.385 5509.41 563.645 5512.2C589.905 5514.8 616.165 5511.6 637.873 5503.03L3119.97 4519.4C3147.99 4508.24 3164.09 4490.09 3162.69 4470.54ZM-1240.95 4048.93C-1242.35 4030.98 -1227.64 4014.23 -1202.08 4004.06L1280.37 3020.43C1300.33 3012.45 1324.49 3009.46 1348.65 3011.86C1372.8 3014.25 1393.46 3021.83 1407.47 3033.2L3138.18 4443.22C3147.99 4451.4 3153.59 4460.77 3154.64 4470.54C3156.04 4488.49 3141.33 4505.24 3115.77 4515.41L633.322 5499.04C613.364 5507.02 589.205 5510.01 565.045 5507.62C540.886 5505.22 520.228 5497.64 506.222 5486.28L-1224.49 4076.25C-1234.64 4068.28 -1240.25 4058.7 -1240.95 4048.93Z" fill="#DADADA"/>
<path d="M3175.65 4416.09C3174.95 4405.52 3168.64 4395.15 3157.44 4386.58L1439.68 3024.42C1424.62 3012.45 1402.22 3004.48 1376.66 3002.08C1351.1 2999.69 1325.54 3003.08 1304.53 3011.66L-1093.54 3987.7C-1120.15 3998.67 -1135.21 4016.22 -1133.81 4034.97C-1133.11 4045.54 -1126.8 4055.91 -1115.6 4064.49L602.159 5426.64C633.321 5451.37 693.894 5456.96 737.311 5439.41L3135.38 4463.16C3161.99 4452.39 3177.05 4434.84 3175.65 4416.09ZM-1125.75 4034.77C-1127.15 4017.62 -1113.15 4001.46 -1088.64 3991.49L1309.43 3015.25C1328.69 3007.47 1352.15 3004.28 1375.61 3006.47C1399.06 3008.67 1419.72 3015.85 1433.38 3026.81L3151.14 4388.97C3161.29 4396.95 3166.89 4406.32 3167.59 4416.09C3168.99 4433.25 3154.99 4449.4 3130.48 4459.37L732.409 5435.42C692.494 5451.57 636.823 5446.39 608.462 5423.85L-1109.3 4061.69C-1119.45 4053.92 -1125.05 4044.54 -1125.75 4034.77Z" fill="#DADADA"/>
<path d="M3188.95 4361.45C3188.25 4350.88 3181.95 4340.71 3170.74 4331.93L1465.94 3017.64C1435.13 2993.91 1375.61 2988.72 1333.94 3006.27L-980.097 3974.94C-1005.66 3985.51 -1020.01 4002.66 -1018.61 4020.61C-1017.91 4031.18 -1011.61 4041.35 -1000.4 4050.13L704.399 5364.42C719.455 5375.99 741.513 5383.57 766.373 5385.56C791.232 5387.75 816.092 5384.16 836.75 5375.79L3150.79 4407.12C3176 4396.55 3190.35 4379.4 3188.95 4361.45ZM-1010.56 4020.41C-1011.96 4004.06 -998.654 3988.3 -975.545 3978.73L1338.49 3010.06C1377.01 2993.91 1431.28 2998.69 1459.64 3020.43L3164.44 4334.72C3174.6 4342.7 3180.55 4351.88 3181.25 4361.65C3182.65 4378 3169.34 4393.76 3146.23 4403.33L832.198 5372C813.641 5379.78 790.882 5382.97 767.773 5380.97C745.014 5378.98 724.706 5372.2 711.051 5361.63L-993.752 4047.34C-1003.91 4039.56 -1009.86 4030.18 -1010.56 4020.41Z" fill="#DADADA"/>
<path d="M3202.26 4307C3201.56 4296.43 3194.9 4286.26 3183.7 4277.69L1492.2 3011.26C1477.49 3000.09 1455.79 2992.91 1431.28 2991.11C1406.77 2989.12 1382.61 2992.91 1363 3001.29L-866.654 3962.57C-890.813 3972.95 -904.468 3989.5 -903.068 4006.65C-902.367 4017.22 -895.715 4027.39 -884.51 4035.97L806.988 5302.39C837.8 5325.33 895.572 5329.92 936.188 5312.37L3165.84 4351.08C3190 4340.51 3203.66 4324.15 3202.26 4307ZM-895.364 4006.25C-896.415 3990.5 -884.16 3975.54 -862.102 3965.96L1367.55 3004.68C1385.41 2996.9 1407.47 2993.71 1429.88 2995.3C1452.29 2997.1 1471.89 3003.68 1485.55 3013.85L3177.4 4280.48C3187.9 4288.26 3193.85 4297.43 3194.55 4307.2C3195.6 4322.96 3183.35 4337.92 3161.29 4347.49L931.636 5308.78C894.521 5324.73 841.651 5320.54 813.64 5299.6L-877.858 4033.18C-888.712 4025.2 -894.314 4016.02 -895.364 4006.25Z" fill="#DADADA"/>
<path d="M3215.56 4252.36C3214.86 4241.79 3208.21 4231.62 3196.65 4223.24L1518.11 3004.68C1503.4 2993.91 1482.05 2987.13 1458.24 2985.53C1434.43 2983.94 1410.97 2987.53 1392.06 2995.9L-753.56 3949.81C-776.319 3959.98 -789.274 3975.74 -787.873 3992.29C-787.173 4002.86 -780.521 4013.03 -768.966 4021.41L909.577 5239.97C924.283 5250.74 945.641 5257.52 969.45 5259.12C993.259 5260.71 1016.72 5257.12 1035.63 5248.75L3181.25 4294.84C3204.01 4284.67 3216.96 4268.91 3215.56 4252.36ZM-779.82 3992.09C-780.87 3977.13 -769.316 3962.57 -748.659 3953.4L1396.96 2999.49C1414.12 2991.91 1435.48 2988.52 1457.19 2989.92C1478.9 2991.51 1498.15 2997.7 1511.81 3007.47L3190.35 4226.03C3200.86 4233.61 3206.81 4242.98 3207.51 4252.56C3208.56 4267.51 3197 4282.07 3176.35 4291.25L1030.72 5245.16C1013.57 5252.73 992.209 5256.12 970.501 5254.73C948.792 5253.13 929.535 5246.95 915.88 5237.18L-762.664 4018.62C-773.168 4011.04 -779.12 4001.86 -779.82 3992.09Z" fill="#DADADA"/>
<path d="M3228.87 4197.91C3228.17 4187.34 3221.51 4177.17 3209.61 4168.99L1544.02 2998.29C1513.56 2976.95 1458.59 2973.76 1421.12 2990.92L-640.117 3937.45C-661.475 3947.22 -673.729 3962.57 -672.679 3978.33C-671.979 3988.9 -665.326 3999.07 -653.422 4007.45L1012.17 5178.15C1026.87 5188.52 1047.88 5194.9 1070.99 5196.29C1094.1 5197.69 1116.86 5193.9 1135.06 5185.52L3196.65 4238.79C3218.01 4228.82 3230.27 4213.67 3228.87 4197.91ZM-664.626 3977.93C-665.677 3963.57 -654.822 3949.81 -635.215 3940.84L1426.03 2994.31C1459.99 2978.75 1510.41 2981.74 1537.72 3001.09L3203.31 4171.78C3214.16 4179.36 3220.11 4188.54 3220.81 4198.11C3221.86 4212.47 3211.01 4226.23 3191.4 4235.21L1130.16 5181.73C1113.71 5189.31 1093.05 5192.7 1071.69 5191.51C1050.68 5190.31 1031.42 5184.33 1018.12 5174.95L-647.47 4004.26C-657.974 3996.68 -663.926 3987.5 -664.626 3977.93Z" fill="#DADADA"/>
<path d="M3242.17 4143.26C3241.47 4132.69 3234.47 4122.52 3222.56 4114.35L1569.93 2991.51C1555.22 2981.54 1534.92 2975.56 1512.16 2974.36C1489.4 2973.17 1467.34 2977.15 1449.83 2985.53L-527.023 3924.48C-547.681 3934.25 -558.535 3948.61 -557.485 3963.77C-556.785 3974.54 -549.782 3984.51 -537.878 3992.69L1114.76 5115.52C1144.87 5136.06 1198.79 5138.66 1234.5 5121.5L3211.71 4182.55C3232.37 4172.78 3243.57 4158.62 3242.17 4143.26ZM-549.432 3963.57C-550.483 3949.81 -540.328 3936.85 -521.771 3928.07L1455.09 2988.92C1470.84 2981.34 1490.8 2977.75 1511.46 2978.95C1532.12 2979.95 1550.67 2985.53 1563.98 2994.51L3216.61 4117.34C3227.47 4124.72 3233.77 4133.89 3234.47 4143.46C3235.52 4157.23 3225.37 4170.19 3206.81 4178.96L1229.95 5118.11C1197.39 5133.67 1148.37 5131.08 1121.41 5112.53L-531.225 3989.7C-542.429 3982.32 -548.732 3973.34 -549.432 3963.57Z" fill="#DADADA"/>
<path d="M3255.48 4088.82C3254.78 4078.05 3247.77 4068.28 3235.17 4060.1L1595.49 2985.13C1581.13 2975.56 1560.83 2969.97 1538.77 2968.98C1516.71 2968.18 1495.35 2972.17 1478.55 2980.35L-414.28 3911.92C-433.538 3921.49 -444.042 3935.05 -442.641 3949.61C-441.941 3960.38 -434.938 3970.15 -422.333 3978.33L1217.35 5053.3C1231.7 5062.87 1252.01 5068.45 1274.07 5069.45C1296.13 5070.25 1317.48 5066.26 1334.29 5058.08L3227.12 4126.51C3246.37 4116.94 3256.88 4103.18 3255.48 4088.82ZM-434.238 3949.41C-435.288 3936.25 -425.835 3923.88 -408.328 3915.31L1484.15 2983.74C1499.2 2976.36 1518.46 2972.57 1538.42 2973.37C1558.38 2974.16 1576.58 2979.35 1589.54 2987.92L3229.22 4062.89C3240.42 4070.27 3246.72 4079.25 3247.42 4088.82C3248.47 4101.98 3239.02 4114.35 3221.51 4122.92L1328.69 5054.49C1313.63 5061.87 1294.37 5065.66 1274.42 5064.86C1254.46 5064.07 1236.25 5058.88 1223.3 5050.31L-416.381 3975.34C-427.235 3967.96 -433.538 3958.98 -434.238 3949.41Z" fill="#DADADA"/>
<path d="M3269.13 4034.17C3268.43 4023.6 3261.08 4013.43 3248.47 4005.65L1622.1 2978.55C1607.74 2969.38 1587.79 2964.19 1566.43 2963.39C1545.07 2962.79 1524.41 2966.98 1508.31 2975.16L-300.136 3899.35C-317.993 3908.53 -327.797 3921.69 -326.747 3935.45C-326.047 3946.02 -318.694 3956.19 -306.089 3963.97L1320.28 4991.07C1334.64 5000.25 1354.6 5005.43 1375.96 5006.23C1397.31 5006.83 1417.97 5002.64 1434.08 4994.46L3242.52 4070.27C3260.38 4061.1 3270.18 4047.93 3269.13 4034.17ZM-319.044 3935.25C-320.094 3922.89 -311.341 3911.12 -294.884 3902.74L1513.56 2978.35C1527.91 2970.97 1546.47 2967.18 1566.08 2967.78C1585.34 2968.38 1603.19 2973.17 1616.15 2981.34L3242.52 4008.44C3253.73 4015.62 3260.38 4024.6 3261.08 4034.17C3262.13 4046.54 3253.38 4058.3 3236.92 4066.68L1428.48 4990.87C1414.12 4998.25 1395.56 5002.04 1375.96 5001.44C1356.7 5000.84 1338.84 4996.06 1325.89 4987.88L-300.487 3960.78C-311.691 3953.8 -318.344 3944.62 -319.044 3935.25Z" fill="#DADADA"/>
<path d="M3282.44 3979.73C3281.74 3969.16 3274.03 3958.98 3261.43 3951.21L1648.01 2971.97C1633.66 2963.19 1614.4 2958.21 1593.39 2957.81C1572.38 2957.41 1552.42 2961.6 1537.37 2969.78L-187.043 3886.59C-203.849 3895.56 -212.603 3908.13 -211.902 3921.09C-211.202 3931.66 -203.499 3941.83 -190.894 3949.61L1422.52 4928.85C1451.94 4946.8 1501.65 4947.6 1533.17 4930.84L3257.58 4014.23C3274.38 4005.25 3283.49 3992.69 3282.44 3979.73ZM-203.849 3920.89C-204.9 3909.13 -196.496 3897.96 -181.441 3889.98L1542.62 2973.17C1556.28 2965.79 1574.13 2962 1593.04 2962.4C1611.95 2962.79 1629.1 2967.18 1642.06 2974.96L3255.48 3954.2C3267.03 3961.18 3273.68 3970.15 3274.38 3979.73C3275.43 3991.49 3267.03 4002.66 3252.33 4010.64L1527.91 4927.45C1499.55 4942.61 1455.09 4941.61 1428.48 4925.66L-184.942 3946.42C-196.496 3939.44 -203.149 3930.46 -203.849 3920.89Z" fill="#DADADA"/>
<path d="M3295.74 3925.08C3295.04 3914.51 3287.34 3904.34 3274.03 3896.76L1673.57 2965.39C1644.16 2948.24 1595.84 2948.04 1565.73 2964.59L-74.3002 3874.02C-89.7059 3882.6 -98.1093 3894.57 -97.0587 3906.93C-96.3585 3917.5 -88.6554 3927.67 -75.3505 3935.25L1525.11 4866.62C1554.52 4883.78 1602.84 4883.97 1632.95 4867.42L3272.98 3957.99C3288.39 3949.41 3296.79 3937.45 3295.74 3925.08ZM-88.6554 3906.73C-89.3558 3895.76 -82.0031 3884.99 -67.9977 3877.22L1571.68 2967.78C1598.64 2952.82 1641.71 2953.22 1668.32 2968.38L3268.78 3899.75C3280.34 3906.53 3287.34 3915.51 3288.04 3925.08C3288.74 3936.05 3281.39 3946.82 3267.38 3954.6L1627.35 4864.03C1600.39 4878.99 1557.33 4878.59 1531.07 4863.43L-69.3981 3932.06C-81.3026 3925.28 -87.9552 3916.3 -88.6554 3906.73Z" fill="#DADADA"/>
<path d="M3309.4 3870.63C3308.7 3859.86 3300.64 3849.89 3287.34 3842.51L1699.83 2958.81C1670.77 2942.65 1623.85 2942.85 1595.14 2959.4L39.4934 3861.46C25.1379 3869.84 17.4351 3881.2 18.4854 3892.77C19.1858 3903.54 27.2388 3913.51 40.5439 3920.89L1628.05 4804.4C1657.11 4820.55 1704.03 4820.35 1732.74 4803.8L3288.39 3901.75C3302.39 3893.57 3310.1 3882.2 3309.4 3870.63ZM26.1885 3892.57C25.488 3882.2 32.1409 3872.03 45.0957 3864.65L1600.74 2962.6C1626.3 2947.84 1667.97 2947.64 1694.23 2962L3281.74 3845.7C3293.64 3852.48 3300.64 3861.26 3301.34 3870.83C3302.04 3881.2 3295.39 3891.38 3282.44 3898.75L1726.79 4800.81C1701.23 4815.57 1659.56 4815.77 1633.3 4801.41L45.7959 3917.9C33.8914 3910.92 26.8887 3901.95 26.1885 3892.57Z" fill="#DADADA"/>
<path d="M3322.7 3815.99C3322 3805.22 3313.95 3795.25 3299.94 3787.87L1725.74 2952.22C1711.73 2944.85 1693.53 2940.86 1674.27 2941.26C1655.01 2941.65 1637.16 2946.24 1624.2 2954.22L152.587 3848.9C139.282 3856.87 132.279 3867.44 133.33 3878.61C134.03 3889.38 142.083 3899.35 156.089 3906.73L1730.64 4742.18C1759.7 4757.53 1805.22 4756.73 1832.18 4740.18L3303.44 3845.7C3316.75 3837.53 3323.75 3827.16 3322.7 3815.99ZM141.383 3878.21C140.683 3868.44 146.635 3859.07 158.539 3851.89L1630.15 2957.21C1641.71 2950.03 1657.46 2946.04 1674.62 2945.64C1691.78 2945.24 1707.88 2948.83 1720.49 2955.42L3294.69 3791.26C3306.95 3797.84 3314.3 3806.61 3315 3816.19C3315.7 3825.96 3309.75 3835.33 3297.84 3842.51L1826.23 4737.19C1802.07 4751.75 1761.8 4752.55 1735.89 4738.98L161.34 3903.14C149.086 3896.76 142.083 3887.79 141.383 3878.21Z" fill="#DADADA"/>
<path d="M3336.36 3761.54C3335.66 3750.77 3327.25 3740.8 3312.9 3733.62L1751.65 2945.64C1722.94 2931.08 1678.82 2932.68 1653.26 2949.03L266.03 3836.33C253.776 3844.11 247.824 3854.08 248.524 3864.45C249.224 3875.22 257.627 3885.19 271.983 3892.37L1833.23 4680.15C1861.94 4694.71 1906.06 4693.11 1931.62 4676.76L3318.85 3789.46C3331.11 3781.88 3337.06 3771.91 3336.36 3761.54ZM256.227 3864.05C255.526 3854.88 261.128 3846.1 271.632 3839.12L1659.21 2952.03C1681.97 2937.47 1720.84 2936.27 1746.4 2949.03L3307.65 3737.01C3320.25 3743.39 3327.6 3752.17 3328.3 3761.74C3329 3770.92 3323.4 3779.69 3312.9 3786.67L1925.67 4673.97C1902.91 4688.53 1864.04 4689.72 1838.48 4676.96L277.235 3888.98C264.28 3882.4 256.927 3873.63 256.227 3864.05Z" fill="#DADADA"/>
<path d="M3350.01 3706.9C3349.31 3696.13 3340.56 3685.95 3325.85 3679.17L1777.56 2939.06C1763.55 2932.48 1746.05 2929.29 1728.19 2930.09C1710.33 2930.88 1693.88 2935.87 1682.32 2943.65L379.124 3823.37C368.27 3830.75 362.668 3840.12 363.368 3849.89C364.068 3860.66 372.822 3870.83 387.527 3877.61L1935.82 4617.93C1964.53 4631.49 2007.25 4629.49 2031.06 4613.34L3334.26 3733.42C3345.11 3726.04 3350.71 3716.67 3350.01 3706.9ZM371.421 3849.89C370.721 3841.32 375.623 3833.14 385.426 3826.56L1688.28 2946.64C1698.43 2939.66 1713.14 2935.47 1728.89 2934.67C1744.65 2933.88 1760.4 2936.67 1772.66 2942.45L3320.95 3682.56C3333.56 3688.75 3341.61 3697.52 3342.31 3707.1C3343.01 3715.67 3338.11 3723.85 3328.3 3730.43L2025.1 4610.15C2003.75 4624.51 1965.93 4626.3 1940.72 4614.34L392.429 3874.22C379.824 3868.24 372.121 3859.27 371.421 3849.89Z" fill="#DADADA"/>
<path d="M3363.67 3652.45C3362.97 3641.68 3353.86 3631.51 3338.81 3624.73L1803.47 2932.48C1789.81 2926.3 1772.66 2923.51 1755.15 2924.7C1737.64 2925.9 1722.24 2930.69 1711.03 2938.66L492.217 3811C482.413 3817.98 477.511 3826.76 477.862 3835.73C478.562 3846.5 487.665 3856.67 502.721 3863.45L2038.41 4555.7C2066.77 4568.47 2108.09 4565.87 2130.85 4549.72L3349.66 3677.18C3359.47 3670.2 3364.37 3661.42 3363.67 3652.45ZM486.265 3835.53C485.565 3827.56 490.116 3819.98 498.87 3813.79L1717.34 2941.46C1726.79 2934.67 1740.8 2930.29 1755.85 2929.29C1771.26 2928.29 1786.31 2930.69 1798.22 2936.27L3333.91 3628.32C3346.86 3634.3 3354.91 3643.08 3355.61 3652.65C3356.32 3660.43 3351.76 3668.2 3343.01 3674.39L2124.19 4546.73C2104.24 4560.89 2067.82 4563.28 2042.96 4552.11L507.623 3859.86C495.018 3853.88 486.965 3845.11 486.265 3835.53Z" fill="#DADADA"/>
<path d="M3377.32 3597.8C3376.62 3586.83 3367.17 3576.86 3351.76 3570.28L1829.38 2925.9C1801.02 2913.93 1761.1 2917.32 1740.1 2933.28L605.661 3798.24C596.907 3804.82 592.356 3813.2 593.056 3821.37C593.756 3832.34 603.21 3842.31 618.616 3848.89L2141 4493.48C2169.36 4505.44 2209.28 4502.05 2230.28 4486.1L3364.72 3621.14C3373.47 3614.36 3378.02 3606.18 3377.32 3597.8ZM601.109 3821.37C600.409 3814.19 604.611 3806.81 611.963 3801.03L1746.4 2936.07C1764.96 2922.11 1799.97 2919.12 1824.48 2929.49L3346.86 3573.87C3360.52 3579.65 3368.57 3588.43 3369.27 3598C3369.97 3605.18 3365.77 3612.56 3358.42 3618.35L2223.98 4483.31C2205.42 4497.27 2170.41 4500.26 2145.9 4489.89L623.518 3845.5C609.863 3839.72 601.81 3830.95 601.109 3821.37Z" fill="#DADADA"/>
<path d="M3391.33 3543.36C3390.63 3532.39 3380.82 3522.42 3364.72 3516.03L1855.29 2919.52C1827.28 2908.55 1788.76 2912.34 1769.16 2928.29L718.754 3785.87C711.051 3792.25 707.2 3799.63 707.9 3807.41C708.6 3818.38 718.404 3828.35 734.51 3834.74L2243.59 4431.25C2271.6 4442.22 2310.11 4438.43 2329.72 4422.48L3380.12 3564.9C3387.83 3558.51 3391.68 3550.94 3391.33 3543.36ZM715.953 3807.21C715.603 3800.43 718.754 3794.05 725.407 3788.47L1775.81 2930.88C1792.97 2916.92 1826.58 2913.53 1850.74 2923.31L3360.17 3519.62C3374.17 3525.21 3382.58 3533.78 3383.28 3543.56C3383.63 3550.34 3380.47 3556.72 3373.82 3562.3L2323.42 4419.88C2306.26 4433.84 2272.65 4437.24 2248.14 4427.46L738.712 3830.95C725.056 3825.56 716.653 3816.79 715.953 3807.21Z" fill="#DADADA"/>
<path d="M3404.98 3488.71C3404.28 3477.74 3393.78 3467.57 3377.67 3461.59L1881.2 2912.94C1853.54 2902.76 1816.07 2907.35 1798.22 2923.11L832.198 3773.31C825.545 3779.29 822.044 3786.27 822.744 3793.25C823.444 3804.22 833.948 3814.39 850.054 3820.38L2346.18 4369.03C2373.84 4379.2 2411.3 4374.61 2429.16 4358.86L3395.53 3508.66C3402.18 3502.67 3405.68 3495.69 3404.98 3488.71ZM830.447 3793.05C830.097 3786.87 832.898 3780.89 838.85 3775.7L1804.87 2925.5C1820.63 2911.74 1852.84 2907.75 1877 2916.72L3373.12 3465.38C3387.13 3470.56 3396.23 3479.34 3396.93 3488.91C3397.28 3495.09 3394.48 3501.08 3388.53 3506.26L2422.51 4356.46C2406.75 4370.22 2374.54 4374.21 2350.38 4365.24L854.256 3816.59C840.251 3811.4 831.147 3802.63 830.447 3793.05Z" fill="#DADADA"/>
<path d="M3418.99 3434.07C3418.29 3422.9 3407.43 3412.73 3390.63 3406.94L1907.11 2906.35C1879.45 2896.98 1843.74 2902.17 1827.28 2917.92L945.291 3760.74C939.339 3766.33 936.537 3772.71 937.238 3779.09C937.938 3790.26 948.792 3800.43 965.599 3806.22L2449.12 4306.8C2476.78 4316.18 2512.49 4310.99 2528.95 4295.24L3410.59 3452.41C3416.54 3446.83 3419.34 3440.65 3418.99 3434.07ZM945.291 3778.69C944.941 3773.11 947.392 3767.72 952.294 3762.94L1833.93 2920.12C1848.29 2906.55 1879.1 2902.17 1902.91 2910.14L3386.43 3410.93C3401.13 3415.92 3410.24 3424.69 3410.94 3434.26C3411.29 3439.85 3408.84 3445.23 3403.93 3450.02L2521.95 4292.84C2507.59 4306.4 2476.78 4310.79 2452.97 4302.81L969.8 3802.03C955.095 3797.24 945.991 3788.47 945.291 3778.69Z" fill="#DADADA"/>
<path d="M3432.99 3379.62C3432.29 3368.45 3420.74 3358.08 3403.23 3352.69L1933.02 2899.77C1905.71 2891.4 1871.05 2897.18 1856.34 2912.74L1058.73 3747.98C1053.83 3753.17 1051.38 3758.95 1052.08 3764.73C1052.78 3775.9 1064.34 3786.27 1081.84 3791.66L2551.71 4244.58C2579.02 4252.96 2613.68 4247.17 2628.39 4231.62L3425.99 3396.37C3430.89 3391.19 3433.34 3385.4 3432.99 3379.62ZM1059.78 3764.53C1059.43 3759.55 1061.54 3754.56 1065.74 3750.17L1863.34 2914.93C1876.3 2901.57 1905.71 2896.58 1929.52 2903.76L3399.38 3356.68C3414.44 3361.27 3424.24 3370.05 3424.94 3379.82C3425.29 3384.8 3423.19 3389.79 3418.99 3394.18L2621.38 4229.42C2608.43 4242.78 2579.02 4247.77 2555.21 4240.59L1084.99 3787.67C1069.94 3783.08 1060.48 3774.31 1059.78 3764.53Z" fill="#DADADA"/>
<path d="M3447 3324.97C3445.95 3313.61 3434.4 3303.23 3416.19 3298.25L1958.93 2893.19C1931.62 2885.61 1898.71 2891.99 1885.4 2907.55L1172.18 3735.42C1167.98 3740.2 1166.23 3745.39 1166.58 3750.57C1167.63 3762.14 1179.18 3772.31 1197.39 3777.3L2654.3 4182.35C2681.61 4189.93 2714.52 4183.55 2727.82 4167.99L3441.4 3340.13C3445.6 3335.34 3447.35 3330.16 3447 3324.97ZM1174.28 3750.37C1173.93 3745.99 1175.68 3741.4 1179.18 3737.41L1892.4 2909.55C1903.96 2896.38 1931.97 2890.8 1955.43 2897.18L3412.69 3302.24C3428.09 3306.63 3438.25 3315.4 3438.95 3325.17C3439.3 3329.56 3437.55 3334.15 3434.04 3338.14L2720.82 4166C2709.27 4179.16 2681.26 4184.75 2657.8 4178.37L1200.54 3773.31C1185.13 3768.92 1174.98 3760.15 1174.28 3750.37Z" fill="#DADADA"/>
</g>
</g>
<defs>
<clipPath id="clip0_1_3005">
<rect width="1883" height="1690" fill="white" transform="translate(-92 890)"/>
</clipPath>
<clipPath id="clip1_1_3005">
<rect width="1834.13" height="1646.14" fill="white" transform="translate(2769.4 557.651) rotate(159.377)"/>
</clipPath>
<clipPath id="clip2_1_3005">
<rect width="4696" height="2623" fill="white" transform="matrix(-1 0 0 1 3447 2890)"/>
</clipPath>
</defs>
</svg>
