<svg width="18" height="27" viewBox="0 0 18 27" fill="none" xmlns="http://www.w3.org/2000/svg">
<path fill-rule="evenodd" clip-rule="evenodd" d="M11.7473 7.35731C10.4177 6.76489 8.93223 6.61813 7.51243 6.93891C6.09263 7.2597 4.81456 8.03084 3.86884 9.13734C2.92312 10.2438 2.36041 11.6264 2.26463 13.0788C2.16886 14.5313 2.54516 15.9757 3.3374 17.1968C4.12964 18.4179 5.29539 19.3502 6.66077 19.8547C8.02615 20.3591 9.51802 20.4087 10.9139 19.9959C12.3097 19.5832 13.5348 18.7304 14.4063 17.5645C15.2778 16.3987 15.7492 14.9824 15.75 13.5268V12.8372C15.75 12.423 16.0858 12.0872 16.5 12.0872C16.9142 12.0872 17.25 12.423 17.25 12.8372V13.5272C17.249 15.3063 16.6729 17.0378 15.6077 18.4627C14.5425 19.8876 13.0452 20.93 11.3392 21.4344C9.63313 21.9388 7.80974 21.8782 6.14094 21.2617C4.47214 20.6452 3.04734 19.5057 2.07904 18.0133C1.11074 16.5208 0.650828 14.7553 0.767883 12.9801C0.884939 11.2049 1.5727 9.51514 2.72858 8.16276C3.88447 6.81037 5.44655 5.86786 7.18186 5.47579C8.91716 5.08372 10.7327 5.2631 12.3578 5.98717C12.7361 6.15576 12.9062 6.59914 12.7376 6.97749C12.569 7.35585 12.1256 7.5259 11.7473 7.35731Z" fill="white"/>
<path fill-rule="evenodd" clip-rule="evenodd" d="M17.0301 6.99665C17.3231 7.28939 17.3233 7.76427 17.0306 8.05731L9.5306 15.5648C9.38997 15.7056 9.19917 15.7847 9.00019 15.7847C8.80122 15.7848 8.61037 15.7058 8.46967 15.5651L6.21967 13.3151C5.92678 13.0222 5.92678 12.5473 6.21967 12.2544C6.51257 11.9615 6.98744 11.9615 7.28033 12.2544L8.99974 13.9738L15.9694 6.99718C16.2622 6.70414 16.737 6.7039 17.0301 6.99665Z" fill="white"/>
</svg>
