<svg width="195" height="155" viewBox="0 0 195 155" fill="none" xmlns="http://www.w3.org/2000/svg">
<path d="M84.2593 16.7568L46.9444 87.973L28.287 92.7606C30.2932 88.3719 32.7006 84.7812 35.5093 81.9884C38.7191 79.1956 42.3302 77.7992 46.3426 77.7992C54.7685 77.7992 62.392 81.1905 69.213 87.973C76.4352 94.7555 80.0463 103.533 80.0463 114.305C80.0463 125.077 76.034 134.653 68.0093 143.031C60.3858 151.01 51.1574 155 40.3241 155C29.4907 155 20.0617 151.01 12.037 143.031C4.01235 135.051 0 125.476 0 114.305C0 109.517 1.00309 104.131 3.00926 98.1467C5.01543 91.7632 8.42593 83.7838 13.2407 74.2085L53.5648 0L84.2593 16.7568ZM195 16.7568L157.685 87.973L139.028 92.7606C141.034 88.3719 143.441 84.7812 146.25 81.9884C149.46 79.1956 153.071 77.7992 157.083 77.7992C165.509 77.7992 173.133 81.1905 179.954 87.973C187.176 94.7555 190.787 103.533 190.787 114.305C190.787 125.077 186.775 134.653 178.75 143.031C171.127 151.01 161.898 155 151.065 155C140.231 155 130.802 151.01 122.778 143.031C114.753 135.051 110.741 125.476 110.741 114.305C110.741 109.517 111.744 104.131 113.75 98.1467C115.756 91.7632 119.167 83.7838 123.981 74.2085L164.306 0L195 16.7568Z" fill="white" fill-opacity="0.15"/>
</svg>
