<svg width="216" height="601" viewBox="0 0 216 601" fill="none" xmlns="http://www.w3.org/2000/svg">
<circle cx="108" cy="493" r="108" fill="#DA2118"/>
<path d="M132 54.3422C131.438 56.1161 130.631 57.7977 128.839 58.5462C127.482 59.1153 125.977 59.3588 124.524 59.669C123.278 59.9253 122.003 60.051 120.757 60.315C120.573 60.363 120.401 60.448 120.251 60.5648C120.101 60.6816 119.977 60.8277 119.886 60.9943C119.074 62.8246 118.304 64.6754 117.578 66.5467C117.524 66.7267 117.508 66.9159 117.53 67.1025C117.553 67.2891 117.613 67.469 117.709 67.631C118.798 69.2409 119.955 70.8045 121.075 72.3939C123.144 75.3316 122.916 78.318 120.409 80.866C118.575 82.7271 116.726 84.5762 114.863 86.4133C112.337 88.8896 109.353 89.1203 106.471 87.09C104.907 85.9878 103.336 84.8957 101.81 83.7422C101.297 83.3525 100.902 83.3807 100.351 83.6243C98.6641 84.3702 96.9591 85.0803 95.2362 85.7391C94.9812 85.8092 94.7541 85.9565 94.5861 86.1607C94.4181 86.365 94.3174 86.6161 94.2978 86.8798C93.9491 89.0485 93.6286 91.2377 93.1491 93.3679C92.8763 94.6459 92.1791 95.7941 91.1708 96.6258C90.1626 97.4575 88.9026 97.9237 87.5957 97.9487C84.5362 98.029 81.4749 98.029 78.4118 97.9487C75.4531 97.8693 73.1994 95.7596 72.6738 92.745C72.3354 90.7993 72.0047 88.8537 71.7124 86.9003C71.6957 86.6365 71.5978 86.3842 71.4321 86.1782C71.2664 85.9721 71.041 85.8223 70.7868 85.7494C69.0921 85.1059 67.4153 84.4112 65.7564 83.6807C65.5556 83.5668 65.3243 83.5182 65.0946 83.5416C64.8649 83.565 64.6482 83.6593 64.4745 83.8114C62.8567 85.0034 61.2158 86.1621 59.5672 87.3079C56.8212 89.2202 53.8881 89.0382 51.4755 86.7286C49.4432 84.7838 47.4579 82.7988 45.5195 80.7737C43.2556 78.4026 43.0633 75.4495 44.9375 72.7502C46.0451 71.154 47.1827 69.5775 48.3501 68.0207C48.5262 67.8245 48.6351 67.5772 48.6609 67.3149C48.6868 67.0525 48.6282 66.7888 48.4937 66.5621C47.7245 64.8856 46.9861 63.1912 46.34 61.466C46.2622 61.1995 46.1039 60.9636 45.8868 60.7906C45.6697 60.6176 45.4044 60.5159 45.1273 60.4996C43.2095 60.1894 41.2814 59.8587 39.379 59.528C36.0459 58.9512 34.0358 56.6185 34.0128 53.2373C33.9974 50.5252 33.9974 47.8148 34.0128 45.1061C34.0384 41.7993 36.0639 39.4205 39.3329 38.8616C41.2814 38.5284 43.2351 38.2413 45.1734 37.8593C45.3672 37.7996 45.5465 37.7005 45.7 37.5681C45.8536 37.4358 45.9781 37.2731 46.0657 37.0903C46.8476 35.3164 47.522 33.5015 48.3091 31.7225C48.4179 31.518 48.4603 31.2847 48.4304 31.055C48.4006 30.8253 48.2999 30.6106 48.1424 30.4407C47.0143 28.9027 45.9118 27.3339 44.8093 25.7727C42.6736 22.753 42.9146 19.7692 45.5119 17.1596C47.2895 15.3738 49.074 13.5947 50.8653 11.8225C53.5317 9.17964 56.5059 8.93869 59.5492 11.115C61.0876 12.2122 62.5849 13.3375 64.1437 14.3885C64.3202 14.4873 64.5153 14.5482 64.7166 14.5672C64.918 14.5862 65.1211 14.5629 65.3129 14.4988C67.0897 13.8041 68.8177 12.9889 70.6022 12.3122C70.8543 12.2362 71.0769 12.0845 71.2397 11.8777C71.4026 11.6708 71.4978 11.4189 71.5124 11.1561C71.8201 9.20528 72.1405 7.25707 72.4918 5.31399C72.9636 2.69416 74.4352 0.943338 77.035 0.199942C77.1794 0.144495 77.3199 0.0794138 77.4555 0.00512695H88.1726C88.3092 0.0786015 88.4505 0.142832 88.5957 0.197384C91.1596 0.920272 92.6415 2.63008 93.1286 5.20889C93.4953 7.14684 93.8081 9.09762 94.1029 11.0484C94.1176 11.2971 94.2098 11.5349 94.3666 11.7284C94.5234 11.922 94.737 12.0616 94.9772 12.1276C96.8489 12.8377 98.6769 13.6657 100.549 14.3732C100.74 14.4371 100.942 14.4612 101.143 14.444C101.345 14.4268 101.54 14.3687 101.718 14.2732C103.336 13.194 104.897 12.0353 106.487 10.9151C109.417 8.84897 112.399 9.0848 114.947 11.6021C116.783 13.417 118.609 15.2439 120.424 17.0827C122.988 19.6641 123.206 22.6325 121.091 25.6189C119.986 27.1801 118.842 28.713 117.778 30.3023C117.679 30.4793 117.617 30.675 117.596 30.877C117.576 31.0791 117.598 31.2831 117.66 31.4764C118.352 33.2862 119.152 35.0652 119.844 36.8596C119.911 37.0846 120.045 37.2838 120.228 37.4301C120.412 37.5764 120.636 37.6627 120.87 37.6773C122.819 37.9875 124.79 38.2208 126.703 38.6899C127.861 38.9948 128.959 39.4922 129.951 40.1613C131.138 40.9483 131.585 42.3094 132.003 43.6245L132 54.3422ZM55.5418 15.1063C55.2854 15.3088 55.0291 15.478 54.8137 15.6933C53.019 17.4698 51.2601 19.2668 49.4551 21.0227C48.9142 21.5354 48.8731 21.9635 49.3218 22.5787C50.8114 24.6089 52.2165 26.7007 53.724 28.7156C54.7214 30.0511 54.7368 31.279 54.0214 32.7889C52.8574 35.2212 51.8369 37.7197 50.9653 40.2715C50.4012 41.9429 49.4731 42.8144 47.7527 43.0554C45.3247 43.3938 42.9121 43.8526 40.4892 44.2371C39.8072 44.3448 39.52 44.6473 39.5328 45.3779C39.5713 47.8336 39.5841 50.2894 39.5328 52.7452C39.5123 53.6629 39.8097 54.0269 40.7302 54.1653C43.2197 54.5319 45.6888 55.0318 48.1783 55.4086C49.6859 55.6393 50.5909 56.4493 50.9781 57.8925C51.7192 60.6319 52.8256 63.259 54.2676 65.7033C55.0547 67.0414 54.9752 68.2667 54.0573 69.5254C52.5677 71.5531 51.1499 73.6269 49.6551 75.6623C49.1782 76.3082 49.2167 76.744 49.7859 77.2977C51.5704 79.0306 53.3292 80.7891 55.0624 82.5733C55.588 83.1141 56.0033 83.1629 56.6136 82.7143C58.6467 81.2249 60.7363 79.815 62.7541 78.3103C64.0873 77.3182 65.3334 77.3029 66.8358 78.0155C69.2121 79.1626 71.6537 80.1692 74.1481 81.0301C75.8351 81.5966 76.6556 82.5681 76.8915 84.2754C77.2299 86.703 77.6863 89.1151 78.0657 91.5376C78.1734 92.2297 78.4913 92.4989 79.2118 92.4886C81.6988 92.4553 84.1883 92.4425 86.6753 92.4886C87.5265 92.5066 87.8547 92.1887 87.9803 91.3787C88.3675 88.8614 88.8315 86.3543 89.2264 83.837C89.4571 82.3759 90.2519 81.5018 91.6723 81.1224C94.4192 80.4043 97.0546 79.3133 99.5051 77.8796C100.882 77.0696 102.125 77.1747 103.405 78.1231C105.428 79.6202 107.507 81.0352 109.543 82.5246C110.143 82.9655 110.568 82.9757 111.099 82.4195C112.853 80.6131 114.634 78.8315 116.442 77.0747C116.991 76.5415 116.988 76.1134 116.55 75.511C115.065 73.4782 113.65 71.3916 112.155 69.3588C111.214 68.0771 111.199 66.8902 111.878 65.4495C113.068 62.922 114.153 60.3381 115.096 57.7105C115.637 56.2058 116.496 55.3701 118.05 55.1317C120.506 54.7575 122.952 54.314 125.411 53.9449C126.213 53.8244 126.557 53.4988 126.541 52.6478C126.498 50.2228 126.485 47.7978 126.541 45.3779C126.567 44.414 126.17 44.1192 125.298 43.9885C122.839 43.6219 120.398 43.1579 117.942 42.776C116.45 42.5427 115.653 41.7045 115.122 40.292C114.145 37.6414 113.071 35.0242 111.871 32.4659C111.217 31.0611 111.204 29.887 112.127 28.6387C113.619 26.6084 115.035 24.5372 116.524 22.4864C116.988 21.8558 117.009 21.4123 116.424 20.8458C114.636 19.1129 112.878 17.3536 111.148 15.5677C110.581 14.9807 110.156 14.9781 109.517 15.4524C107.466 16.975 105.376 18.4285 103.318 19.9358C102.205 20.751 101.054 20.9279 99.8384 20.2357C97.1507 18.7055 94.278 17.5261 91.2903 16.7264C90.0263 16.388 89.311 15.537 89.0956 14.2373C88.6726 11.6585 88.2008 9.08993 87.8009 6.50855C87.6855 5.76516 87.3906 5.48318 86.6266 5.48318C84.1704 5.51907 81.7141 5.53188 79.2579 5.48318C78.3862 5.46267 78.0067 5.73952 77.876 6.61109C77.5119 9.03609 77.035 11.4457 76.6838 13.8707C76.4453 15.5088 75.5941 16.4342 74.0276 16.993C71.4355 17.9363 68.8869 19.0258 66.3923 20.2024C64.9693 20.8766 63.7617 20.9227 62.4772 19.9743C60.4773 18.4952 58.4365 17.075 56.4084 15.6369C56.1597 15.4754 55.8828 15.3191 55.5418 15.1063Z" fill="white" fill-opacity="0.5"/>
<path d="M82.9757 27.844C94.5568 27.7645 104.018 37.1775 104.151 48.9129C104.284 60.4483 94.8337 69.9612 83.1013 70.0971C71.4997 70.2304 61.9107 60.6893 61.8902 48.9898C61.8697 37.3543 71.274 27.9235 82.9757 27.844ZM83.0347 64.5882C91.6648 64.5524 98.7437 57.4414 98.6411 48.9103C98.536 40.2792 91.5468 33.3272 83.0013 33.3528C74.3892 33.3785 67.2949 40.5125 67.4026 49.0385C67.5077 57.6849 74.4866 64.6241 83.0347 64.5882V64.5882Z" fill="white" fill-opacity="0.5"/>
</svg>
