<svg width="235" height="184" viewBox="0 0 235 184" fill="none" xmlns="http://www.w3.org/2000/svg">
<circle cx="4.89617" cy="4.18182" r="4.18182" fill="#E7F0FC"/>
<circle cx="4.89617" cy="29.2726" r="4.18182" fill="#E7F0FC"/>
<circle cx="4.89617" cy="54.3637" r="4.18182" fill="#E7F0FC"/>
<circle cx="4.89617" cy="79.4545" r="4.18182" fill="#E7F0FC"/>
<circle cx="4.89617" cy="104.545" r="4.18182" fill="#E7F0FC"/>
<circle cx="4.89617" cy="129.636" r="4.18182" fill="#E7F0FC"/>
<circle cx="4.89617" cy="154.727" r="4.18182" fill="#E7F0FC"/>
<circle cx="4.89617" cy="179.818" r="4.18182" fill="#E7F0FC"/>
<circle cx="29.987" cy="4.18182" r="4.18182" fill="#E7F0FC"/>
<circle cx="29.987" cy="29.2726" r="4.18182" fill="#E7F0FC"/>
<circle cx="29.987" cy="54.3637" r="4.18182" fill="#E7F0FC"/>
<circle cx="29.987" cy="79.4545" r="4.18182" fill="#E7F0FC"/>
<circle cx="29.987" cy="104.545" r="4.18182" fill="#E7F0FC"/>
<circle cx="29.987" cy="129.636" r="4.18182" fill="#E7F0FC"/>
<circle cx="29.987" cy="154.727" r="4.18182" fill="#E7F0FC"/>
<circle cx="29.987" cy="179.818" r="4.18182" fill="#E7F0FC"/>
<circle cx="55.0778" cy="4.18182" r="4.18182" fill="#E7F0FC"/>
<circle cx="55.0778" cy="29.2726" r="4.18182" fill="#E7F0FC"/>
<circle cx="55.0778" cy="54.3637" r="4.18182" fill="#E7F0FC"/>
<circle cx="55.0778" cy="79.4545" r="4.18182" fill="#E7F0FC"/>
<circle cx="55.0778" cy="104.545" r="4.18182" fill="#E7F0FC"/>
<circle cx="55.0778" cy="129.636" r="4.18182" fill="#E7F0FC"/>
<circle cx="55.0778" cy="154.727" r="4.18182" fill="#E7F0FC"/>
<circle cx="55.0778" cy="179.818" r="4.18182" fill="#E7F0FC"/>
<circle cx="80.1691" cy="4.18182" r="4.18182" fill="#E7F0FC"/>
<circle cx="80.1691" cy="29.2726" r="4.18182" fill="#E7F0FC"/>
<circle cx="80.1691" cy="54.3637" r="4.18182" fill="#E7F0FC"/>
<circle cx="80.1691" cy="79.4545" r="4.18182" fill="#E7F0FC"/>
<circle cx="80.1691" cy="104.545" r="4.18182" fill="#E7F0FC"/>
<circle cx="80.1691" cy="129.636" r="4.18182" fill="#E7F0FC"/>
<circle cx="80.1691" cy="154.727" r="4.18182" fill="#E7F0FC"/>
<circle cx="80.1691" cy="179.818" r="4.18182" fill="#E7F0FC"/>
<circle cx="105.26" cy="4.18182" r="4.18182" fill="#E7F0FC"/>
<circle cx="105.26" cy="29.2726" r="4.18182" fill="#E7F0FC"/>
<circle cx="105.26" cy="54.3637" r="4.18182" fill="#E7F0FC"/>
<circle cx="105.26" cy="79.4545" r="4.18182" fill="#E7F0FC"/>
<circle cx="105.26" cy="104.545" r="4.18182" fill="#E7F0FC"/>
<circle cx="105.26" cy="129.636" r="4.18182" fill="#E7F0FC"/>
<circle cx="105.26" cy="154.727" r="4.18182" fill="#E7F0FC"/>
<circle cx="105.26" cy="179.818" r="4.18182" fill="#E7F0FC"/>
<circle cx="130.351" cy="4.18182" r="4.18182" fill="#E7F0FC"/>
<circle cx="130.351" cy="29.2726" r="4.18182" fill="#E7F0FC"/>
<circle cx="130.351" cy="54.3637" r="4.18182" fill="#E7F0FC"/>
<circle cx="130.351" cy="79.4545" r="4.18182" fill="#E7F0FC"/>
<circle cx="130.351" cy="104.545" r="4.18182" fill="#E7F0FC"/>
<circle cx="130.351" cy="129.636" r="4.18182" fill="#E7F0FC"/>
<circle cx="130.351" cy="154.727" r="4.18182" fill="#E7F0FC"/>
<circle cx="130.351" cy="179.818" r="4.18182" fill="#E7F0FC"/>
<circle cx="155.442" cy="4.18182" r="4.18182" fill="#E7F0FC"/>
<circle cx="155.442" cy="29.2726" r="4.18182" fill="#E7F0FC"/>
<circle cx="155.442" cy="54.3637" r="4.18182" fill="#E7F0FC"/>
<circle cx="155.442" cy="79.4545" r="4.18182" fill="#E7F0FC"/>
<circle cx="155.442" cy="104.545" r="4.18182" fill="#E7F0FC"/>
<circle cx="155.442" cy="129.636" r="4.18182" fill="#E7F0FC"/>
<circle cx="155.442" cy="154.727" r="4.18182" fill="#E7F0FC"/>
<circle cx="155.442" cy="179.818" r="4.18182" fill="#E7F0FC"/>
<circle cx="180.532" cy="4.18182" r="4.18182" fill="#E7F0FC"/>
<circle cx="180.532" cy="29.2726" r="4.18182" fill="#E7F0FC"/>
<circle cx="180.532" cy="54.3637" r="4.18182" fill="#E7F0FC"/>
<circle cx="180.532" cy="79.4545" r="4.18182" fill="#E7F0FC"/>
<circle cx="180.532" cy="104.545" r="4.18182" fill="#E7F0FC"/>
<circle cx="180.532" cy="129.636" r="4.18182" fill="#E7F0FC"/>
<circle cx="180.532" cy="154.727" r="4.18182" fill="#E7F0FC"/>
<circle cx="180.532" cy="179.818" r="4.18182" fill="#E7F0FC"/>
<circle cx="205.623" cy="4.18182" r="4.18182" fill="#E7F0FC"/>
<circle cx="205.623" cy="29.2726" r="4.18182" fill="#E7F0FC"/>
<circle cx="205.623" cy="54.3637" r="4.18182" fill="#E7F0FC"/>
<circle cx="205.623" cy="79.4545" r="4.18182" fill="#E7F0FC"/>
<circle cx="205.623" cy="104.545" r="4.18182" fill="#E7F0FC"/>
<circle cx="205.623" cy="129.636" r="4.18182" fill="#E7F0FC"/>
<circle cx="205.623" cy="154.727" r="4.18182" fill="#E7F0FC"/>
<circle cx="205.623" cy="179.818" r="4.18182" fill="#E7F0FC"/>
<circle cx="230.715" cy="4.18182" r="4.18182" fill="#E7F0FC"/>
<circle cx="230.715" cy="29.2726" r="4.18182" fill="#E7F0FC"/>
<circle cx="230.715" cy="54.3637" r="4.18182" fill="#E7F0FC"/>
<circle cx="230.715" cy="79.4545" r="4.18182" fill="#E7F0FC"/>
<circle cx="230.715" cy="104.545" r="4.18182" fill="#E7F0FC"/>
<circle cx="230.715" cy="129.636" r="4.18182" fill="#E7F0FC"/>
<circle cx="230.715" cy="154.727" r="4.18182" fill="#E7F0FC"/>
<circle cx="230.715" cy="179.818" r="4.18182" fill="#E7F0FC"/>
</svg>
