<svg width="84" height="84" viewBox="0 0 84 84" fill="none" xmlns="http://www.w3.org/2000/svg">
<g opacity="0.35" clip-path="url(#clip0_1_281)">
<path d="M83.9999 46.579C83.5186 48.0995 82.8263 49.5409 81.2902 50.1825C80.1277 50.6703 78.8376 50.879 77.5916 51.1449C76.5235 51.3646 75.4313 51.4722 74.3633 51.6986C74.2057 51.7397 74.0581 51.8126 73.9296 51.9127C73.8012 52.0128 73.6945 52.1381 73.6161 52.2808C72.9202 53.8496 72.2609 55.436 71.6382 57.04C71.5918 57.1943 71.5778 57.3565 71.5971 57.5164C71.6164 57.6764 71.6686 57.8306 71.7503 57.9694C72.6843 59.3493 73.6754 60.6896 74.6358 62.0519C76.4093 64.5699 76.2137 67.1297 74.0644 69.3137C72.4924 70.9089 70.9079 72.4939 69.3109 74.0685C67.1463 76.1911 64.5882 76.3888 62.1181 74.6486C60.7775 73.7038 59.4304 72.7678 58.1228 71.779C57.6833 71.445 57.3448 71.4692 56.8723 71.6779C55.4263 72.3173 53.9649 72.926 52.4881 73.4907C52.2695 73.5508 52.0749 73.677 51.9309 73.8521C51.7869 74.0271 51.7006 74.2424 51.6837 74.4684C51.3849 76.3273 51.1102 78.2037 50.6992 80.0296C50.4653 81.1251 49.8677 82.1093 49.0035 82.8221C48.1393 83.535 47.0593 83.9346 45.9391 83.9561C43.3166 84.0249 40.6927 84.0249 38.0672 83.9561C35.5312 83.8879 33.5994 82.0796 33.1489 79.4957C32.8588 77.828 32.5753 76.1603 32.3248 74.486C32.3105 74.2598 32.2266 74.0436 32.0845 73.867C31.9425 73.6904 31.7493 73.562 31.5315 73.4995C30.0788 72.9479 28.6416 72.3525 27.2197 71.7263C27.0476 71.6287 26.8493 71.587 26.6524 71.6071C26.4556 71.6272 26.2698 71.708 26.1209 71.8383C24.7342 72.8601 23.3277 73.8532 21.9146 74.8354C19.561 76.4745 17.0469 76.3185 14.9789 74.3388C13.2369 72.6718 11.5352 70.9704 9.87383 69.2346C7.93332 67.2022 7.7685 64.671 9.37497 62.3573C10.3243 60.9892 11.2994 59.6379 12.3 58.3034C12.451 58.1353 12.5443 57.9233 12.5664 57.6985C12.5886 57.4736 12.5384 57.2475 12.4231 57.0532C11.7638 55.6162 11.1309 54.1638 10.5771 52.6851C10.5104 52.4567 10.3747 52.2545 10.1886 52.1062C10.0025 51.9579 9.77514 51.8708 9.53759 51.8568C7.89376 51.5909 6.24115 51.3075 4.61051 51.024C1.75359 50.5296 0.0306446 48.5302 0.0108659 45.632C-0.00231988 43.3073 -0.00231988 40.9841 0.0108659 38.6624C0.0328422 35.828 1.76897 33.789 4.57095 33.31C6.24115 33.0243 7.91574 32.7782 9.57715 32.4508C9.74322 32.3997 9.89689 32.3147 10.0285 32.2013C10.1601 32.0878 10.2668 31.9484 10.3419 31.7917C11.0122 30.2712 11.5902 28.7156 12.2648 27.1907C12.3581 27.0154 12.3945 26.8155 12.3689 26.6186C12.3433 26.4217 12.257 26.2377 12.122 26.0921C11.155 24.7737 10.2101 23.429 9.26509 22.0909C7.43446 19.5026 7.64104 16.945 9.86724 14.7082C11.3909 13.1775 12.9205 11.6526 14.4559 10.1336C16.7414 7.86827 19.2907 7.66173 21.8993 9.52718C23.2178 10.4676 24.5013 11.4322 25.8374 12.333C25.9886 12.4177 26.1559 12.4699 26.3285 12.4862C26.5011 12.5024 26.6751 12.4824 26.8395 12.4275C28.3625 11.8321 29.8437 11.1333 31.3732 10.5533C31.5893 10.4882 31.7801 10.3582 31.9197 10.1809C32.0593 10.0036 32.1409 9.78762 32.1534 9.56233C32.4171 7.89024 32.6918 6.22035 32.9929 4.55485C33.3973 2.30928 34.6587 0.808575 36.8871 0.171379C37.0108 0.123853 37.1312 0.068069 37.2475 0.00439453H46.4336C46.5506 0.0673727 46.6718 0.122427 46.7962 0.169187C48.9938 0.788805 50.2641 2.25435 50.6816 4.46476C50.9959 6.12587 51.264 7.79796 51.5167 9.47005C51.5293 9.68319 51.6083 9.88704 51.7428 10.053C51.8772 10.2189 52.0602 10.3385 52.2661 10.3951C53.8704 11.0037 55.4373 11.7134 57.0416 12.3199C57.2056 12.3747 57.3791 12.3953 57.5515 12.3806C57.7238 12.3659 57.8913 12.316 58.0437 12.2342C59.4304 11.3091 60.7687 10.316 62.1313 9.35579C64.6432 7.58483 67.199 7.78697 69.3834 9.94465C70.9569 11.5003 72.5217 13.0662 74.0776 14.6423C76.2752 16.8549 76.462 19.3993 74.649 21.9591C73.7018 23.2972 72.7216 24.6111 71.8096 25.9734C71.7244 26.1251 71.6714 26.2929 71.654 26.466C71.6366 26.6392 71.6552 26.8141 71.7085 26.9798C72.3019 28.531 72.9876 30.0559 73.5809 31.5939C73.6378 31.7868 73.7527 31.9576 73.9099 32.0829C74.0672 32.2083 74.2592 32.2823 74.46 32.2948C76.1302 32.5607 77.8201 32.7607 79.4596 33.1627C80.4519 33.4241 81.3931 33.8505 82.244 34.424C83.2615 35.0985 83.6439 36.2652 84.0021 37.3924L83.9999 46.579ZM18.4644 12.9483C18.2446 13.1218 18.0248 13.2669 17.8402 13.4514C16.3019 14.9741 14.7943 16.5144 13.2472 18.0195C12.7835 18.4589 12.7483 18.8258 13.1329 19.3532C14.4097 21.0934 15.614 22.8863 16.9062 24.6133C17.7611 25.7581 17.7743 26.8106 17.1612 28.1047C16.1634 30.1896 15.2887 32.3312 14.5416 34.5184C14.0581 35.951 13.2626 36.6981 11.788 36.9046C9.70681 37.1947 7.63884 37.588 5.56208 37.9175C4.97751 38.0098 4.73137 38.2691 4.74236 38.8953C4.77533 41.0003 4.78632 43.1052 4.74236 45.2101C4.72478 45.9968 4.97971 46.3088 5.76866 46.4274C7.90256 46.7416 10.0189 47.1701 12.1528 47.4931C13.445 47.6908 14.2207 48.3851 14.5526 49.6222C15.1878 51.9702 16.1362 54.222 17.3721 56.3171C18.0468 57.4641 17.9787 58.5144 17.1919 59.5932C15.9151 61.3312 14.6998 63.1088 13.4186 64.8534C13.0098 65.4071 13.0428 65.7806 13.5307 66.2552C15.0602 67.7405 16.5678 69.2478 18.0534 70.7771C18.5039 71.2407 18.8599 71.2824 19.383 70.8979C21.1257 69.6213 22.9168 68.4129 24.6463 67.1231C25.7891 66.2728 26.8571 66.2596 28.1449 66.8704C30.1817 67.8537 32.2746 68.7165 34.4126 69.4544C35.8586 69.9399 36.5618 70.7727 36.764 72.236C37.0541 74.3168 37.4453 76.3844 37.7705 78.4608C37.8628 79.054 38.1353 79.2847 38.7529 79.276C40.8846 79.2474 43.0185 79.2364 45.1502 79.276C45.8798 79.2913 46.1611 79.0189 46.2688 78.3246C46.6006 76.1669 46.9984 74.018 47.3368 71.8603C47.5346 70.6079 48.2159 69.8586 49.4334 69.5335C51.7878 68.918 54.0467 67.9828 56.1471 66.754C57.3272 66.0596 58.3931 66.1497 59.4897 66.9627C61.2236 68.2459 63.0059 69.4587 64.7508 70.7353C65.2651 71.1133 65.6299 71.1221 66.0848 70.6453C67.588 69.0969 69.1146 67.5699 70.6647 66.064C71.135 65.607 71.1328 65.2401 70.757 64.7237C69.4845 62.9813 68.2714 61.1928 66.9902 59.4504C66.1837 58.3518 66.1705 57.3344 66.7529 56.0996C67.7726 53.9331 68.7022 51.7183 69.5109 49.4662C69.9746 48.1764 70.7108 47.4601 72.0426 47.2558C74.1479 46.935 76.2444 46.5548 78.352 46.2384C79.0398 46.1352 79.3343 45.8561 79.3211 45.1267C79.2838 43.0481 79.2728 40.9695 79.3211 38.8953C79.3431 38.0692 79.0025 37.8165 78.2553 37.7044C76.1478 37.3902 74.0556 36.9925 71.9503 36.6651C70.6713 36.4652 69.9878 35.7467 69.5329 34.536C68.6956 32.2641 67.7748 30.0207 66.7463 27.8279C66.1859 26.6238 66.1749 25.6175 66.966 24.5474C68.2451 22.8072 69.4582 21.0319 70.735 19.2741C71.1328 18.7336 71.1503 18.3534 70.6493 17.8678C69.1168 16.3825 67.6092 14.8745 66.1266 13.3438C65.6409 12.8406 65.2761 12.8384 64.7289 13.2449C62.9708 14.55 61.1797 15.7959 59.415 17.0878C58.4612 17.7866 57.4745 17.9382 56.4328 17.3449C54.1291 16.0333 51.6668 15.0224 49.1059 14.3369C48.0225 14.0469 47.4093 13.3174 47.2247 12.2034C46.8621 9.99299 46.4578 7.79137 46.1149 5.57876C46.016 4.94156 45.7633 4.69987 45.1084 4.69987C43.0031 4.73063 40.8978 4.74162 38.7924 4.69987C38.0452 4.68229 37.72 4.91959 37.6079 5.66665C37.2959 7.74522 36.8871 9.81062 36.586 11.8892C36.3816 13.2932 35.652 14.0864 34.3093 14.5654C32.0875 15.374 29.903 16.3078 27.7647 17.3163C26.545 17.8942 25.51 17.9338 24.409 17.1208C22.6948 15.853 20.9455 14.6357 19.2072 13.4031C18.994 13.2647 18.7566 13.1306 18.4644 12.9483Z" fill="#E5F5FF"/>
<path d="M41.9791 23.8664C51.9058 23.7983 60.015 31.8665 60.1293 41.9254C60.2436 51.8129 52.1431 59.9668 42.0868 60.0833C32.1425 60.1976 23.9234 52.0195 23.9058 41.9913C23.8882 32.0181 31.9491 23.9345 41.9791 23.8664ZM42.0296 55.3615C49.4269 55.3307 55.4945 49.2356 55.4066 41.9232C55.3165 34.5251 49.3258 28.5663 42.0011 28.5882C34.6192 28.6102 28.5384 34.7251 28.6307 42.0331C28.7208 49.4443 34.7027 55.3922 42.0296 55.3615Z" fill="#E5F5FF"/>
</g>
<defs>
<clipPath id="clip0_1_281">
<rect width="84" height="84" fill="white"/>
</clipPath>
</defs>
</svg>
