<svg width="21" height="21" viewBox="0 0 21 21" fill="none" xmlns="http://www.w3.org/2000/svg">
<path fill-rule="evenodd" clip-rule="evenodd" d="M0.544287 7.76673C1.13521 6.07069 2.17873 4.57963 3.53395 3.43167C3.7499 3.40267 3.96302 3.37529 4.17333 3.34933C4.17333 4.57733 4.06954 5.85872 3.75815 7.2469C2.75044 7.38208 1.66875 7.55541 0.544287 7.76673ZM0.147179 12.6973C0.0503315 12.1443 -0.00012207 11.5759 -0.00012207 10.9959C-0.00012207 10.2536 0.0825012 9.53024 0.239239 8.83414C1.36868 8.59895 2.45106 8.41229 3.4468 8.31467C3.23788 8.99023 3.01181 9.64812 2.78831 10.2984C2.6232 10.779 2.45948 11.2553 2.30514 11.7318L2.25325 11.8385L2.09757 12.319C1.73431 12.3991 1.37106 12.4659 1.0078 12.5326C0.720929 12.5853 0.434055 12.638 0.147179 12.6973ZM1.66375 16.4676C1.10174 15.6278 0.665364 14.7001 0.380779 13.7103C0.882198 13.6041 1.36015 13.5222 1.8381 13.4403C1.7135 14.3377 1.65538 15.3377 1.66375 16.4676ZM6.72915 20.3979C5.36899 19.9145 4.1435 19.1563 3.12261 18.192C4.33738 18.0141 5.46189 17.9251 6.45659 17.9251C6.5223 18.7021 6.60871 19.5219 6.72915 20.3979ZM11.6045 20.9044C11.1508 20.9647 10.6878 20.9958 10.2173 20.9958C9.3982 20.9958 8.60158 20.9015 7.83818 20.7233C7.69947 19.7079 7.58338 18.7623 7.5464 17.9251C8.84372 17.9785 9.88159 18.1387 10.66 18.459C10.7857 18.5237 10.9114 18.5687 11.0486 18.618C11.138 18.65 11.2322 18.6838 11.3346 18.726C11.4057 19.4213 11.5013 20.1418 11.6045 20.9044ZM14.8859 19.8933C14.1734 20.2521 13.4122 20.5313 12.6146 20.7191C12.5572 20.2679 12.5065 19.8218 12.457 19.3865C12.4461 19.2903 12.4353 19.1947 12.4244 19.0997C13.2053 19.3792 14.0306 19.6586 14.8859 19.8933ZM19.3012 15.5783C18.7435 16.6351 17.9989 17.5821 17.1103 18.3775C17.0226 17.2941 16.991 16.29 16.991 15.4157C17.7692 15.5301 18.5379 15.5857 19.3012 15.5783ZM20.4286 10.6473C20.4326 10.763 20.4347 10.8792 20.4347 10.9959C20.4347 12.2382 20.2031 13.4277 19.7801 14.5253C18.8811 14.5763 17.9688 14.5374 17.0429 14.4013C17.1467 13.547 17.2505 12.853 17.5099 12.2656C17.7175 11.7318 17.9251 11.1978 18.0808 10.6639C18.8761 10.7224 19.6558 10.7168 20.4286 10.6473ZM19.2535 6.32419C19.7892 7.31467 20.1598 8.40386 20.3296 9.55656C19.7135 9.61049 19.0907 9.62167 18.444 9.59607L18.4603 9.54315C18.7289 8.66817 19.0685 7.56204 19.2535 6.32419ZM14.6872 2.00105C16.0231 2.63815 17.1959 3.55194 18.1278 4.66622C17.0389 4.59175 15.9423 4.38415 14.7596 4.04341C14.7865 3.35073 14.7576 2.67243 14.6872 2.00105ZM9.8298 1.00291C9.95835 0.998214 10.0876 0.99585 10.2173 0.99585C11.3889 0.99585 12.5145 1.18888 13.5627 1.5442C13.6649 2.25885 13.7217 2.98122 13.7217 3.72307C12.8395 3.40272 12.0092 3.08237 11.1789 2.76203L11.0751 2.70864C10.7119 2.54847 10.3486 2.44168 9.98538 2.38829C9.95334 1.9265 9.90148 1.4647 9.8298 1.00291ZM8.73639 1.10012C8.80895 1.47612 8.86751 1.85211 8.89565 2.22812C7.89807 2.12548 6.66072 2.12149 5.322 2.21617C6.3634 1.65876 7.51494 1.27369 8.73639 1.10012ZM13.9812 8.68843C15.2266 9.11554 16.3164 9.38252 17.4061 9.48929C17.8732 8.10112 18.1846 6.92657 18.3402 5.75195C17.1986 5.64517 16.005 5.48497 14.7077 5.11121C14.6039 6.23248 14.3445 7.40703 13.9812 8.68843ZM17.0429 10.5039V10.5037C15.9532 10.3969 14.8634 10.13 13.6698 9.70285C13.4104 10.5037 13.099 11.358 12.7876 12.2122V12.2123C12.6838 12.4792 12.58 12.7462 12.5282 13.0665C13.566 13.4403 14.7596 13.8674 16.057 14.1344C16.1607 13.2267 16.3164 12.4792 16.5759 11.8385C16.7315 11.358 16.8872 10.931 17.0429 10.5039ZM12.5548 18.009C13.6832 18.4138 14.8992 18.8501 16.1607 19.0997C16.005 17.6581 15.9532 16.3767 15.9532 15.2555C14.6558 14.9886 13.4104 14.6148 12.3206 14.1877C12.2168 15.2021 12.2168 16.4835 12.3206 17.9251C12.3982 17.9529 12.4763 17.9809 12.5548 18.009ZM11.0751 7.62058C11.5941 7.83421 12.2687 8.10112 12.9952 8.3681C13.3584 7.0867 13.566 5.9655 13.6179 4.79088C12.632 4.47054 11.6979 4.09681 10.7638 3.72307L10.66 3.66968C10.5719 3.64702 10.4838 3.61474 10.3917 3.581C10.2669 3.53526 10.1347 3.48684 9.98538 3.45612C9.98538 4.6841 9.82973 5.91208 9.57021 7.19348C10.141 7.30025 10.6081 7.46045 11.0751 7.62058ZM11.2039 8.79391C11.0116 8.71748 10.829 8.64488 10.66 8.58165C10.5569 8.55137 10.4454 8.51669 10.3279 8.48028C10.0316 8.38821 9.69713 8.28439 9.36269 8.20789C9.02803 9.43753 8.60534 10.5765 8.21624 11.6249C8.18294 11.7146 8.14994 11.8036 8.11723 11.8919C9.31076 11.9987 10.2968 12.1589 11.0751 12.4792L11.5422 12.6394C11.5941 12.319 11.6979 12.0521 11.8017 11.7851C12.0611 11.091 12.3725 10.2368 12.6838 9.32916C12.1724 9.17877 11.661 8.97552 11.2039 8.79391ZM11.127 17.4713C11.1659 17.4846 11.2049 17.4979 11.2308 17.4979C11.1789 16.0564 11.1789 14.8284 11.2827 13.8139L10.6081 13.547C9.88159 13.2267 8.89565 13.0665 7.70205 13.0131C7.49446 14.0276 7.39074 15.3089 7.4426 16.8573C8.89565 16.8573 10.0892 17.0708 11.0233 17.4446C11.0492 17.4446 11.0882 17.4579 11.127 17.4713ZM4.79603 7.14012C6.19714 6.97992 7.4426 6.97992 8.53233 7.0867C8.84372 5.75195 8.94751 4.5239 8.89565 3.29594C7.85778 3.13576 6.61232 3.13576 5.15927 3.24255C5.2112 4.5239 5.05547 5.8053 4.79603 7.14012ZM7.07936 11.6783C7.49446 10.5571 7.90964 9.38252 8.27288 8.10112C7.18315 8.04776 5.93769 8.04776 4.58844 8.20789C4.30063 9.30775 3.91513 10.3741 3.56092 11.3537C3.46806 11.6106 3.37735 11.8615 3.29111 12.1054L3.23922 12.1589C4.58844 11.9987 5.88583 11.8919 6.97556 11.8919C7.02742 11.8919 7.02742 11.8385 7.02742 11.8385L7.07936 11.6783ZM2.72029 17.1776C4.06954 17.0175 5.315 16.9106 6.45659 16.8573C6.40473 15.3089 6.45659 14.0276 6.71611 13.0131C5.57445 13.0131 4.32899 13.1199 2.92786 13.3335C2.72029 14.3479 2.6684 15.6293 2.72029 17.1776Z" fill="white"/>
</svg>
