<svg width="52" height="53" viewBox="0 0 52 53" fill="none" xmlns="http://www.w3.org/2000/svg">
<rect x="0.0227051" y="0.724121" width="51.7955" height="51.7955" rx="7.39935" fill="#D81159"/>
<path fill-rule="evenodd" clip-rule="evenodd" d="M32.3949 18.2976H19.446C18.4286 18.2976 17.5962 19.13 17.5962 20.1474V33.0963C17.5962 34.1137 18.4286 34.9461 19.446 34.9461H32.3949C33.4123 34.9461 34.2447 34.1137 34.2447 33.0963V20.1474C34.2447 19.13 33.4123 18.2976 32.3949 18.2976ZM32.3949 33.0963H19.446V20.1474H32.3949V33.0963ZM21.2959 24.772H23.1457V31.2464H21.2959V24.772ZM24.9955 21.9973H26.8454V31.2464H24.9955V21.9973ZM28.6952 27.5468H30.5451V31.2464H28.6952V27.5468Z" fill="white"/>
</svg>
