<svg width="51" height="51" viewBox="0 0 51 51" fill="none" xmlns="http://www.w3.org/2000/svg">
<g clip-path="url(#clip0_1_311)">
<path d="M22.7006 51V46.9855C21.6383 46.765 20.6 46.6244 19.6064 46.3289C11.53 43.9327 6.50778 38.5491 4.27143 30.4882C4.09739 29.8141 3.9672 29.1295 3.88167 28.4386C3.83374 28.1095 3.69637 28.036 3.40245 28.0408C2.45679 28.0552 1.50953 28.0408 0.563875 28.0408H0V22.948H3.99349C4.2267 21.8202 4.37685 20.7339 4.67716 19.6907C6.80809 12.2751 11.5731 7.32289 18.8221 4.7653C20.0185 4.34356 21.2917 4.13749 22.5376 3.87071C22.8571 3.80361 22.9498 3.70297 22.945 3.39146C22.929 2.44414 22.945 1.49843 22.945 0.551113V0.00317383H28.0566C28.0566 1.10385 28.0758 2.17896 28.047 3.25248C28.0343 3.68859 28.1573 3.82917 28.6077 3.89147C37.6889 5.23656 45.0194 12.3039 46.6918 21.293C46.7877 21.8138 46.8516 22.3393 46.9362 22.8905H51.0048V28.0727C49.6614 28.0616 48.318 28.0424 46.9746 28.0552C46.8564 28.0552 46.6647 28.2581 46.6343 28.3954C46.5161 28.9114 46.4746 29.4466 46.3596 29.961C44.3532 38.3223 39.1378 43.6675 31.0006 46.2331C29.9655 46.5526 28.8809 46.7299 27.7851 46.9791V50.9936L22.7006 51ZM12.6945 22.9224V28.0711H9.193C10.2776 35.9724 16.9132 41.1355 22.9306 41.7521V38.2743H28.0422V41.7729C35.0516 40.9086 40.9029 35.0282 41.7623 28.0344H38.248V22.9224H41.7623C40.6712 15.0036 34.0309 9.82297 28.0135 9.2303V12.7049H22.9018V9.20634C15.95 10.0642 10.0492 15.8934 9.18342 22.9272L12.6945 22.9224Z" fill="#0F95E2"/>
<path d="M25.4799 17.828C27.5122 17.8318 29.4603 18.6409 30.8974 20.0781C32.3345 21.5153 33.1436 23.4635 33.1474 25.496C33.1373 27.5213 32.3282 29.4608 30.896 30.8928C29.4638 32.3248 27.5242 33.1335 25.499 33.1432C23.467 33.1381 21.5197 32.3286 20.0829 30.8917C18.6461 29.4548 17.8366 27.5073 17.8315 25.4752C17.8408 23.4496 18.6496 21.5096 20.082 20.0775C21.5144 18.6453 23.4544 17.8368 25.4799 17.828Z" fill="#0F95E2"/>
</g>
<defs>
<clipPath id="clip0_1_311">
<rect width="51" height="51" fill="white"/>
</clipPath>
</defs>
</svg>
