<svg width="64" height="41" viewBox="0 0 64 41" fill="none" xmlns="http://www.w3.org/2000/svg">
<g clip-path="url(#clip0_1_302)">
<path d="M64 20.8712C63.1922 21.9686 62.4469 23.119 61.5656 24.1541C57.0625 29.4466 51.9266 33.9967 45.7656 37.3092C41.2062 39.7609 36.3625 41.2007 31.1234 40.9781C26.5922 40.7913 22.3812 39.4215 18.4172 37.2967C11.9937 33.8441 6.63906 29.1073 1.97344 23.5688C1.25781 22.7173 0.654688 21.7725 0 20.8712V20.1256C0.625 19.2321 1.20156 18.2887 1.90625 17.4544C6.45312 12.0653 11.6891 7.46241 17.8719 4.00047C22.5719 1.36821 27.5969 -0.191527 33.0594 0.0186178C37.8812 0.205413 42.325 1.70911 46.475 4.08141C53.2078 7.93406 58.7891 13.0865 63.4859 19.2103C63.6798 19.5023 63.8516 19.8082 64 20.1256V20.8712ZM4.26875 20.4151C4.30366 20.5021 4.346 20.5859 4.39531 20.6657C8.88594 26.0516 13.9953 30.7215 20.2453 34.0434C23.2563 35.6451 26.4391 36.7706 29.8562 37.1566C34.9594 37.7372 39.6266 36.3472 44.0641 33.9998C48.0469 31.8906 51.5547 29.1306 54.7391 25.9769C56.4906 24.2428 58.1203 22.3967 59.7797 20.6159C59.7333 20.5185 59.6811 20.4239 59.6234 20.3326C55.6734 15.4868 51.1734 11.2419 45.7937 7.98543C42.2969 5.86842 38.5687 4.32891 34.4625 3.84325C29.3172 3.23461 24.6063 4.63869 20.1281 6.99853C15.5219 9.42687 11.5547 12.6973 7.94063 16.4052C6.67188 17.7112 5.47813 19.0904 4.26875 20.4151Z" fill="#0F95E2"/>
<path d="M32.1 33.5469C24.7875 33.5282 18.725 27.5881 18.7516 20.4712C18.7781 13.3543 24.8703 7.42045 32.1625 7.45314C39.3875 7.48738 45.275 13.3683 45.2484 20.5288C45.2261 23.9886 43.8311 27.2991 41.3678 29.738C38.9045 32.1769 35.5729 33.5461 32.1 33.5469ZM41.5109 20.4712C41.5035 17.9974 40.5112 15.6276 38.7518 13.8818C36.9924 12.136 34.6097 11.157 32.1265 11.1595C26.8844 11.1595 22.475 15.4309 22.489 20.4992C22.5031 25.5676 26.939 29.839 32.1515 29.8265C34.6341 29.8134 37.0108 28.8234 38.7639 27.0722C40.517 25.3211 41.5044 22.9507 41.5109 20.4774V20.4712Z" fill="#0F95E2"/>
<path d="M32.1252 26.0876C28.9799 26.0876 26.2643 23.5051 26.2549 20.507C26.2455 17.509 28.9565 14.9281 32.108 14.911C35.1783 14.8939 37.769 17.4701 37.7455 20.5148C37.7264 21.9914 37.1273 23.4018 36.0766 24.4435C35.026 25.4853 33.6075 26.0755 32.1252 26.0876ZM32.0877 22.3719C32.3377 22.3763 32.5861 22.3307 32.8182 22.238C33.0504 22.1453 33.2615 22.0073 33.4393 21.8321C33.6171 21.6569 33.7578 21.448 33.8534 21.2178C33.9489 20.9876 33.9972 20.7406 33.9955 20.4915C33.9886 19.9997 33.7883 19.5302 33.4377 19.1838C33.0872 18.8375 32.6143 18.6419 32.1205 18.6391C31.0612 18.6391 30.0362 19.5233 30.008 20.4604C29.9799 21.3974 31.0018 22.361 32.0877 22.3719Z" fill="#0F95E2"/>
</g>
<defs>
<clipPath id="clip0_1_302">
<rect width="64" height="41" fill="white"/>
</clipPath>
</defs>
</svg>
