<svg width="27" height="27" viewBox="0 0 27 27" fill="none" xmlns="http://www.w3.org/2000/svg">
<path d="M13.5 0C6.04487 0 0 6.04487 0 13.5C0 20.9551 6.04487 27 13.5 27C20.9551 27 27 20.9551 27 13.5C27 6.04487 20.9551 0 13.5 0ZM14.5999 16.8388C13.277 18.7011 10.6192 19.2435 8.54598 18.445C6.46674 17.6525 4.99018 15.4557 5.16797 13.2167C5.21317 10.4776 7.73538 8.07589 10.4746 8.16931C11.7884 8.10904 13.0239 8.67857 14.0304 9.48315C13.5994 9.97132 13.1565 10.4414 12.6804 10.8783C11.472 10.0436 9.75134 9.80558 8.54297 10.7699C6.81328 11.9662 6.73493 14.7897 8.39833 16.0765C10.0165 17.544 13.0751 16.8147 13.5241 14.5667C12.5116 14.5517 11.4931 14.5667 10.4806 14.5336C10.4776 13.9279 10.4746 13.3252 10.4776 12.7195C12.1711 12.7135 13.8676 12.7105 15.5642 12.7256C15.6636 14.1509 15.4738 15.6636 14.5999 16.8388ZM21.9074 14.2383C21.4011 14.2443 20.8949 14.2473 20.3886 14.2503C20.3826 14.7566 20.3796 15.2628 20.3796 15.7691H18.8638C18.8578 15.2628 18.8578 14.7596 18.8548 14.2533C18.3485 14.2473 17.8423 14.2443 17.336 14.2383V12.7286C17.8423 12.7225 18.3485 12.7195 18.8548 12.7195C18.8578 12.2133 18.8638 11.707 18.8669 11.2008H20.3796L20.3886 12.7195C20.8949 12.7256 21.4011 12.7256 21.9074 12.7286V14.2383Z" fill="#2D2D2D"/>
</svg>
