<svg width="27" height="27" viewBox="0 0 27 27" fill="none" xmlns="http://www.w3.org/2000/svg">
<path d="M13.5 0C6.04406 0 0 6.04406 0 13.5C0 20.9559 6.04406 27 13.5 27C20.9559 27 27 20.9559 27 13.5C27 6.04406 20.9559 0 13.5 0ZM10.1953 19.0955H7.46156V10.298H10.1953V19.0955ZM8.81156 9.21797C7.94812 9.21797 7.38984 8.60625 7.38984 7.84969C7.38984 7.07766 7.965 6.48422 8.84672 6.48422C9.72844 6.48422 10.2684 7.07766 10.2853 7.84969C10.2853 8.60625 9.72844 9.21797 8.81156 9.21797ZM20.1797 19.0955H17.4459V14.22C17.4459 13.0852 17.0494 12.3145 16.0608 12.3145C15.3056 12.3145 14.857 12.8363 14.6588 13.3383C14.5856 13.5169 14.5673 13.77 14.5673 14.0217V19.0941H11.8322V13.1034C11.8322 12.0052 11.797 11.0869 11.7605 10.2966H14.1356L14.2608 11.5186H14.3156C14.6756 10.9448 15.5573 10.0983 17.0325 10.0983C18.8311 10.0983 20.1797 11.3034 20.1797 13.8938V19.0955V19.0955Z" fill="#2D2D2D"/>
</svg>
