<svg width="56" height="56" viewBox="0 0 56 56" fill="none" xmlns="http://www.w3.org/2000/svg">
<path fill-rule="evenodd" clip-rule="evenodd" d="M28 0C12.5364 0 0 12.5364 0 28C0 43.4636 12.5364 56 28 56C43.4636 56 56 43.4636 56 28C56 12.5364 43.4636 0 28 0ZM19.6178 33.6178C19.1377 34.0815 18.4948 34.3381 17.8273 34.3323C17.1599 34.3265 16.5215 34.0588 16.0496 33.5868C15.5776 33.1149 15.3099 32.4764 15.3041 31.809C15.2983 31.1416 15.5549 30.4986 16.0185 30.0185L26.2004 19.8367C26.6777 19.3595 27.325 19.0915 28 19.0915C28.675 19.0915 29.3223 19.3595 29.7996 19.8367L39.9815 30.0185C40.4451 30.4986 40.7017 31.1416 40.6959 31.809C40.6901 32.4764 40.4224 33.1149 39.9504 33.5868C39.4785 34.0588 38.8401 34.3265 38.1727 34.3323C37.5052 34.3381 36.8623 34.0815 36.3822 33.6178L28 25.2356L19.6178 33.6178Z" fill="white"/>
</svg>
