<svg width="1920" height="4177" viewBox="0 0 1920 4177" fill="none" xmlns="http://www.w3.org/2000/svg">
<g opacity="0.11" clip-path="url(#clip0_2_3151)">
<g opacity="0.8">
<path d="M-97.9979 2007.34C-97.7171 2000.53 -95.19 1993.85 -90.8377 1988.2L603.143 1079.72C609.18 1071.75 618.306 1066.48 628.836 1064.69C639.365 1063.01 649.895 1065.07 658.6 1070.6L1654.01 1704.35C1665.24 1711.54 1671.56 1723.24 1671 1735.83C1670.72 1742.64 1668.19 1749.32 1663.84 1754.97L969.859 2663.45C963.822 2671.42 954.696 2676.69 944.167 2678.49C933.637 2680.16 923.107 2678.1 914.402 2672.58L-80.8695 2038.83C-92.1012 2031.63 -98.5595 2019.94 -97.9979 2007.34ZM1667.77 1735.7C1668.33 1724.13 1662.44 1713.34 1652.19 1706.79L656.775 1073.04C648.772 1067.9 639.085 1065.97 629.397 1067.51C619.71 1069.05 611.426 1073.94 605.811 1081.26L-88.1701 1989.74C-92.1012 1995.01 -94.3476 2001.05 -94.7688 2007.34C-95.3304 2018.91 -89.4337 2029.7 -79.1847 2036.26L916.228 2670.01C924.23 2675.15 933.918 2677.07 943.605 2675.53C953.292 2673.99 961.576 2669.11 967.192 2661.78L1661.17 1753.3C1665.24 1748.16 1667.49 1742 1667.77 1735.7Z" fill="#DADADA"/>
<path d="M-103.193 1972.26C-102.912 1965.45 -100.385 1958.77 -95.8919 1953.25L592.894 1075.61C598.931 1067.9 607.917 1062.76 618.166 1061.22C628.414 1059.67 638.664 1061.86 647.087 1067.38L1608.66 1696.25C1619.33 1703.32 1625.37 1714.63 1624.81 1726.7C1624.53 1733.51 1622 1740.2 1617.51 1745.72L928.723 2623.36C916.228 2639.29 891.939 2642.89 874.53 2631.58L-87.0469 2002.59C-97.717 1995.65 -103.754 1984.34 -103.193 1972.26ZM1621.58 1726.58C1622.14 1715.53 1616.53 1705.12 1606.7 1698.69L645.122 1069.7C637.4 1064.69 627.993 1062.63 618.587 1064.04C609.18 1065.46 600.897 1070.08 595.421 1077.15L-93.3647 1954.79C-97.4363 1959.93 -99.6826 1965.97 -99.9634 1972.26C-100.525 1983.31 -94.9091 1993.72 -85.0813 2000.15L876.495 2629.01C892.501 2639.42 914.824 2636.08 926.196 2621.56L1614.98 1743.92C1619.05 1738.91 1621.3 1732.87 1621.58 1726.58Z" fill="#DADADA"/>
<path d="M-108.528 1937.06C-108.247 1930.24 -105.72 1923.69 -101.227 1918.04L582.364 1071.24C594.719 1055.95 618.587 1052.61 635.294 1063.91L1563.18 1688.03C1573.42 1694.84 1579.18 1705.89 1578.62 1717.45C1578.34 1724.26 1575.81 1730.82 1571.32 1736.47L887.727 2583.27C881.69 2590.72 872.845 2595.61 862.877 2596.89C852.909 2598.3 842.94 2595.99 834.657 2590.59L-93.2245 1966.48C-103.333 1959.67 -109.089 1948.62 -108.528 1937.06ZM1575.39 1717.32C1575.95 1706.79 1570.62 1696.64 1561.35 1690.47L633.469 1066.36C618.025 1055.95 596.264 1059.03 584.891 1073.04L-98.6999 1919.84C-102.771 1924.98 -105.158 1930.89 -105.439 1937.18C-106.001 1947.72 -100.665 1957.87 -91.3993 1964.04L836.482 2588.15C843.923 2593.16 853.049 2595.22 862.315 2593.93C871.441 2592.65 879.584 2588.28 885.06 2581.47L1568.65 1734.67C1572.72 1729.66 1575.11 1723.62 1575.39 1717.32Z" fill="#DADADA"/>
<path d="M-113.863 1901.98C-113.582 1895.17 -110.914 1888.61 -106.422 1883.09L571.835 1067.13C577.731 1059.93 586.436 1055.3 596.264 1054.15C606.091 1052.86 615.779 1055.3 623.641 1060.7L1517.69 1680.06C1527.37 1686.74 1532.85 1697.41 1532.29 1708.46C1532.01 1715.27 1529.34 1721.82 1524.85 1727.35L846.591 2543.31C834.236 2558.08 811.07 2561.04 794.784 2549.73L-99.2615 1930.37C-108.949 1923.56 -114.424 1913.03 -113.863 1901.98ZM1529.2 1708.2C1529.62 1698.05 1524.71 1688.41 1515.86 1682.24L621.816 1062.89C614.656 1057.87 605.811 1055.82 596.825 1056.85C587.84 1058 579.978 1062.24 574.502 1068.8L-103.895 1884.89C-108.106 1889.9 -110.493 1895.81 -110.774 1902.1C-111.195 1912.26 -106.281 1921.89 -97.4363 1928.06L796.61 2547.42C811.492 2557.7 832.692 2555 843.923 2541.51L1522.18 1725.55C1526.53 1720.41 1528.78 1714.5 1529.2 1708.2Z" fill="#DADADA"/>
<path d="M-119.198 1866.77C-118.917 1859.96 -116.249 1853.4 -111.616 1848.01L561.445 1062.89C567.342 1055.95 575.906 1051.58 585.453 1050.55C595 1049.52 604.407 1051.84 611.988 1057.23L1472.34 1671.84C1481.46 1678.39 1486.66 1688.54 1486.1 1699.21C1485.82 1706.02 1483.15 1712.57 1478.52 1717.97L805.455 2503.09C799.558 2510.03 790.994 2514.39 781.447 2515.42C771.9 2516.45 762.493 2514.14 754.912 2508.74L-105.439 1894.14C-114.565 1887.58 -119.759 1877.43 -119.198 1866.77ZM1482.87 1699.08C1483.29 1689.44 1478.66 1680.06 1470.37 1674.15L610.022 1059.55C603.143 1054.66 594.579 1052.48 585.874 1053.38C577.17 1054.41 569.448 1058.39 563.972 1064.69L-109.089 1849.81C-113.301 1854.69 -115.688 1860.73 -115.969 1866.9C-116.39 1876.53 -111.757 1885.91 -103.473 1891.82L756.877 2506.43C763.757 2511.31 772.321 2513.5 781.026 2512.6C789.73 2511.57 797.452 2507.58 802.927 2501.29L1475.99 1716.17C1480.2 1711.28 1482.59 1705.37 1482.87 1699.08Z" fill="#DADADA"/>
<path d="M-124.533 1831.69C-124.252 1824.88 -121.585 1818.32 -116.811 1813.05L551.056 1058.77C563.27 1045.02 585.313 1042.97 600.335 1054.02L1426.85 1663.87C1435.41 1670.17 1440.33 1680.06 1439.91 1690.21C1439.63 1697.02 1436.96 1703.57 1432.19 1708.97L764.318 2463.25C758.422 2469.93 749.998 2474.05 740.732 2474.95C731.466 2475.85 722.34 2473.4 715.039 2468.01L-111.616 1858.03C-120.181 1851.6 -125.094 1841.84 -124.533 1831.69ZM1436.68 1689.95C1437.1 1680.7 1432.75 1671.84 1424.88 1666.05L598.37 1056.2C584.751 1046.18 564.534 1048.11 553.583 1060.57L-114.284 1814.85C-118.636 1819.74 -121.023 1825.65 -121.304 1831.82C-121.725 1841.07 -117.373 1849.93 -109.51 1855.72L717.005 2465.57C723.603 2470.45 731.887 2472.63 740.451 2471.86C748.875 2471.09 756.597 2467.24 761.932 2461.2L1429.8 1706.92C1434.01 1702.03 1436.4 1696.12 1436.68 1689.95Z" fill="#DADADA"/>
<path d="M-129.868 1796.48C-129.587 1789.67 -126.779 1783.11 -122.006 1777.85L540.667 1054.41C546.563 1047.98 554.706 1044.13 563.832 1043.35C572.958 1042.58 581.803 1045.15 588.823 1050.55L1381.5 1655.52C1389.79 1661.81 1394.14 1671.07 1393.72 1680.83C1393.44 1687.77 1390.63 1694.19 1385.85 1699.46L723.182 2422.9C711.108 2436.14 689.487 2437.81 675.167 2426.76L-117.653 1821.79C-125.937 1815.5 -130.429 1806.37 -129.868 1796.48ZM1390.49 1680.7C1390.91 1671.84 1386.84 1663.48 1379.4 1657.83L586.717 1052.73C580.399 1047.85 572.396 1045.54 564.113 1046.31C555.829 1046.95 548.388 1050.55 543.053 1056.33L-119.619 1779.77C-123.971 1784.53 -126.498 1790.44 -126.779 1796.61C-127.2 1805.47 -123.129 1813.83 -115.688 1819.48L676.992 2424.57C690.049 2434.6 709.704 2432.93 720.515 2420.98L1383.19 1697.54C1387.68 1692.78 1390.21 1687 1390.49 1680.7Z" fill="#DADADA"/>
<path d="M-135.203 1761.4C-134.922 1754.46 -132.114 1748.16 -127.06 1742.9L530.418 1050.29C536.174 1044.13 544.317 1040.53 553.162 1039.89C562.007 1039.37 570.571 1041.94 577.31 1047.21L1336.29 1647.42C1344.02 1653.59 1348.23 1662.33 1347.67 1671.71C1347.39 1678.65 1344.58 1684.94 1339.52 1690.21L682.046 2382.81C676.29 2388.98 668.147 2392.58 659.302 2393.22C650.457 2393.74 641.893 2391.17 635.154 2385.9L-123.831 1785.68C-131.553 1779.52 -135.765 1770.65 -135.203 1761.4ZM1344.3 1671.58C1344.72 1663.1 1340.93 1655.13 1333.91 1649.61L575.064 1049.39C569.027 1044.64 561.305 1042.2 553.302 1042.71C545.3 1043.23 537.999 1046.57 532.804 1052.09L-124.673 1744.69C-129.166 1749.45 -131.693 1755.23 -131.974 1761.4C-132.395 1769.88 -128.604 1777.85 -121.585 1783.37L637.4 2383.58C643.437 2388.34 651.159 2390.78 659.161 2390.27C667.164 2389.75 674.464 2386.41 679.659 2380.89L1337.14 1688.28C1341.49 1683.53 1344.02 1677.75 1344.3 1671.58Z" fill="#DADADA"/>
<path d="M-140.679 1726.19C-140.398 1719.38 -137.449 1712.83 -132.395 1707.82L519.747 1046.05C525.504 1040.14 533.506 1036.8 542.07 1036.29C550.635 1035.9 558.918 1038.6 565.376 1043.87L1290.53 1639.33C1297.69 1645.24 1301.62 1653.72 1301.2 1662.58C1300.91 1669.39 1297.97 1675.95 1292.91 1680.96L640.769 2342.72C635.013 2348.63 627.01 2351.97 618.446 2352.49C609.882 2352.87 601.599 2350.17 595.14 2344.91L-130.008 1749.45C-137.169 1743.54 -141.1 1735.06 -140.679 1726.19ZM1298.11 1662.46C1298.53 1654.49 1295.02 1646.91 1288.42 1641.51L563.27 1045.92C557.514 1041.17 550.073 1038.73 542.211 1039.11C534.489 1039.5 527.329 1042.58 522.134 1047.85L-130.008 1709.61C-134.501 1714.24 -137.169 1720.02 -137.449 1726.19C-137.871 1734.16 -134.361 1741.74 -127.762 1747.14L597.387 2342.59C603.143 2347.35 610.584 2349.79 618.446 2349.4C626.168 2349.02 633.328 2345.93 638.523 2340.67L1290.67 1678.9C1295.16 1674.41 1297.83 1668.5 1298.11 1662.46Z" fill="#DADADA"/>
<path d="M-146.014 1691.11C-145.733 1684.3 -142.644 1677.75 -137.59 1672.74L509.358 1041.81C515.114 1036.16 522.836 1032.95 531.26 1032.69C539.684 1032.43 547.686 1035.13 553.723 1040.4L1245.18 1631.1C1251.92 1636.88 1255.43 1644.98 1255.15 1653.33C1254.86 1660.14 1251.78 1666.7 1246.72 1671.71L599.773 2302.63C587.98 2314.2 568.044 2314.71 555.408 2303.92L-136.045 1713.34C-142.784 1707.56 -146.435 1699.46 -146.014 1691.11ZM1251.92 1653.2C1252.34 1645.62 1248.97 1638.43 1242.93 1633.29L551.617 1042.58C546.142 1037.83 538.982 1035.39 531.4 1035.64C523.819 1035.9 516.939 1038.73 511.745 1043.74L-135.203 1674.66C-139.836 1679.16 -142.504 1684.94 -142.784 1691.11C-143.206 1698.69 -139.836 1705.89 -133.939 1711.03L557.514 2301.73C568.886 2311.5 586.717 2310.85 597.387 2300.57L1244.33 1669.65C1248.97 1665.15 1251.64 1659.37 1251.92 1653.2Z" fill="#DADADA"/>
<path d="M-151.349 1655.9C-151.068 1649.09 -147.979 1642.54 -142.644 1637.66L499.109 1037.57C510.903 1026.52 530.277 1026.39 542.351 1037.06L1199.97 1623.01C1206.15 1628.53 1209.52 1636.24 1209.1 1644.21C1208.81 1651.02 1205.73 1657.57 1200.39 1662.46L558.637 2262.54C546.844 2273.59 527.469 2273.72 515.395 2263.05L-142.223 1677.1C-148.4 1671.58 -151.77 1663.87 -151.349 1655.9ZM1205.73 1644.08C1206.01 1637.01 1203.06 1630.07 1197.44 1625.06L539.965 1039.11C529.154 1029.48 511.885 1029.73 501.215 1039.5L-140.538 1639.58C-145.171 1643.95 -147.979 1649.73 -148.26 1655.9C-148.541 1662.97 -145.592 1669.91 -139.977 1674.92L517.642 2260.87C528.452 2270.51 545.721 2270.25 556.251 2260.48L1198 1660.4C1202.78 1656.03 1205.44 1650.25 1205.73 1644.08Z" fill="#DADADA"/>
<path d="M-156.824 1620.82C-156.543 1613.88 -153.314 1607.46 -147.979 1602.7L488.579 1033.33C500.232 1022.92 519.046 1023.05 530.558 1033.72L1154.34 1614.91C1160.1 1620.31 1163.19 1627.63 1162.76 1635.09C1162.48 1642.02 1159.25 1648.45 1153.92 1653.2L517.361 2222.45C505.708 2232.86 486.895 2232.73 475.382 2222.06L-148.4 1640.87C-154.016 1635.6 -157.105 1628.28 -156.824 1620.82ZM1159.68 1634.96C1159.96 1628.28 1157.29 1621.72 1152.09 1616.97L528.312 1035.77C518.063 1026.26 501.356 1026.14 490.826 1035.39L-145.733 1604.76C-150.506 1609.13 -153.314 1614.78 -153.595 1620.95C-153.876 1627.63 -151.208 1634.19 -146.014 1638.94L477.769 2220.14C488.018 2229.64 504.725 2229.77 515.255 2220.52L1151.81 1651.28C1156.59 1646.78 1159.39 1641 1159.68 1634.96Z" fill="#DADADA"/>
<path d="M-162.159 1585.61C-161.878 1578.68 -158.649 1572.25 -153.033 1567.5L478.19 1029.09C483.806 1024.34 491.107 1021.77 498.828 1022.02C506.55 1022.28 513.71 1025.24 518.905 1030.38L1108.99 1606.82C1114.33 1611.96 1117.14 1618.77 1116.71 1625.96C1116.43 1632.9 1113.2 1639.33 1107.59 1644.08L476.224 2182.36C464.572 2192.25 446.32 2191.74 435.509 2181.07L-154.437 1604.76C-159.772 1599.49 -162.58 1592.81 -162.159 1585.61ZM1113.48 1625.71C1113.77 1619.41 1111.38 1613.37 1106.61 1608.74L516.518 1032.3C511.885 1027.68 505.567 1025.11 498.688 1024.85C491.809 1024.59 485.35 1026.91 480.296 1031.15L-150.927 1569.68C-155.841 1573.92 -158.79 1579.57 -159.07 1585.74C-159.351 1592.04 -156.964 1598.08 -152.191 1602.7L437.896 2179.14C447.584 2188.52 463.729 2189.04 474.119 2180.3L1105.48 1641.77C1110.4 1637.66 1113.2 1631.87 1113.48 1625.71Z" fill="#DADADA"/>
<path d="M-167.635 1550.53C-167.354 1543.6 -163.984 1537.17 -158.228 1532.54L467.801 1024.85C479.313 1015.47 497.003 1016.5 507.252 1027.04L1063.5 1598.72C1068.42 1603.73 1070.8 1610.16 1070.52 1616.84C1070.24 1623.78 1066.87 1630.2 1061.12 1634.83L435.088 2142.39C423.576 2151.77 405.886 2150.75 395.637 2140.21L-160.615 1568.52C-165.529 1563.64 -167.915 1557.22 -167.635 1550.53ZM1067.43 1616.58C1067.72 1610.67 1065.47 1605.02 1061.26 1600.52L504.865 1028.96C495.74 1019.58 480.156 1018.81 469.907 1027.04L-156.122 1534.73C-161.176 1538.84 -164.125 1544.5 -164.406 1550.66C-164.686 1556.57 -162.44 1562.23 -158.228 1566.73L398.023 2138.41C407.149 2147.79 422.733 2148.56 432.982 2140.34L1059.01 1632.64C1064.21 1628.4 1067.15 1622.75 1067.43 1616.58Z" fill="#DADADA"/>
<path d="M-173.11 1515.33C-172.829 1508.39 -169.319 1501.83 -163.423 1497.46L457.411 1020.61C463.027 1016.37 470.047 1014.31 477.207 1014.83C484.367 1015.34 490.966 1018.55 495.599 1023.57L1018.16 1590.37C1022.51 1595.12 1024.75 1601.16 1024.47 1607.46C1024.19 1614.4 1020.68 1620.95 1014.79 1625.32L393.952 2102.3C382.44 2111.04 365.311 2109.76 355.764 2099.35L-166.792 1532.42C-171.145 1527.66 -173.391 1521.62 -173.11 1515.33ZM1021.24 1607.46C1021.53 1601.93 1019.56 1596.66 1015.63 1592.42L493.212 1025.49C489.141 1021 483.244 1018.3 476.927 1017.78C470.609 1017.27 464.291 1019.07 459.377 1022.79L-161.457 1499.65C-166.511 1503.63 -169.741 1509.29 -170.021 1515.45C-170.302 1520.98 -168.337 1526.25 -164.405 1530.49L358.151 2097.29C366.715 2106.54 381.878 2107.7 391.987 2099.99L1012.82 1623.14C1017.87 1619.28 1020.96 1613.5 1021.24 1607.46Z" fill="#DADADA"/>
<path d="M-178.586 1480.25C-178.305 1473.31 -174.654 1466.75 -168.617 1462.39L447.022 1016.37C452.497 1012.39 459.377 1010.59 466.397 1011.36C473.417 1012.13 479.594 1015.21 484.087 1020.35L972.808 1582.4C976.739 1586.9 978.704 1592.55 978.564 1598.34C978.283 1605.27 974.633 1611.83 968.596 1616.2L352.816 2062.21C341.444 2070.44 324.877 2068.77 315.751 2058.36L-172.97 1496.18C-176.901 1491.68 -178.866 1486.03 -178.586 1480.25ZM975.194 1598.21C975.475 1593.07 973.65 1588.18 970.14 1584.2L481.56 1022.15C477.769 1017.78 472.153 1014.96 466.116 1014.31C459.939 1013.67 453.901 1015.21 449.128 1018.81L-166.652 1464.7C-171.847 1468.55 -175.076 1474.21 -175.356 1480.37C-175.637 1485.39 -173.812 1490.4 -170.302 1494.38L318.419 2056.43C326.421 2065.55 341.023 2067.09 350.991 2059.9L966.63 1613.88C971.684 1610.03 974.913 1604.37 975.194 1598.21Z" fill="#DADADA"/>
<path d="M-184.061 1445.04C-183.78 1437.97 -179.99 1431.55 -173.812 1427.31L436.633 1012.13C448.005 1004.42 464.01 1006.6 472.434 1016.88L927.319 1574.18C930.829 1578.42 932.654 1583.82 932.373 1589.08C932.092 1596.15 928.302 1602.58 922.124 1606.82L311.68 2022.12C300.307 2029.83 284.302 2027.65 275.878 2017.37L-179.007 1460.07C-182.517 1455.7 -184.342 1450.43 -184.061 1445.04ZM929.144 1589.08C929.425 1584.46 927.74 1579.7 924.792 1575.98L469.907 1018.68C462.466 1009.69 448.426 1007.76 438.598 1014.44L-171.847 1429.62C-177.322 1433.34 -180.551 1439 -180.832 1445.17C-181.113 1449.79 -179.428 1454.55 -176.48 1458.27L278.406 2015.57C285.847 2024.56 299.886 2026.49 309.714 2019.81L920.159 1604.63C925.634 1600.91 928.863 1595.25 929.144 1589.08Z" fill="#DADADA"/>
<path d="M-189.677 1409.96C-189.396 1402.89 -185.465 1396.47 -179.007 1392.35L426.243 1008.02C437.475 1000.95 452.919 1003.39 460.781 1013.67L881.971 1566.21C885.06 1570.32 886.604 1575.08 886.323 1580.09C886.042 1587.16 882.111 1593.58 875.653 1597.69L270.543 1982.03C259.312 1989.1 243.868 1986.66 236.006 1976.38L-185.184 1423.84C-188.273 1419.72 -189.817 1414.84 -189.677 1409.96ZM883.094 1579.96C883.234 1575.59 881.971 1571.48 879.303 1567.88L458.113 1015.34C451.234 1006.35 437.756 1004.16 428.068 1010.46L-177.182 1394.67C-182.797 1398.26 -186.167 1403.79 -186.448 1410.09C-186.588 1414.46 -185.325 1418.57 -182.657 1422.17L238.533 1974.7C245.412 1983.7 258.89 1985.88 268.718 1979.59L873.968 1595.25C879.444 1591.78 882.813 1586.13 883.094 1579.96Z" fill="#DADADA"/>
<path d="M-195.152 1374.75C-194.872 1367.68 -190.66 1361.13 -184.201 1357.27L415.854 1003.78C426.945 997.224 441.968 1000.18 449.128 1010.33L836.482 1558.12C839.15 1561.97 840.554 1566.47 840.273 1570.97C839.992 1578.03 835.78 1584.59 829.322 1588.44L229.407 1941.94C218.316 1948.49 203.293 1945.54 196.133 1935.38L-191.362 1387.6C-194.029 1383.74 -195.433 1379.25 -195.152 1374.75ZM837.184 1570.84C837.325 1566.85 836.202 1563 833.815 1559.66L446.46 1011.87C440.143 1003.01 427.226 1000.44 417.539 1006.22L-182.376 1359.72C-187.992 1363.06 -191.642 1368.71 -191.923 1374.88C-192.064 1378.86 -190.94 1382.72 -188.554 1386.06L198.801 1933.84C205.118 1942.71 218.035 1945.28 227.722 1939.5L827.637 1586C833.253 1582.66 836.903 1577.01 837.184 1570.84Z" fill="#DADADA"/>
<path d="M-200.768 1339.54C-200.487 1332.35 -196.135 1325.79 -189.396 1322.07L405.465 999.537C416.556 993.497 430.876 996.838 437.475 1006.99L791.134 1550.02C793.521 1553.62 794.644 1557.73 794.363 1561.84C794.083 1569.04 789.73 1575.59 782.991 1579.32L188.131 1901.85C177.039 1907.89 162.719 1904.55 156.12 1894.39L-197.399 1351.36C-199.785 1347.77 -200.909 1343.78 -200.768 1339.54ZM791.134 1561.59C791.275 1557.99 790.292 1554.52 788.326 1551.43L434.807 1008.4C429.051 999.665 416.696 996.838 407.149 1001.98L-187.711 1324.64C-193.608 1327.85 -197.258 1333.5 -197.539 1339.67C-197.679 1343.27 -196.697 1346.74 -194.731 1349.82L158.928 1892.85C164.684 1901.59 177.039 1904.42 186.586 1899.28L781.307 1576.62C787.203 1573.54 790.854 1567.88 791.134 1561.59Z" fill="#DADADA"/>
<path d="M-206.384 1304.46C-206.103 1297.27 -201.47 1290.58 -194.45 1287.11L395.075 995.297C406.026 989.9 419.925 993.626 425.822 1003.65L745.646 1541.8C747.611 1545.14 748.594 1548.86 748.313 1552.59C748.032 1559.79 743.399 1566.47 736.379 1569.94L146.994 1861.76C136.043 1867.15 122.144 1863.43 116.247 1853.4L-203.576 1315.26C-205.542 1311.91 -206.525 1308.19 -206.384 1304.46ZM745.224 1552.46C745.365 1549.25 744.522 1546.04 742.838 1543.21L423.014 1005.06C417.819 996.453 406.026 993.241 396.479 997.867L-192.906 1289.68C-198.943 1292.64 -202.874 1298.29 -203.155 1304.59C-203.295 1307.8 -202.453 1311.02 -200.768 1313.84L119.055 1851.99C124.25 1860.6 136.043 1863.81 145.59 1859.19L735.116 1567.37C741.153 1564.41 744.944 1558.76 745.224 1552.46Z" fill="#DADADA"/>
<path d="M-212 1269.25C-211.579 1261.93 -206.946 1255.25 -199.645 1252.03L384.686 991.056C395.637 986.173 408.834 990.285 414.169 1000.31L700.157 1533.7C701.842 1536.79 702.544 1540.13 702.404 1543.47C701.982 1550.92 697.349 1557.47 690.049 1560.69L105.858 1821.66C94.9071 1826.55 81.7098 1822.44 76.3748 1812.41L-209.754 1279.02C-211.438 1275.94 -212.14 1272.59 -212 1269.25ZM699.315 1543.34C699.455 1540.51 698.753 1537.56 697.349 1534.99L411.361 1001.59C406.728 993.112 395.496 989.514 386.09 993.626L-198.241 1254.6C-204.419 1257.43 -208.49 1263.09 -208.771 1269.38C-208.911 1272.21 -208.209 1275.16 -206.805 1277.73L79.1827 1811.13C83.8158 1819.61 95.0475 1823.21 104.454 1819.09L688.785 1558.12C694.962 1555.29 699.034 1549.64 699.315 1543.34Z" fill="#DADADA"/>
</g>
</g>
<g opacity="0.27" clip-path="url(#clip1_2_3151)">
<path d="M2196.1 -232.587C2198.18 -226.282 2198.17 -219.324 2196.14 -212.676L1875.17 853.61C1872.4 862.944 1865.89 870.877 1856.91 876.13C1847.88 881.265 1837.58 883.004 1827.75 880.953L702.872 644.716C690.164 642.01 680.393 633.517 676.585 621.845C674.504 615.54 674.516 608.581 676.544 601.934L997.514 -464.352C1000.28 -473.686 1006.8 -481.62 1015.78 -486.872C1024.8 -492.008 1035.11 -493.746 1044.94 -491.695L2169.69 -255.41C2182.39 -252.704 2192.29 -244.26 2196.1 -232.587ZM679.572 620.854C683.028 631.589 692.107 639.406 703.698 641.864L1828.57 878.101C1837.63 880.041 1847.12 878.475 1855.43 873.745C1863.73 869.016 1869.6 861.723 1872.21 853.119L2193.18 -213.167C2194.96 -219.318 2194.93 -225.595 2193.16 -231.479C2189.7 -242.215 2180.62 -250.031 2169.03 -252.49L1044.16 -488.726C1035.1 -490.666 1025.61 -489.1 1017.3 -484.371C1009 -479.641 1003.13 -472.348 1000.52 -463.744L679.549 602.542C677.6 608.624 677.668 615.018 679.572 620.854Z" fill="#DADADA"/>
<path d="M2212.87 -202.39C2214.95 -196.085 2214.94 -189.126 2212.74 -182.548L1885.93 853.842C1883.07 862.941 1876.64 870.71 1867.83 875.632C1859.01 880.554 1848.92 882.079 1839.34 879.932L746.991 636.538C734.839 633.756 725.456 625.519 721.824 614.314C719.743 608.01 719.755 601.051 721.955 594.473L1048.77 -441.917C1054.69 -460.73 1075.6 -472.343 1095.35 -468.007L2187.75 -224.496C2199.86 -221.831 2209.24 -213.594 2212.87 -202.39ZM724.812 613.324C728.091 623.591 736.781 631.152 747.945 633.638L1840.34 877.149C1849.1 879.068 1858.38 877.715 1866.47 873.199C1874.56 868.683 1880.53 861.624 1883.09 853.303L2209.91 -183.087C2211.86 -189.169 2211.83 -195.445 2209.93 -201.282C2206.65 -211.549 2197.96 -219.111 2186.8 -221.596L1094.44 -464.99C1076.28 -468.987 1057.08 -458.283 1051.69 -441.144L724.876 595.246C722.883 601.211 722.907 607.487 724.812 613.324Z" fill="#DADADA"/>
<path d="M2229.82 -172.123C2231.9 -165.818 2231.84 -158.977 2229.68 -152.281L1897.02 854.212C1891.01 872.391 1870.4 883.625 1851.29 879.048L791.281 628.429C779.601 625.736 770.562 617.637 767.106 606.902C765.026 600.597 765.081 593.755 767.237 587.06L1099.9 -419.433C1102.84 -428.299 1109.23 -435.785 1117.88 -440.376C1126.48 -445.085 1136.36 -446.396 1145.76 -444.318L2205.77 -193.698C2217.32 -190.958 2226.36 -182.858 2229.82 -172.123ZM770.094 605.911C773.197 615.709 781.544 623.133 792.107 625.577L1852.11 876.197C1869.76 880.387 1888.54 870.109 1894.1 853.439L2226.76 -153.054C2228.71 -159.137 2228.86 -165.344 2226.96 -171.18C2223.85 -180.979 2215.51 -188.403 2204.94 -190.846L1144.94 -441.466C1136.44 -443.482 1127.41 -442.225 1119.4 -437.874C1111.53 -433.572 1105.6 -426.796 1102.95 -418.709L770.286 587.785C768.294 593.75 768.19 600.075 770.094 605.911Z" fill="#DADADA"/>
<path d="M2246.71 -141.974C2248.79 -135.669 2248.61 -128.779 2246.41 -122.201L1908.03 854.348C1905.13 862.931 1898.78 870.135 1890.22 874.561C1881.7 879.104 1872.03 880.202 1863.01 877.979L835.483 620.085C824.359 617.317 815.708 609.473 812.429 599.206C810.348 592.901 810.532 586.012 812.732 579.434L1151.11 -397.115C1157.3 -414.825 1177.41 -425.467 1196.13 -420.746L2223.66 -162.853C2234.83 -159.968 2243.43 -152.241 2246.71 -141.974ZM815.333 598.381C818.432 607.78 826.218 614.879 836.397 617.468L1863.92 875.361C1872.17 877.473 1880.94 876.313 1888.78 872.293C1896.57 868.156 1902.29 861.593 1905.03 853.74L2243.49 -122.974C2245.61 -128.987 2245.76 -135.195 2243.85 -141.031C2240.76 -150.43 2232.97 -157.53 2222.79 -160.118L1195.26 -418.012C1178.17 -422.277 1159.77 -412.544 1154.16 -396.391L815.781 580.158C813.577 586.337 813.557 592.496 815.333 598.381Z" fill="#DADADA"/>
<path d="M2263.66 -111.707C2265.74 -105.402 2265.55 -98.5128 2263.18 -92.0033L1918.96 854.649C1915.97 862.998 1909.66 869.919 1901.31 874.132C1892.96 878.344 1883.59 879.463 1874.82 877.144L879.644 612.024C869.077 609.181 860.858 601.709 857.711 591.793C855.631 585.489 855.814 578.599 858.186 572.09L1202.41 -374.563C1205.4 -382.912 1211.71 -389.833 1220.06 -394.045C1228.41 -398.258 1237.78 -399.376 1246.54 -397.058L2241.72 -131.938C2252.29 -129.095 2260.51 -121.622 2263.66 -111.707ZM860.699 590.803C863.622 599.733 871.063 606.695 880.643 609.241L1875.82 874.361C1883.77 876.452 1892.33 875.505 1899.95 871.699C1907.54 867.775 1913.21 861.495 1916.04 853.876L2260.26 -92.7763C2262.43 -98.6727 2262.53 -104.997 2260.67 -110.716C2257.75 -119.647 2250.3 -126.608 2240.73 -129.155L1245.55 -394.275C1237.6 -396.366 1229.04 -395.419 1221.42 -391.613C1213.83 -387.689 1208.16 -381.409 1205.33 -373.79L861.107 572.863C858.943 578.759 858.795 584.966 860.699 590.803Z" fill="#DADADA"/>
<path d="M2280.56 -81.5576C2282.64 -75.2527 2282.45 -68.3633 2279.91 -61.9228L1929.84 854.834C1923.42 871.558 1904.04 880.995 1886.55 876.075L923.847 603.681C913.879 600.879 906.005 593.545 902.906 584.146C900.826 577.841 901.009 570.952 903.509 564.394L1253.58 -352.362C1256.66 -360.477 1262.93 -367.115 1271.07 -371.114C1279.2 -375.113 1288.36 -376.018 1296.87 -373.603L2259.74 -101.14C2269.76 -98.2214 2277.59 -91.0045 2280.56 -81.5576ZM905.938 583.273C908.728 591.851 915.738 598.441 924.889 601.015L1887.59 873.409C1903.45 877.874 1921.21 869.18 1926.92 854.061L2276.99 -62.6958C2279.28 -68.6404 2279.43 -74.8478 2277.57 -80.5669C2274.78 -89.1457 2267.77 -95.7353 2258.62 -98.3093L1295.91 -370.703C1288.22 -372.891 1279.92 -372.04 1272.38 -368.399C1264.97 -364.806 1259.25 -358.643 1256.46 -351.307L906.39 565.45C904.226 571.346 904.078 577.554 905.938 583.273Z" fill="#DADADA"/>
<path d="M2297.5 -51.291C2299.58 -44.9861 2299.27 -38.0485 2296.72 -31.608L1940.81 855.252C1937.64 863.132 1931.54 869.44 1923.49 873.274C1915.43 877.108 1906.49 877.799 1898.23 875.288L968.053 595.737C958.341 592.839 951.199 585.898 948.233 576.851C946.108 570.429 946.464 563.608 949.008 557.168L1304.92 -329.692C1311.39 -345.9 1330.52 -354.841 1347.37 -349.68L2277.68 -70.1773C2287.39 -67.2792 2294.62 -60.5035 2297.5 -51.291ZM951.221 575.86C953.879 584.087 960.456 590.305 969.179 592.906L1899.4 872.574C1906.84 874.858 1914.93 874.221 1922.22 870.676C1929.55 867.248 1935.1 861.416 1937.98 854.314L2293.89 -32.5463C2296.22 -38.3737 2296.5 -44.6292 2294.64 -50.3484C2291.98 -58.5757 2285.4 -64.793 2276.68 -67.3944L1346.45 -347.062C1331.11 -351.72 1313.77 -343.454 1308.01 -328.85L952.101 558.01C949.637 563.885 949.316 570.024 951.221 575.86Z" fill="#DADADA"/>
<path d="M2314.4 -21.1417C2316.52 -14.7197 2316.12 -8.01643 2313.32 -1.47954L1951.57 855.484C1948.43 863.082 1942.25 869.156 1934.4 872.776C1926.52 876.279 1917.83 876.874 1909.88 874.384L1012.04 587.607C1002.89 584.633 996.049 578.113 993.343 569.369C991.218 562.947 991.618 556.243 994.418 549.706L1356.17 -307.257C1359.31 -314.855 1365.49 -320.929 1373.34 -324.549C1381.22 -328.052 1389.91 -328.648 1397.86 -326.157L2295.7 -39.38C2304.85 -36.4064 2311.74 -29.7686 2314.4 -21.1417ZM996.459 568.33C998.985 576.206 1005.17 582.168 1013.47 584.797L1911.17 871.622C1918.31 873.885 1926.19 873.461 1933.3 870.247C1940.42 867.033 1945.93 861.482 1948.77 854.663L2310.53 -2.30066C2312.99 -8.17629 2313.31 -14.3147 2311.45 -20.0338C2308.93 -27.9097 2302.74 -33.872 2294.44 -36.5008L1396.61 -323.278C1389.48 -325.541 1381.6 -325.117 1374.48 -321.903C1367.36 -318.689 1361.85 -313.138 1359.01 -306.319L997.255 550.645C994.919 556.472 994.599 562.611 996.459 568.33Z" fill="#DADADA"/>
<path d="M2331.47 9.0768C2333.55 15.3816 2333.11 22.3674 2330.22 28.67L1962.75 855.689C1959.53 863.053 1953.38 868.844 1945.75 872.251C1938.07 875.54 1929.6 875.922 1921.9 873.335L1056.54 579.284C1047.99 576.352 1041.5 569.97 1038.84 561.742C1036.76 555.438 1037.2 548.452 1040.09 542.149L1407.56 -284.87C1410.78 -292.233 1416.93 -298.025 1424.56 -301.432C1432.23 -304.721 1440.71 -305.103 1448.41 -302.516L2313.76 -8.46517C2322.32 -5.53316 2328.81 0.84951 2331.47 9.0768ZM1041.7 560.8C1044.05 568.207 1049.85 573.914 1057.72 576.57L1923.12 870.738C1929.99 873.098 1937.62 872.771 1944.65 869.722C1951.56 866.721 1957.03 861.453 1959.96 854.868L2327.43 27.8489C2329.94 22.0904 2330.38 15.9038 2328.52 10.1847C2326.18 2.77732 2320.37 -2.92985 2312.51 -5.58593L1447.15 -299.637C1440.27 -301.996 1432.65 -301.669 1425.62 -298.62C1418.71 -295.619 1413.24 -290.352 1410.31 -283.767L1042.84 543.253C1040.29 548.894 1039.88 555.198 1041.7 560.8Z" fill="#DADADA"/>
<path d="M2348.37 39.2262C2350.45 45.531 2349.88 52.5651 2346.99 58.8676L1973.67 855.991C1970.37 863.12 1964.43 868.698 1956.84 871.822C1949.25 874.946 1941.03 875.232 1933.71 872.5L1100.71 571.223C1092.58 568.264 1086.6 562.088 1083.99 554.378C1081.91 548.073 1082.48 541.039 1085.37 534.736L1458.69 -262.387C1465.47 -276.976 1483.47 -284.284 1498.69 -278.779L2331.65 22.3806C2339.78 25.3399 2345.89 31.4675 2348.37 39.2262ZM1086.98 553.387C1089.2 560.443 1094.74 565.847 1102.01 568.461L1934.89 869.786C1941.51 872.242 1948.87 872.011 1955.7 869.176C1962.52 866.34 1967.82 861.403 1970.84 855.052L2344.16 57.9293C2346.84 52.2398 2347.28 46.0532 2345.42 40.334C2343.21 33.2782 2337.67 27.8742 2330.53 25.2116L1497.52 -276.065C1483.8 -281.066 1467.77 -274.363 1461.57 -261.331L1088.25 535.792C1085.57 541.481 1085.12 547.668 1086.98 553.387Z" fill="#DADADA"/>
<path d="M2365.31 69.4927C2367.39 75.7975 2366.82 82.8315 2363.63 89.1132L1984.47 856.34C1977.51 870.46 1959.89 877.225 1945.23 871.644L1144.7 563.093C1137.17 560.176 1131.45 554.303 1129.1 546.896C1127.02 540.591 1127.59 533.557 1130.78 527.275L1509.94 -239.952C1516.9 -254.072 1534.52 -260.836 1549.19 -255.256L2349.72 53.2952C2357.24 56.2129 2362.96 62.0854 2365.31 69.4927ZM1132.22 545.857C1134.39 552.396 1139.46 557.71 1146.29 560.352L1946.7 868.951C1959.86 874.028 1975.51 867.869 1981.89 855.305L2361.05 88.0786C2363.78 82.5063 2364.35 76.2715 2362.49 70.5524C2360.33 64.0132 2355.26 58.6991 2348.42 56.0572L1547.89 -252.494C1534.73 -257.57 1519.07 -251.411 1512.82 -238.896L1133.66 528.331C1130.81 533.951 1130.36 540.138 1132.22 545.857Z" fill="#DADADA"/>
<path d="M2382.34 99.5939C2384.46 106.016 2383.72 112.981 2380.49 119.145L1995.53 856.593C1988.47 870.08 1971.28 876.417 1957.13 870.644L1189.07 554.819C1181.97 551.874 1176.64 546.256 1174.47 539.318C1172.35 532.896 1173.08 525.931 1176.32 519.766L1561.32 -217.565C1568.38 -231.051 1585.57 -237.388 1599.73 -231.615L2367.78 84.2098C2374.71 87.0859 2380.04 92.7033 2382.34 99.5939ZM1177.33 538.375C1179.37 544.563 1184.05 549.622 1190.41 552.174L1958.47 867.999C1971.07 873.151 1986.35 867.536 1992.77 855.49L2377.74 118.042C2380.59 112.421 2381.21 106.304 2379.35 100.585C2377.31 94.3969 2372.63 89.3378 2366.27 86.7858L1598.21 -229.039C1585.61 -234.191 1570.33 -228.577 1563.91 -216.53L1178.9 520.801C1176.09 526.538 1175.51 532.773 1177.33 538.375Z" fill="#DADADA"/>
<path d="M2399.28 129.86C2401.4 136.282 2400.67 143.247 2397.18 149.508L2006.45 856.894C2002.96 863.155 1997.19 868.003 1990.06 870.418C1982.93 872.833 1975.39 872.595 1968.89 869.691L1233.19 546.641C1226.56 543.785 1221.67 538.54 1219.58 531.836C1217.46 525.414 1218.2 518.449 1221.68 512.188L1612.58 -195.13C1619.81 -208.147 1636.62 -213.941 1650.14 -207.927L2385.67 115.055C2392.34 118.028 2397.2 123.156 2399.28 129.86ZM1222.61 530.962C1224.52 536.798 1228.76 541.485 1234.7 544.065L1970.41 867.116C1976.22 869.743 1982.86 869.918 1989.22 867.793C1995.58 865.667 2000.67 861.342 2003.83 855.743L2394.51 148.239C2397.53 142.688 2398.28 136.522 2396.42 130.803C2394.52 124.967 2390.27 120.28 2384.33 117.7L1648.62 -205.351C1636.57 -210.578 1621.68 -205.508 1615.21 -193.978L1224.4 513.574C1221.33 519.008 1220.75 525.243 1222.61 530.962Z" fill="#DADADA"/>
<path d="M2416.31 159.962C2418.43 166.384 2417.56 173.397 2413.9 179.589L2017.38 857.196C2010.1 869.697 1993.62 874.829 1980.66 868.739L1277.43 538.414C1271.24 535.532 1266.86 530.493 1264.82 524.306C1262.69 517.884 1263.56 510.87 1267.22 504.678L1663.79 -172.811C1671.07 -185.312 1687.55 -190.445 1700.51 -184.355L2403.74 145.97C2409.89 148.736 2414.27 153.774 2416.31 159.962ZM1267.72 523.48C1269.49 528.965 1273.48 533.349 1278.87 536.004L1982.18 866.163C1993.72 871.584 2008.19 866.94 2014.71 855.927L2411.23 178.32C2414.43 172.837 2415.18 166.671 2413.32 160.952C2411.55 155.467 2407.56 151.084 2402.18 148.429L1698.95 -181.896C1687.41 -187.317 1672.94 -182.673 1666.42 -171.66L1269.89 505.947C1266.61 511.595 1265.86 517.761 1267.72 523.48Z" fill="#DADADA"/>
<path d="M2433.38 190.18C2435.5 196.602 2434.55 203.78 2430.67 209.786L2028.3 857.497C2024.64 863.289 2018.95 867.572 2012.24 869.56C2005.54 871.548 1998.42 870.883 1992.48 867.904L1321.64 530.47C1316.04 527.629 1311.92 522.894 1310.02 517.058C1307.89 510.636 1308.84 503.458 1312.72 497.452L1715.05 -150.376C1722.54 -162.291 1738.6 -166.997 1750.87 -160.783L2421.75 176.768C2427.35 179.609 2431.47 184.344 2433.38 190.18ZM1312.96 515.95C1314.6 521.084 1318.2 525.212 1323.24 527.729L1993.99 865.328C1999.25 868.031 2005.55 868.468 2011.48 866.769C2017.42 865.07 2022.56 861.263 2025.76 856.18L2428.13 208.469C2431.37 203.104 2432.38 196.842 2430.52 191.123C2428.88 185.989 2425.28 181.861 2420.24 179.344L1749.4 -158.09C1738.42 -163.586 1724.2 -159.438 1717.63 -148.942L1315.26 498.769C1311.98 504.017 1311.15 510.348 1312.96 515.95Z" fill="#DADADA"/>
<path d="M2450.4 220.281C2452.53 226.703 2451.45 233.93 2447.45 239.984L2039.23 857.798C2035.61 863.308 2029.95 867.309 2023.29 869.014C2016.62 870.72 2009.93 870.028 2004.07 866.883L1365.71 522.175C1360.59 519.424 1356.86 514.944 1355 509.624C1352.88 503.202 1353.96 495.976 1357.96 489.922L1766.3 -127.941C1773.85 -139.339 1789.52 -143.5 1801.41 -137.143L2439.82 207.682C2444.95 210.434 2448.68 214.914 2450.4 220.281ZM1358.12 508.586C1359.62 513.368 1362.96 517.193 1367.53 519.62L2005.76 864.376C2010.72 867.059 2016.81 867.709 2022.53 866.223C2028.38 864.69 2033.36 861.213 2036.47 856.295L2444.86 238.55C2448.27 233.253 2449.28 226.991 2447.42 221.272C2445.95 216.607 2442.57 212.665 2438 210.238L1799.64 -134.47C1789.22 -140.042 1775.38 -136.438 1768.76 -126.458L1360.55 491.356C1357.26 496.604 1356.26 502.866 1358.12 508.586Z" fill="#DADADA"/>
<path d="M2467.48 250.5C2469.64 257.039 2468.39 264.196 2464.22 270.182L2050.16 858.1C2042.43 869.03 2027.09 872.529 2015.89 866.048L1410 514.066C1405.35 511.404 1401.83 507.111 1400.28 502.212C1398.11 495.672 1399.37 488.515 1403.54 482.53L1817.56 -105.506C1825.28 -116.436 1840.62 -119.935 1851.83 -113.454L2457.71 238.528C2462.41 241.307 2465.88 245.483 2467.48 250.5ZM1403.23 501.104C1404.56 505.417 1407.72 509.173 1411.69 511.559L2017.57 863.541C2027.44 869.188 2040.9 866.129 2047.57 856.665L2461.63 268.747C2465.34 263.472 2466.35 257.21 2464.49 251.49C2463.16 247.177 2459.99 243.421 2456.02 241.035L1850.14 -110.947C1840.27 -116.594 1826.81 -113.535 1820.14 -104.071L1406.08 483.847C1402.37 489.122 1401.37 495.385 1403.23 501.104Z" fill="#DADADA"/>
<path d="M2484.63 280.553C2486.8 287.092 2485.42 294.298 2480.94 300.262L2061.04 858.284C2053.22 868.58 2038.31 871.653 2027.61 864.979L1454.08 505.771C1449.85 503.082 1446.81 499.277 1445.35 494.612C1443.18 488.073 1444.56 480.868 1449.04 474.903L1868.81 -83.0704C1876.63 -93.3666 1891.54 -96.4394 1902.24 -89.7654L2475.77 269.443C2480 272.132 2483.08 276.053 2484.63 280.553ZM1448.34 493.622C1449.71 497.653 1452.27 500.968 1455.94 503.333L2029.47 862.541C2038.83 868.38 2051.87 865.748 2058.54 856.684L2478.49 298.779C2482.37 293.573 2483.55 287.38 2481.64 281.543C2480.27 277.512 2477.71 274.197 2474.04 271.833L1900.51 -87.3755C1891.15 -93.2152 1878.11 -90.5826 1871.32 -81.4709L1451.41 476.551C1447.61 481.592 1446.48 487.903 1448.34 493.622Z" fill="#DADADA"/>
<path d="M2501.7 310.771C2503.87 317.31 2502.28 324.729 2497.71 330.459L2071.96 858.585C2064.1 868.365 2049.39 870.824 2039.38 864.027L1498.32 497.544C1494.57 494.945 1491.75 491.327 1490.46 487.131C1488.29 480.591 1489.88 473.172 1494.45 467.442L1920.07 -60.6352C1927.93 -70.4147 1942.64 -72.8743 1952.65 -66.0766L2493.84 300.357C2497.59 302.956 2500.41 306.575 2501.7 310.771ZM1493.32 486.188C1494.56 489.868 1496.91 492.997 1500.23 495.223L2041.29 861.706C2050.09 867.621 2062.74 865.532 2069.59 856.937L2495.21 328.86C2499.19 323.888 2500.57 317.481 2498.71 311.762C2497.47 308.082 2495.13 304.953 2491.81 302.726L1950.75 -63.7558C1941.95 -69.671 1929.29 -67.5825 1922.44 -58.9875L1496.82 469.09C1492.85 474.062 1491.46 480.469 1493.32 486.188Z" fill="#DADADA"/>
<path d="M2518.9 340.941C2521.11 347.598 2519.39 355.065 2514.53 360.774L2082.89 858.886C2074.85 868.197 2060.65 870.065 2051.15 863.074L1542.44 489.366C1539.03 486.905 1536.6 483.542 1535.44 479.697C1533.23 473.041 1534.95 465.573 1539.81 459.864L1971.45 -38.2481C1979.49 -47.559 1993.69 -49.4264 2003.19 -42.436L2511.77 331.32C2515.18 333.781 2517.57 337.028 2518.9 340.941ZM1538.47 478.823C1539.58 482.152 1541.67 484.977 1544.52 487.114L2053.1 860.871C2061.34 866.861 2073.58 865.2 2080.52 857.239L2512.11 359.009C2516.38 354.058 2517.77 347.651 2515.91 341.932C2514.81 338.604 2512.72 335.778 2509.87 333.641L2001.16 -40.067C1992.91 -46.0578 1980.68 -44.3962 1973.74 -36.4352L1542.28 461.746C1537.96 466.581 1536.57 472.987 1538.47 478.823Z" fill="#DADADA"/>
<path d="M2536.05 370.994C2538.27 377.651 2536.34 385.332 2531.13 390.903L2093.82 859.188C2085.68 867.865 2071.74 869.236 2062.92 862.122L1586.73 481.257C1583.79 478.886 1581.62 475.826 1580.6 472.332C1578.38 465.676 1580.32 457.995 1585.53 452.424L2022.71 -15.8128C2030.84 -24.4898 2044.79 -25.8612 2053.6 -18.7472L2529.79 362.118C2532.73 364.489 2534.9 367.549 2536.05 370.994ZM1583.46 471.39C1584.43 474.366 1586.3 477.006 1588.81 479.005L2065 859.87C2072.69 865.937 2084.54 864.819 2091.66 857.327L2528.84 389.09C2533.33 384.324 2534.97 377.821 2533.07 371.985C2532.09 369.008 2530.22 366.369 2527.72 364.37L2051.53 -16.4953C2043.84 -22.5616 2031.99 -21.4441 2024.87 -13.9516L1587.56 454.333C1583.07 459.099 1581.55 465.553 1583.46 471.39Z" fill="#DADADA"/>
<path d="M2553.25 401.164C2555.38 407.986 2553.45 415.667 2547.9 421.1L2104.74 859.489C2096.43 867.697 2082.99 868.476 2074.69 861.17L1630.98 473.031C1628.38 470.797 1626.6 467.992 1625.58 464.898C1623.41 457.96 1625.38 450.396 1630.94 444.963L2073.96 6.62219C2082.27 -1.58625 2095.71 -2.36542 2104.02 4.94128L2547.86 393.032C2550.45 395.266 2552.24 398.071 2553.25 401.164ZM1628.44 463.956C1629.28 466.581 1630.94 469.035 1633.1 470.896L2076.81 859.035C2083.94 865.177 2095.42 864.603 2102.58 857.628L2545.74 419.239C2550.4 414.543 2552.17 407.991 2550.27 402.155C2549.42 399.53 2547.77 397.076 2545.61 395.215L2101.9 7.07602C2094.76 0.934179 2083.29 1.50758 2076.13 8.48339L1632.97 446.872C1628.31 451.568 1626.54 458.12 1628.44 463.956Z" fill="#DADADA"/>
</g>
<g opacity="0.09" clip-path="url(#clip2_2_3151)">
<g opacity="0.8">
<path d="M3042.69 4569.54C3041.99 4558.97 3035.69 4548.6 3024.83 4539.83L1294.12 3129.8C1279.06 3117.44 1256.31 3109.26 1230.05 3106.47C1203.79 3103.88 1177.53 3107.07 1155.82 3115.64L-1326.63 4099.27C-1354.64 4110.44 -1370.4 4128.59 -1369 4148.13C-1368.3 4158.7 -1362 4169.07 -1351.14 4177.85L379.57 5587.87C394.626 5600.23 417.385 5608.41 443.645 5611.2C469.905 5613.8 496.165 5610.6 517.873 5602.03L2999.97 4618.4C3027.99 4607.24 3044.09 4589.09 3042.69 4569.54ZM-1360.95 4147.93C-1362.35 4129.98 -1347.64 4113.23 -1322.08 4103.06L1160.37 3119.43C1180.33 3111.45 1204.49 3108.46 1228.65 3110.86C1252.8 3113.25 1273.46 3120.83 1287.47 3132.2L3018.18 4542.22C3027.99 4550.4 3033.59 4559.77 3034.64 4569.54C3036.04 4587.49 3021.33 4604.24 2995.77 4614.41L513.322 5598.04C493.364 5606.02 469.205 5609.01 445.045 5606.62C420.886 5604.22 400.228 5596.64 386.222 5585.28L-1344.49 4175.25C-1354.64 4167.28 -1360.25 4157.7 -1360.95 4147.93Z" fill="#DADADA"/>
<path d="M3055.65 4515.09C3054.95 4504.52 3048.64 4494.15 3037.44 4485.58L1319.68 3123.42C1304.62 3111.45 1282.22 3103.48 1256.66 3101.08C1231.1 3098.69 1205.54 3102.08 1184.53 3110.66L-1213.54 4086.7C-1240.15 4097.67 -1255.21 4115.22 -1253.81 4133.97C-1253.11 4144.54 -1246.8 4154.91 -1235.6 4163.49L482.159 5525.64C513.322 5550.37 573.895 5555.96 617.311 5538.41L3015.38 4562.16C3041.99 4551.39 3057.05 4533.84 3055.65 4515.09ZM-1245.75 4133.77C-1247.15 4116.62 -1233.15 4100.46 -1208.64 4090.49L1189.43 3114.25C1208.69 3106.47 1232.15 3103.28 1255.61 3105.47C1279.07 3107.67 1299.72 3114.85 1313.38 3125.81L3031.14 4487.97C3041.29 4495.95 3046.89 4505.32 3047.59 4515.09C3048.99 4532.25 3034.99 4548.4 3010.48 4558.37L612.409 5534.42C572.494 5550.57 516.823 5545.39 488.462 5522.85L-1229.3 4160.69C-1239.45 4152.92 -1245.05 4143.54 -1245.75 4133.77Z" fill="#DADADA"/>
<path d="M3068.95 4460.45C3068.25 4449.88 3061.95 4439.71 3050.74 4430.93L1345.94 3116.64C1315.13 3092.91 1255.61 3087.72 1213.94 3105.27L-1100.1 4073.94C-1125.66 4084.51 -1140.01 4101.66 -1138.61 4119.61C-1137.91 4130.18 -1131.61 4140.35 -1120.4 4149.13L584.399 5463.42C599.455 5474.99 621.513 5482.57 646.373 5484.56C671.232 5486.75 696.092 5483.16 716.75 5474.79L3030.79 4506.12C3056 4495.55 3070.35 4478.4 3068.95 4460.45ZM-1130.56 4119.41C-1131.96 4103.06 -1118.65 4087.3 -1095.55 4077.73L1218.49 3109.06C1257.01 3092.91 1311.28 3097.69 1339.64 3119.43L3044.44 4433.72C3054.6 4441.7 3060.55 4450.88 3061.25 4460.65C3062.65 4477 3049.34 4492.76 3026.23 4502.33L712.198 5471C693.641 5478.78 670.882 5481.97 647.773 5479.97C625.014 5477.98 604.706 5471.2 591.051 5460.63L-1113.75 4146.34C-1123.91 4138.56 -1129.86 4129.18 -1130.56 4119.41Z" fill="#DADADA"/>
<path d="M3082.26 4406C3081.56 4395.43 3074.9 4385.26 3063.7 4376.69L1372.2 3110.26C1357.5 3099.09 1335.79 3091.91 1311.28 3090.11C1286.77 3088.12 1262.61 3091.91 1243 3100.29L-986.654 4061.57C-1010.81 4071.95 -1024.47 4088.5 -1023.07 4105.65C-1022.37 4116.22 -1015.71 4126.39 -1004.51 4134.97L686.988 5401.39C717.8 5424.33 775.572 5428.92 816.188 5411.37L3045.84 4450.08C3070 4439.51 3083.66 4423.15 3082.26 4406ZM-1015.36 4105.25C-1016.42 4089.5 -1004.16 4074.54 -982.102 4064.96L1247.55 3103.68C1265.41 3095.9 1287.47 3092.71 1309.88 3094.3C1332.29 3096.1 1351.89 3102.68 1365.55 3112.85L3057.4 4379.48C3067.9 4387.26 3073.85 4396.43 3074.55 4406.2C3075.6 4421.96 3063.35 4436.92 3041.29 4446.49L811.636 5407.78C774.521 5423.73 721.651 5419.54 693.641 5398.6L-997.858 4132.18C-1008.71 4124.2 -1014.31 4115.02 -1015.36 4105.25Z" fill="#DADADA"/>
<path d="M3095.56 4351.36C3094.86 4340.79 3088.21 4330.62 3076.65 4322.24L1398.11 3103.68C1383.4 3092.91 1362.05 3086.13 1338.24 3084.53C1314.43 3082.94 1290.97 3086.53 1272.06 3094.9L-873.56 4048.81C-896.319 4058.98 -909.274 4074.74 -907.874 4091.29C-907.173 4101.86 -900.521 4112.03 -888.966 4120.41L789.577 5338.97C804.283 5349.74 825.641 5356.52 849.45 5358.12C873.259 5359.71 896.718 5356.12 915.625 5347.75L3061.25 4393.84C3084.01 4383.67 3096.96 4367.91 3095.56 4351.36ZM-899.82 4091.09C-900.871 4076.13 -889.317 4061.57 -868.659 4052.4L1276.96 3098.49C1294.12 3090.91 1315.48 3087.52 1337.19 3088.92C1358.9 3090.51 1378.15 3096.7 1391.81 3106.47L3070.35 4325.03C3080.86 4332.61 3086.81 4341.98 3087.51 4351.56C3088.56 4366.51 3077 4381.07 3056.35 4390.25L910.724 5344.16C893.567 5351.73 872.209 5355.12 850.5 5353.73C828.792 5352.13 809.535 5345.95 795.879 5336.18L-882.664 4117.62C-893.168 4110.04 -899.12 4100.86 -899.82 4091.09Z" fill="#DADADA"/>
<path d="M3108.87 4296.91C3108.17 4286.34 3101.51 4276.17 3089.61 4267.99L1424.02 3097.29C1393.56 3075.95 1338.59 3072.76 1301.12 3089.92L-760.117 4036.45C-781.475 4046.22 -793.729 4061.57 -792.679 4077.33C-791.979 4087.9 -785.326 4098.07 -773.422 4106.45L892.167 5277.15C906.872 5287.52 927.88 5293.9 950.989 5295.29C974.098 5296.69 996.857 5292.9 1015.06 5284.52L3076.65 4337.79C3098.01 4327.82 3110.27 4312.67 3108.87 4296.91ZM-784.626 4076.93C-785.677 4062.57 -774.823 4048.81 -755.215 4039.84L1306.03 3093.31C1339.99 3077.75 1390.41 3080.74 1417.72 3100.09L3083.31 4270.78C3094.16 4278.36 3100.11 4287.54 3100.81 4297.11C3101.86 4311.47 3091.01 4325.23 3071.4 4334.21L1010.16 5280.73C993.705 5288.31 973.047 5291.7 951.689 5290.51C930.681 5289.31 911.424 5283.33 898.119 5273.95L-767.47 4103.26C-777.974 4095.68 -783.926 4086.5 -784.626 4076.93Z" fill="#DADADA"/>
<path d="M3122.17 4242.26C3121.47 4231.69 3114.47 4221.52 3102.56 4213.35L1449.93 3090.51C1435.22 3080.54 1414.92 3074.56 1392.16 3073.36C1369.4 3072.17 1347.34 3076.15 1329.83 3084.53L-647.023 4023.48C-667.681 4033.25 -678.535 4047.61 -677.485 4062.77C-676.785 4073.54 -669.782 4083.51 -657.878 4091.69L994.756 5214.52C1024.87 5235.06 1078.79 5237.66 1114.5 5220.5L3091.71 4281.55C3112.37 4271.78 3123.57 4257.62 3122.17 4242.26ZM-669.432 4062.57C-670.483 4048.81 -660.329 4035.85 -641.771 4027.07L1335.09 3087.92C1350.84 3080.34 1370.8 3076.75 1391.46 3077.95C1412.12 3078.95 1430.67 3084.53 1443.98 3093.51L3096.61 4216.34C3107.47 4223.72 3113.77 4232.89 3114.47 4242.46C3115.52 4256.23 3105.36 4269.19 3086.81 4277.96L1109.95 5217.11C1077.39 5232.67 1028.37 5230.08 1001.41 5211.53L-651.225 4088.7C-662.429 4081.32 -668.732 4072.34 -669.432 4062.57Z" fill="#DADADA"/>
<path d="M3135.48 4187.82C3134.78 4177.05 3127.77 4167.28 3115.17 4159.1L1475.49 3084.13C1461.13 3074.56 1440.83 3068.97 1418.77 3067.98C1396.71 3067.18 1375.35 3071.17 1358.55 3079.35L-534.281 4010.92C-553.538 4020.49 -564.042 4034.05 -562.641 4048.61C-561.941 4059.38 -554.938 4069.15 -542.333 4077.33L1097.35 5152.3C1111.7 5161.87 1132.01 5167.45 1154.07 5168.45C1176.13 5169.25 1197.48 5165.26 1214.29 5157.08L3107.12 4225.51C3126.37 4215.94 3136.88 4202.18 3135.48 4187.82ZM-554.238 4048.41C-555.288 4035.25 -545.835 4022.88 -528.328 4014.31L1364.15 3082.74C1379.2 3075.36 1398.46 3071.57 1418.42 3072.37C1438.38 3073.16 1456.58 3078.35 1469.54 3086.92L3109.22 4161.89C3120.42 4169.27 3126.72 4178.25 3127.42 4187.82C3128.47 4200.98 3119.02 4213.35 3101.51 4221.92L1208.69 5153.49C1193.63 5160.87 1174.37 5164.66 1154.42 5163.86C1134.46 5163.07 1116.25 5157.88 1103.3 5149.31L-536.381 4074.34C-547.235 4066.96 -553.538 4057.98 -554.238 4048.41Z" fill="#DADADA"/>
<path d="M3149.13 4133.17C3148.43 4122.6 3141.08 4112.43 3128.47 4104.65L1502.1 3077.55C1487.74 3068.38 1467.79 3063.19 1446.43 3062.39C1425.07 3061.79 1404.41 3065.98 1388.31 3074.16L-420.136 3998.35C-437.993 4007.53 -447.797 4020.69 -446.747 4034.45C-446.047 4045.02 -438.694 4055.19 -426.089 4062.97L1200.28 5090.07C1214.64 5099.25 1234.6 5104.43 1255.96 5105.23C1277.31 5105.83 1297.97 5101.64 1314.08 5093.46L3122.52 4169.27C3140.38 4160.1 3150.18 4146.93 3149.13 4133.17ZM-439.044 4034.25C-440.094 4021.89 -431.341 4010.12 -414.884 4001.74L1393.56 3077.35C1407.91 3069.97 1426.47 3066.18 1446.08 3066.78C1465.34 3067.38 1483.19 3072.17 1496.15 3080.34L3122.52 4107.44C3133.73 4114.62 3140.38 4123.6 3141.08 4133.17C3142.13 4145.54 3133.38 4157.3 3116.92 4165.68L1308.48 5089.87C1294.12 5097.25 1275.56 5101.04 1255.96 5100.44C1236.7 5099.84 1218.84 5095.06 1205.89 5086.88L-420.487 4059.78C-431.691 4052.8 -438.344 4043.62 -439.044 4034.25Z" fill="#DADADA"/>
<path d="M3162.44 4078.73C3161.74 4068.16 3154.03 4057.98 3141.43 4050.21L1528.01 3070.97C1513.65 3062.19 1494.4 3057.21 1473.39 3056.81C1452.38 3056.41 1432.42 3060.6 1417.37 3068.78L-307.043 3985.59C-323.849 3994.56 -332.603 4007.13 -331.902 4020.09C-331.202 4030.66 -323.499 4040.83 -310.894 4048.61L1302.52 5027.85C1331.94 5045.8 1381.65 5046.6 1413.17 5029.84L3137.58 4113.23C3154.38 4104.25 3163.49 4091.69 3162.44 4078.73ZM-323.849 4019.89C-324.9 4008.13 -316.497 3996.96 -301.441 3988.98L1422.62 3072.17C1436.28 3064.79 1454.13 3061 1473.04 3061.4C1491.95 3061.79 1509.1 3066.18 1522.06 3073.96L3135.48 4053.2C3147.03 4060.18 3153.68 4069.15 3154.38 4078.73C3155.43 4090.49 3147.03 4101.66 3132.33 4109.64L1407.91 5026.45C1379.55 5041.61 1335.09 5040.61 1308.48 5024.66L-304.942 4045.42C-316.497 4038.44 -323.149 4029.46 -323.849 4019.89Z" fill="#DADADA"/>
<path d="M3175.74 4024.08C3175.04 4013.51 3167.34 4003.34 3154.03 3995.76L1553.57 3064.39C1524.16 3047.24 1475.84 3047.04 1445.73 3063.59L-194.3 3973.02C-209.706 3981.6 -218.109 3993.57 -217.059 4005.93C-216.358 4016.5 -208.655 4026.67 -195.35 4034.25L1405.11 4965.62C1434.52 4982.78 1482.84 4982.97 1512.95 4966.42L3152.98 4056.99C3168.39 4048.41 3176.79 4036.45 3175.74 4024.08ZM-208.655 4005.73C-209.356 3994.76 -202.003 3983.99 -187.998 3976.22L1451.68 3066.78C1478.64 3051.82 1521.71 3052.22 1548.32 3067.38L3148.78 3998.75C3160.34 4005.53 3167.34 4014.51 3168.04 4024.08C3168.74 4035.05 3161.39 4045.82 3147.38 4053.6L1507.35 4963.03C1480.39 4977.99 1437.33 4977.59 1411.07 4962.43L-189.398 4031.06C-201.302 4024.28 -207.955 4015.3 -208.655 4005.73Z" fill="#DADADA"/>
<path d="M3189.4 3969.63C3188.7 3958.86 3180.64 3948.89 3167.34 3941.51L1579.83 3057.81C1550.77 3041.65 1503.85 3041.85 1475.14 3058.4L-80.5068 3960.46C-94.8623 3968.84 -102.565 3980.2 -101.515 3991.77C-100.814 4002.54 -92.7615 4012.51 -79.4563 4019.89L1508.05 4903.4C1537.11 4919.55 1584.03 4919.35 1612.74 4902.8L3168.39 4000.75C3182.39 3992.57 3190.1 3981.2 3189.4 3969.63ZM-93.8118 3991.57C-94.5122 3981.2 -87.8594 3971.03 -74.9045 3963.65L1480.74 3061.6C1506.3 3046.84 1547.97 3046.64 1574.23 3061L3161.74 3944.7C3173.64 3951.48 3180.64 3960.26 3181.34 3969.83C3182.04 3980.2 3175.39 3990.38 3162.44 3997.75L1606.79 4899.81C1581.23 4914.57 1539.56 4914.77 1513.3 4900.41L-74.2043 4016.9C-86.1089 4009.92 -93.1116 4000.95 -93.8118 3991.57Z" fill="#DADADA"/>
<path d="M3202.7 3914.99C3202 3904.22 3193.95 3894.25 3179.94 3886.87L1605.74 3051.22C1591.73 3043.85 1573.53 3039.86 1554.27 3040.26C1535.01 3040.65 1517.16 3045.24 1504.2 3053.22L32.5872 3947.9C19.2822 3955.87 12.2795 3966.44 13.3298 3977.61C14.03 3988.38 22.0833 3998.35 36.0886 4005.73L1610.64 4841.18C1639.7 4856.53 1685.22 4855.73 1712.18 4839.18L3183.45 3944.7C3196.75 3936.53 3203.75 3926.16 3202.7 3914.99ZM21.3831 3977.21C20.6829 3967.44 26.635 3958.07 38.5396 3950.89L1510.15 3056.21C1521.71 3049.03 1537.46 3045.04 1554.62 3044.64C1571.78 3044.24 1587.88 3047.83 1600.49 3054.42L3174.69 3890.26C3186.95 3896.84 3194.3 3905.61 3195 3915.19C3195.7 3924.96 3189.75 3934.33 3177.84 3941.51L1706.23 4836.19C1682.07 4850.75 1641.8 4851.55 1615.89 4837.98L41.3406 4002.14C29.0859 3995.76 22.0835 3986.79 21.3831 3977.21Z" fill="#DADADA"/>
<path d="M3216.36 3860.54C3215.66 3849.77 3207.25 3839.8 3192.9 3832.62L1631.65 3044.64C1602.94 3030.08 1558.82 3031.68 1533.26 3048.03L146.031 3935.33C133.776 3943.11 127.824 3953.08 128.524 3963.45C129.224 3974.22 137.627 3984.19 151.983 3991.37L1713.23 4779.15C1741.94 4793.71 1786.06 4792.11 1811.62 4775.76L3198.85 3888.46C3211.11 3880.88 3217.06 3870.91 3216.36 3860.54ZM136.227 3963.05C135.527 3953.88 141.129 3945.1 151.633 3938.12L1539.21 3051.03C1561.97 3036.47 1600.84 3035.27 1626.4 3048.03L3187.65 3836.01C3200.25 3842.39 3207.6 3851.17 3208.3 3860.74C3209 3869.92 3203.4 3878.69 3192.9 3885.67L1805.67 4772.97C1782.91 4787.53 1744.04 4788.72 1718.48 4775.96L157.235 3987.98C144.28 3981.4 136.927 3972.63 136.227 3963.05Z" fill="#DADADA"/>
<path d="M3230.01 3805.9C3229.31 3795.13 3220.56 3784.95 3205.85 3778.17L1657.56 3038.06C1643.55 3031.48 1626.05 3028.29 1608.19 3029.09C1590.33 3029.88 1573.88 3034.87 1562.32 3042.65L259.124 3922.37C248.27 3929.75 242.668 3939.12 243.368 3948.89C244.068 3959.66 252.822 3969.83 267.527 3976.61L1815.82 4716.93C1844.53 4730.49 1887.25 4728.49 1911.06 4712.34L3214.26 3832.42C3225.11 3825.04 3230.71 3815.67 3230.01 3805.9ZM251.421 3948.89C250.721 3940.32 255.623 3932.14 265.426 3925.56L1568.28 3045.64C1578.43 3038.66 1593.14 3034.47 1608.89 3033.67C1624.65 3032.88 1640.4 3035.67 1652.66 3041.45L3200.95 3781.56C3213.56 3787.75 3221.61 3796.52 3222.31 3806.1C3223.01 3814.67 3218.11 3822.85 3208.3 3829.43L1905.1 4709.15C1883.75 4723.51 1845.93 4725.3 1820.72 4713.34L272.429 3973.22C259.824 3967.24 252.121 3958.27 251.421 3948.89Z" fill="#DADADA"/>
<path d="M3243.67 3751.45C3242.97 3740.68 3233.86 3730.51 3218.81 3723.73L1683.47 3031.48C1669.81 3025.3 1652.66 3022.51 1635.15 3023.7C1617.64 3024.9 1602.24 3029.69 1591.03 3037.66L372.217 3910C362.413 3916.98 357.511 3925.76 357.862 3934.73C358.562 3945.5 367.665 3955.67 382.721 3962.45L1918.41 4654.7C1946.77 4667.47 1988.09 4664.87 2010.85 4648.72L3229.66 3776.18C3239.47 3769.2 3244.37 3760.42 3243.67 3751.45ZM366.265 3934.53C365.565 3926.56 370.116 3918.98 378.87 3912.79L1597.34 3040.46C1606.79 3033.67 1620.8 3029.29 1635.85 3028.29C1651.26 3027.29 1666.31 3029.69 1678.22 3035.27L3213.91 3727.32C3226.86 3733.3 3234.91 3742.08 3235.61 3751.65C3236.32 3759.43 3231.76 3767.2 3223.01 3773.39L2004.19 4645.73C1984.24 4659.89 1947.82 4662.28 1922.96 4651.11L387.623 3958.86C375.018 3952.88 366.965 3944.11 366.265 3934.53Z" fill="#DADADA"/>
<path d="M3257.32 3696.8C3256.62 3685.83 3247.17 3675.86 3231.76 3669.28L1709.38 3024.9C1681.02 3012.93 1641.1 3016.32 1620.1 3032.28L485.661 3897.24C476.907 3903.82 472.356 3912.2 473.056 3920.37C473.756 3931.34 483.21 3941.31 498.616 3947.89L2021 4592.48C2049.36 4604.44 2089.28 4601.05 2110.28 4585.1L3244.72 3720.14C3253.47 3713.36 3258.02 3705.18 3257.32 3696.8ZM481.109 3920.37C480.409 3913.19 484.611 3905.81 491.963 3900.03L1626.4 3035.07C1644.96 3021.11 1679.97 3018.12 1704.48 3028.49L3226.86 3672.87C3240.52 3678.65 3248.57 3687.43 3249.27 3697C3249.97 3704.18 3245.77 3711.56 3238.42 3717.35L2103.98 4582.31C2085.42 4596.27 2050.41 4599.26 2025.9 4588.89L503.518 3944.5C489.863 3938.72 481.81 3929.95 481.109 3920.37Z" fill="#DADADA"/>
<path d="M3271.33 3642.36C3270.63 3631.39 3260.82 3621.42 3244.72 3615.03L1735.29 3018.52C1707.28 3007.55 1668.76 3011.34 1649.16 3027.29L598.754 3884.87C591.051 3891.25 587.2 3898.63 587.9 3906.41C588.6 3917.38 598.404 3927.35 614.51 3933.74L2123.59 4530.25C2151.6 4541.22 2190.11 4537.43 2209.72 4521.48L3260.12 3663.9C3267.83 3657.51 3271.68 3649.94 3271.33 3642.36ZM595.953 3906.21C595.603 3899.43 598.754 3893.05 605.407 3887.47L1655.81 3029.88C1672.97 3015.92 1706.58 3012.53 1730.74 3022.31L3240.17 3618.62C3254.17 3624.21 3262.58 3632.78 3263.28 3642.56C3263.63 3649.34 3260.47 3655.72 3253.82 3661.3L2203.42 4518.88C2186.26 4532.84 2152.65 4536.24 2128.14 4526.46L618.712 3929.95C605.056 3924.56 596.653 3915.79 595.953 3906.21Z" fill="#DADADA"/>
<path d="M3284.98 3587.71C3284.28 3576.74 3273.78 3566.57 3257.67 3560.59L1761.2 3011.94C1733.54 3001.76 1696.07 3006.35 1678.22 3022.11L712.198 3872.31C705.545 3878.29 702.043 3885.27 702.744 3892.25C703.444 3903.22 713.948 3913.39 730.054 3919.38L2226.18 4468.03C2253.84 4478.2 2291.3 4473.61 2309.16 4457.86L3275.53 3607.66C3282.18 3601.67 3285.68 3594.69 3284.98 3587.71ZM710.447 3892.05C710.097 3885.87 712.898 3879.89 718.85 3874.7L1684.87 3024.5C1700.63 3010.74 1732.84 3006.75 1757 3015.72L3253.12 3564.38C3267.13 3569.56 3276.23 3578.34 3276.93 3587.91C3277.28 3594.09 3274.48 3600.08 3268.53 3605.26L2302.51 4455.46C2286.75 4469.22 2254.54 4473.21 2230.38 4464.24L734.256 3915.59C720.25 3910.4 711.147 3901.63 710.447 3892.05Z" fill="#DADADA"/>
<path d="M3298.99 3533.07C3298.29 3521.9 3287.43 3511.73 3270.63 3505.94L1787.11 3005.35C1759.45 2995.98 1723.74 3001.17 1707.28 3016.92L825.291 3859.74C819.339 3865.33 816.538 3871.71 817.238 3878.09C817.938 3889.26 828.792 3899.43 845.599 3905.22L2329.12 4405.8C2356.78 4415.18 2392.49 4409.99 2408.95 4394.24L3290.59 3551.41C3296.54 3545.83 3299.34 3539.65 3298.99 3533.07ZM825.291 3877.69C824.941 3872.11 827.392 3866.72 832.294 3861.94L1713.93 3019.12C1728.29 3005.55 1759.1 3001.17 1782.91 3009.14L3266.43 3509.93C3281.13 3514.92 3290.24 3523.69 3290.94 3533.26C3291.29 3538.85 3288.84 3544.23 3283.93 3549.02L2401.95 4391.84C2387.59 4405.4 2356.78 4409.79 2332.97 4401.81L849.8 3901.03C835.095 3896.24 825.991 3887.47 825.291 3877.69Z" fill="#DADADA"/>
<path d="M3312.99 3478.62C3312.29 3467.45 3300.74 3457.08 3283.23 3451.69L1813.02 2998.77C1785.71 2990.4 1751.05 2996.18 1736.34 3011.74L938.734 3846.98C933.833 3852.17 931.381 3857.95 932.082 3863.73C932.782 3874.9 944.336 3885.27 961.843 3890.66L2431.71 4343.58C2459.02 4351.96 2493.68 4346.17 2508.39 4330.62L3305.99 3495.37C3310.89 3490.19 3313.34 3484.4 3312.99 3478.62ZM939.785 3863.53C939.435 3858.55 941.535 3853.56 945.737 3849.17L1743.34 3013.93C1756.3 3000.57 1785.71 2995.58 1809.52 3002.76L3279.38 3455.68C3294.44 3460.27 3304.24 3469.05 3304.94 3478.82C3305.29 3483.8 3303.19 3488.79 3298.99 3493.18L2501.38 4328.42C2488.43 4341.78 2459.02 4346.77 2435.21 4339.59L964.994 3886.67C949.939 3882.08 940.485 3873.31 939.785 3863.53Z" fill="#DADADA"/>
<path d="M3327 3423.97C3325.95 3412.61 3314.4 3402.23 3296.19 3397.25L1838.93 2992.19C1811.62 2984.61 1778.71 2990.99 1765.4 3006.55L1052.18 3834.42C1047.98 3839.2 1046.23 3844.39 1046.58 3849.57C1047.63 3861.14 1059.18 3871.31 1077.39 3876.3L2534.3 4281.35C2561.61 4288.93 2594.52 4282.55 2607.82 4266.99L3321.4 3439.13C3325.6 3434.34 3327.35 3429.16 3327 3423.97ZM1054.28 3849.37C1053.93 3844.99 1055.68 3840.4 1059.18 3836.41L1772.4 3008.55C1783.96 2995.38 1811.97 2989.8 1835.43 2996.18L3292.69 3401.24C3308.09 3405.63 3318.25 3414.4 3318.95 3424.17C3319.3 3428.56 3317.55 3433.15 3314.04 3437.14L2600.82 4265C2589.27 4278.16 2561.26 4283.75 2537.8 4277.37L1080.54 3872.31C1065.13 3867.92 1054.98 3859.15 1054.28 3849.37Z" fill="#DADADA"/>
</g>
</g>
<defs>
<clipPath id="clip0_2_3151">
<rect width="1883" height="1690" fill="white" transform="translate(-212 989)"/>
</clipPath>
<clipPath id="clip1_2_3151">
<rect width="1834.13" height="1646.14" fill="white" transform="translate(2649.4 656.651) rotate(159.377)"/>
</clipPath>
<clipPath id="clip2_2_3151">
<rect width="4696" height="2623" fill="white" transform="matrix(-1 0 0 1 3327 2989)"/>
</clipPath>
</defs>
</svg>
